%TF.GenerationSoftware,KiCad,Pcbnew,7.0.5*%
%TF.CreationDate,2023-12-30T15:14:31+10:00*%
%TF.ProjectId,SimonGame,53696d6f-6e47-4616-9d65-2e6b69636164,rev?*%
%TF.SameCoordinates,Original*%
%TF.FileFunction,Drillmap*%
%TF.FilePolarity,Positive*%
%FSLAX45Y45*%
G04 Gerber Fmt 4.5, Leading zero omitted, Abs format (unit mm)*
G04 Created by KiCad (PCBNEW 7.0.5) date 2023-12-30 15:14:31*
%MOMM*%
%LPD*%
G01*
G04 APERTURE LIST*
%ADD10C,0.038100*%
%ADD11C,0.200000*%
%ADD12C,0.050000*%
G04 APERTURE END LIST*
D10*
X11050000Y-11780000D02*
G75*
G03*
X13590000Y-9240000I2340000J200000D01*
G01*
X8310000Y-9240000D02*
G75*
G03*
X10850000Y-11780000I200000J-2340000D01*
G01*
X10850000Y-6500000D02*
G75*
G03*
X8310000Y-9040000I-2340000J-200000D01*
G01*
X13590000Y-9040000D02*
G75*
G03*
X11050000Y-6500000I-200000J2340000D01*
G01*
X11050000Y-6900000D02*
G75*
G03*
X10850000Y-6900000I-100000J0D01*
G01*
X10850000Y-6500000D02*
G75*
G03*
X11050000Y-6500000I100000J0D01*
G01*
X13590000Y-9040000D02*
G75*
G03*
X13590000Y-9240000I0J-100000D01*
G01*
X13190000Y-9240000D02*
G75*
G03*
X13190000Y-9040000I0J100000D01*
G01*
X10850000Y-11380000D02*
G75*
G03*
X11050000Y-11380000I100000J0D01*
G01*
X11050000Y-11780000D02*
G75*
G03*
X10850000Y-11780000I-100000J0D01*
G01*
X8710000Y-9040000D02*
G75*
G03*
X8710000Y-9240000I0J-100000D01*
G01*
X8310000Y-9240000D02*
G75*
G03*
X8310000Y-9040000I0J100000D01*
G01*
X13640000Y-12080000D02*
G75*
G03*
X13640000Y-12080000I-250000J0D01*
G01*
X13190000Y-9240000D02*
G75*
G03*
X11050000Y-11380000I200000J-2340000D01*
G01*
X8760000Y-12080000D02*
G75*
G03*
X8760000Y-12080000I-250000J0D01*
G01*
X10850000Y-11380000D02*
G75*
G03*
X8710000Y-9240000I-2340000J-200000D01*
G01*
X13640000Y-7200000D02*
G75*
G03*
X13640000Y-7200000I-250000J0D01*
G01*
X11050000Y-6900000D02*
G75*
G03*
X13190000Y-9040000I2340000J200000D01*
G01*
X8710000Y-9040000D02*
G75*
G03*
X10850000Y-6900000I-200000J2340000D01*
G01*
X8760000Y-7200000D02*
G75*
G03*
X8760000Y-7200000I-250000J0D01*
G01*
D11*
D12*
X8410000Y-9040000D02*
X8460000Y-9090000D01*
X8460000Y-9040000D02*
X8410000Y-9090000D01*
X8410000Y-9190000D02*
X8460000Y-9240000D01*
X8460000Y-9190000D02*
X8410000Y-9240000D01*
X8485000Y-9040000D02*
X8535000Y-9090000D01*
X8535000Y-9040000D02*
X8485000Y-9090000D01*
X8485000Y-9190000D02*
X8535000Y-9240000D01*
X8535000Y-9190000D02*
X8485000Y-9240000D01*
X8560000Y-9040000D02*
X8610000Y-9090000D01*
X8610000Y-9040000D02*
X8560000Y-9090000D01*
X8560000Y-9190000D02*
X8610000Y-9240000D01*
X8610000Y-9190000D02*
X8560000Y-9240000D01*
X10850000Y-6600000D02*
X10900000Y-6650000D01*
X10900000Y-6600000D02*
X10850000Y-6650000D01*
X10850000Y-6675000D02*
X10900000Y-6725000D01*
X10900000Y-6675000D02*
X10850000Y-6725000D01*
X10850000Y-6750000D02*
X10900000Y-6800000D01*
X10900000Y-6750000D02*
X10850000Y-6800000D01*
X10850000Y-11480000D02*
X10900000Y-11530000D01*
X10900000Y-11480000D02*
X10850000Y-11530000D01*
X10850000Y-11555000D02*
X10900000Y-11605000D01*
X10900000Y-11555000D02*
X10850000Y-11605000D01*
X10850000Y-11630000D02*
X10900000Y-11680000D01*
X10900000Y-11630000D02*
X10850000Y-11680000D01*
X11000000Y-6600000D02*
X11050000Y-6650000D01*
X11050000Y-6600000D02*
X11000000Y-6650000D01*
X11000000Y-6675000D02*
X11050000Y-6725000D01*
X11050000Y-6675000D02*
X11000000Y-6725000D01*
X11000000Y-6750000D02*
X11050000Y-6800000D01*
X11050000Y-6750000D02*
X11000000Y-6800000D01*
X11000000Y-11480000D02*
X11050000Y-11530000D01*
X11050000Y-11480000D02*
X11000000Y-11530000D01*
X11000000Y-11555000D02*
X11050000Y-11605000D01*
X11050000Y-11555000D02*
X11000000Y-11605000D01*
X11000000Y-11630000D02*
X11050000Y-11680000D01*
X11050000Y-11630000D02*
X11000000Y-11680000D01*
X13290000Y-9040000D02*
X13340000Y-9090000D01*
X13340000Y-9040000D02*
X13290000Y-9090000D01*
X13290000Y-9190000D02*
X13340000Y-9240000D01*
X13340000Y-9190000D02*
X13290000Y-9240000D01*
X13365000Y-9040000D02*
X13415000Y-9090000D01*
X13415000Y-9040000D02*
X13365000Y-9090000D01*
X13365000Y-9190000D02*
X13415000Y-9240000D01*
X13415000Y-9190000D02*
X13365000Y-9240000D01*
X13440000Y-9040000D02*
X13490000Y-9090000D01*
X13490000Y-9040000D02*
X13440000Y-9090000D01*
X13440000Y-9190000D02*
X13490000Y-9240000D01*
X13490000Y-9190000D02*
X13440000Y-9240000D01*
D11*
X6420340Y-14241920D02*
X6420340Y-14041920D01*
X6420340Y-14041920D02*
X6467959Y-14041920D01*
X6467959Y-14041920D02*
X6496531Y-14051444D01*
X6496531Y-14051444D02*
X6515579Y-14070491D01*
X6515579Y-14070491D02*
X6525102Y-14089539D01*
X6525102Y-14089539D02*
X6534626Y-14127634D01*
X6534626Y-14127634D02*
X6534626Y-14156206D01*
X6534626Y-14156206D02*
X6525102Y-14194301D01*
X6525102Y-14194301D02*
X6515579Y-14213349D01*
X6515579Y-14213349D02*
X6496531Y-14232396D01*
X6496531Y-14232396D02*
X6467959Y-14241920D01*
X6467959Y-14241920D02*
X6420340Y-14241920D01*
X6620340Y-14241920D02*
X6620340Y-14108587D01*
X6620340Y-14146682D02*
X6629864Y-14127634D01*
X6629864Y-14127634D02*
X6639388Y-14118110D01*
X6639388Y-14118110D02*
X6658436Y-14108587D01*
X6658436Y-14108587D02*
X6677483Y-14108587D01*
X6744150Y-14241920D02*
X6744150Y-14108587D01*
X6744150Y-14041920D02*
X6734626Y-14051444D01*
X6734626Y-14051444D02*
X6744150Y-14060968D01*
X6744150Y-14060968D02*
X6753674Y-14051444D01*
X6753674Y-14051444D02*
X6744150Y-14041920D01*
X6744150Y-14041920D02*
X6744150Y-14060968D01*
X6867959Y-14241920D02*
X6848912Y-14232396D01*
X6848912Y-14232396D02*
X6839388Y-14213349D01*
X6839388Y-14213349D02*
X6839388Y-14041920D01*
X6972721Y-14241920D02*
X6953674Y-14232396D01*
X6953674Y-14232396D02*
X6944150Y-14213349D01*
X6944150Y-14213349D02*
X6944150Y-14041920D01*
X7201293Y-14241920D02*
X7201293Y-14041920D01*
X7201293Y-14041920D02*
X7267960Y-14184777D01*
X7267960Y-14184777D02*
X7334626Y-14041920D01*
X7334626Y-14041920D02*
X7334626Y-14241920D01*
X7515579Y-14241920D02*
X7515579Y-14137158D01*
X7515579Y-14137158D02*
X7506055Y-14118110D01*
X7506055Y-14118110D02*
X7487007Y-14108587D01*
X7487007Y-14108587D02*
X7448912Y-14108587D01*
X7448912Y-14108587D02*
X7429864Y-14118110D01*
X7515579Y-14232396D02*
X7496531Y-14241920D01*
X7496531Y-14241920D02*
X7448912Y-14241920D01*
X7448912Y-14241920D02*
X7429864Y-14232396D01*
X7429864Y-14232396D02*
X7420340Y-14213349D01*
X7420340Y-14213349D02*
X7420340Y-14194301D01*
X7420340Y-14194301D02*
X7429864Y-14175253D01*
X7429864Y-14175253D02*
X7448912Y-14165730D01*
X7448912Y-14165730D02*
X7496531Y-14165730D01*
X7496531Y-14165730D02*
X7515579Y-14156206D01*
X7610817Y-14108587D02*
X7610817Y-14308587D01*
X7610817Y-14118110D02*
X7629864Y-14108587D01*
X7629864Y-14108587D02*
X7667960Y-14108587D01*
X7667960Y-14108587D02*
X7687007Y-14118110D01*
X7687007Y-14118110D02*
X7696531Y-14127634D01*
X7696531Y-14127634D02*
X7706055Y-14146682D01*
X7706055Y-14146682D02*
X7706055Y-14203825D01*
X7706055Y-14203825D02*
X7696531Y-14222872D01*
X7696531Y-14222872D02*
X7687007Y-14232396D01*
X7687007Y-14232396D02*
X7667960Y-14241920D01*
X7667960Y-14241920D02*
X7629864Y-14241920D01*
X7629864Y-14241920D02*
X7610817Y-14232396D01*
X7791769Y-14222872D02*
X7801293Y-14232396D01*
X7801293Y-14232396D02*
X7791769Y-14241920D01*
X7791769Y-14241920D02*
X7782245Y-14232396D01*
X7782245Y-14232396D02*
X7791769Y-14222872D01*
X7791769Y-14222872D02*
X7791769Y-14241920D01*
X7791769Y-14118110D02*
X7801293Y-14127634D01*
X7801293Y-14127634D02*
X7791769Y-14137158D01*
X7791769Y-14137158D02*
X7782245Y-14127634D01*
X7782245Y-14127634D02*
X7791769Y-14118110D01*
X7791769Y-14118110D02*
X7791769Y-14137158D01*
D12*
X6109564Y-14545436D02*
X6159564Y-14595436D01*
X6159564Y-14545436D02*
X6109564Y-14595436D01*
D11*
X6458436Y-14461920D02*
X6477483Y-14461920D01*
X6477483Y-14461920D02*
X6496531Y-14471444D01*
X6496531Y-14471444D02*
X6506055Y-14480968D01*
X6506055Y-14480968D02*
X6515579Y-14500015D01*
X6515579Y-14500015D02*
X6525102Y-14538110D01*
X6525102Y-14538110D02*
X6525102Y-14585730D01*
X6525102Y-14585730D02*
X6515579Y-14623825D01*
X6515579Y-14623825D02*
X6506055Y-14642872D01*
X6506055Y-14642872D02*
X6496531Y-14652396D01*
X6496531Y-14652396D02*
X6477483Y-14661920D01*
X6477483Y-14661920D02*
X6458436Y-14661920D01*
X6458436Y-14661920D02*
X6439388Y-14652396D01*
X6439388Y-14652396D02*
X6429864Y-14642872D01*
X6429864Y-14642872D02*
X6420340Y-14623825D01*
X6420340Y-14623825D02*
X6410817Y-14585730D01*
X6410817Y-14585730D02*
X6410817Y-14538110D01*
X6410817Y-14538110D02*
X6420340Y-14500015D01*
X6420340Y-14500015D02*
X6429864Y-14480968D01*
X6429864Y-14480968D02*
X6439388Y-14471444D01*
X6439388Y-14471444D02*
X6458436Y-14461920D01*
X6610817Y-14642872D02*
X6620340Y-14652396D01*
X6620340Y-14652396D02*
X6610817Y-14661920D01*
X6610817Y-14661920D02*
X6601293Y-14652396D01*
X6601293Y-14652396D02*
X6610817Y-14642872D01*
X6610817Y-14642872D02*
X6610817Y-14661920D01*
X6801293Y-14461920D02*
X6706055Y-14461920D01*
X6706055Y-14461920D02*
X6696531Y-14557158D01*
X6696531Y-14557158D02*
X6706055Y-14547634D01*
X6706055Y-14547634D02*
X6725102Y-14538110D01*
X6725102Y-14538110D02*
X6772721Y-14538110D01*
X6772721Y-14538110D02*
X6791769Y-14547634D01*
X6791769Y-14547634D02*
X6801293Y-14557158D01*
X6801293Y-14557158D02*
X6810817Y-14576206D01*
X6810817Y-14576206D02*
X6810817Y-14623825D01*
X6810817Y-14623825D02*
X6801293Y-14642872D01*
X6801293Y-14642872D02*
X6791769Y-14652396D01*
X6791769Y-14652396D02*
X6772721Y-14661920D01*
X6772721Y-14661920D02*
X6725102Y-14661920D01*
X6725102Y-14661920D02*
X6706055Y-14652396D01*
X6706055Y-14652396D02*
X6696531Y-14642872D01*
X6934626Y-14461920D02*
X6953674Y-14461920D01*
X6953674Y-14461920D02*
X6972721Y-14471444D01*
X6972721Y-14471444D02*
X6982245Y-14480968D01*
X6982245Y-14480968D02*
X6991769Y-14500015D01*
X6991769Y-14500015D02*
X7001293Y-14538110D01*
X7001293Y-14538110D02*
X7001293Y-14585730D01*
X7001293Y-14585730D02*
X6991769Y-14623825D01*
X6991769Y-14623825D02*
X6982245Y-14642872D01*
X6982245Y-14642872D02*
X6972721Y-14652396D01*
X6972721Y-14652396D02*
X6953674Y-14661920D01*
X6953674Y-14661920D02*
X6934626Y-14661920D01*
X6934626Y-14661920D02*
X6915579Y-14652396D01*
X6915579Y-14652396D02*
X6906055Y-14642872D01*
X6906055Y-14642872D02*
X6896531Y-14623825D01*
X6896531Y-14623825D02*
X6887007Y-14585730D01*
X6887007Y-14585730D02*
X6887007Y-14538110D01*
X6887007Y-14538110D02*
X6896531Y-14500015D01*
X6896531Y-14500015D02*
X6906055Y-14480968D01*
X6906055Y-14480968D02*
X6915579Y-14471444D01*
X6915579Y-14471444D02*
X6934626Y-14461920D01*
X7125102Y-14461920D02*
X7144150Y-14461920D01*
X7144150Y-14461920D02*
X7163198Y-14471444D01*
X7163198Y-14471444D02*
X7172721Y-14480968D01*
X7172721Y-14480968D02*
X7182245Y-14500015D01*
X7182245Y-14500015D02*
X7191769Y-14538110D01*
X7191769Y-14538110D02*
X7191769Y-14585730D01*
X7191769Y-14585730D02*
X7182245Y-14623825D01*
X7182245Y-14623825D02*
X7172721Y-14642872D01*
X7172721Y-14642872D02*
X7163198Y-14652396D01*
X7163198Y-14652396D02*
X7144150Y-14661920D01*
X7144150Y-14661920D02*
X7125102Y-14661920D01*
X7125102Y-14661920D02*
X7106055Y-14652396D01*
X7106055Y-14652396D02*
X7096531Y-14642872D01*
X7096531Y-14642872D02*
X7087007Y-14623825D01*
X7087007Y-14623825D02*
X7077483Y-14585730D01*
X7077483Y-14585730D02*
X7077483Y-14538110D01*
X7077483Y-14538110D02*
X7087007Y-14500015D01*
X7087007Y-14500015D02*
X7096531Y-14480968D01*
X7096531Y-14480968D02*
X7106055Y-14471444D01*
X7106055Y-14471444D02*
X7125102Y-14461920D01*
X7277483Y-14661920D02*
X7277483Y-14528587D01*
X7277483Y-14547634D02*
X7287007Y-14538110D01*
X7287007Y-14538110D02*
X7306055Y-14528587D01*
X7306055Y-14528587D02*
X7334626Y-14528587D01*
X7334626Y-14528587D02*
X7353674Y-14538110D01*
X7353674Y-14538110D02*
X7363198Y-14557158D01*
X7363198Y-14557158D02*
X7363198Y-14661920D01*
X7363198Y-14557158D02*
X7372721Y-14538110D01*
X7372721Y-14538110D02*
X7391769Y-14528587D01*
X7391769Y-14528587D02*
X7420340Y-14528587D01*
X7420340Y-14528587D02*
X7439388Y-14538110D01*
X7439388Y-14538110D02*
X7448912Y-14557158D01*
X7448912Y-14557158D02*
X7448912Y-14661920D01*
X7544150Y-14661920D02*
X7544150Y-14528587D01*
X7544150Y-14547634D02*
X7553674Y-14538110D01*
X7553674Y-14538110D02*
X7572721Y-14528587D01*
X7572721Y-14528587D02*
X7601293Y-14528587D01*
X7601293Y-14528587D02*
X7620341Y-14538110D01*
X7620341Y-14538110D02*
X7629864Y-14557158D01*
X7629864Y-14557158D02*
X7629864Y-14661920D01*
X7629864Y-14557158D02*
X7639388Y-14538110D01*
X7639388Y-14538110D02*
X7658436Y-14528587D01*
X7658436Y-14528587D02*
X7687007Y-14528587D01*
X7687007Y-14528587D02*
X7706055Y-14538110D01*
X7706055Y-14538110D02*
X7715579Y-14557158D01*
X7715579Y-14557158D02*
X7715579Y-14661920D01*
X8106055Y-14452396D02*
X7934626Y-14709539D01*
X8363198Y-14461920D02*
X8382245Y-14461920D01*
X8382245Y-14461920D02*
X8401293Y-14471444D01*
X8401293Y-14471444D02*
X8410817Y-14480968D01*
X8410817Y-14480968D02*
X8420341Y-14500015D01*
X8420341Y-14500015D02*
X8429865Y-14538110D01*
X8429865Y-14538110D02*
X8429865Y-14585730D01*
X8429865Y-14585730D02*
X8420341Y-14623825D01*
X8420341Y-14623825D02*
X8410817Y-14642872D01*
X8410817Y-14642872D02*
X8401293Y-14652396D01*
X8401293Y-14652396D02*
X8382245Y-14661920D01*
X8382245Y-14661920D02*
X8363198Y-14661920D01*
X8363198Y-14661920D02*
X8344150Y-14652396D01*
X8344150Y-14652396D02*
X8334626Y-14642872D01*
X8334626Y-14642872D02*
X8325103Y-14623825D01*
X8325103Y-14623825D02*
X8315579Y-14585730D01*
X8315579Y-14585730D02*
X8315579Y-14538110D01*
X8315579Y-14538110D02*
X8325103Y-14500015D01*
X8325103Y-14500015D02*
X8334626Y-14480968D01*
X8334626Y-14480968D02*
X8344150Y-14471444D01*
X8344150Y-14471444D02*
X8363198Y-14461920D01*
X8515579Y-14642872D02*
X8525103Y-14652396D01*
X8525103Y-14652396D02*
X8515579Y-14661920D01*
X8515579Y-14661920D02*
X8506055Y-14652396D01*
X8506055Y-14652396D02*
X8515579Y-14642872D01*
X8515579Y-14642872D02*
X8515579Y-14661920D01*
X8648912Y-14461920D02*
X8667960Y-14461920D01*
X8667960Y-14461920D02*
X8687007Y-14471444D01*
X8687007Y-14471444D02*
X8696531Y-14480968D01*
X8696531Y-14480968D02*
X8706055Y-14500015D01*
X8706055Y-14500015D02*
X8715579Y-14538110D01*
X8715579Y-14538110D02*
X8715579Y-14585730D01*
X8715579Y-14585730D02*
X8706055Y-14623825D01*
X8706055Y-14623825D02*
X8696531Y-14642872D01*
X8696531Y-14642872D02*
X8687007Y-14652396D01*
X8687007Y-14652396D02*
X8667960Y-14661920D01*
X8667960Y-14661920D02*
X8648912Y-14661920D01*
X8648912Y-14661920D02*
X8629865Y-14652396D01*
X8629865Y-14652396D02*
X8620341Y-14642872D01*
X8620341Y-14642872D02*
X8610817Y-14623825D01*
X8610817Y-14623825D02*
X8601293Y-14585730D01*
X8601293Y-14585730D02*
X8601293Y-14538110D01*
X8601293Y-14538110D02*
X8610817Y-14500015D01*
X8610817Y-14500015D02*
X8620341Y-14480968D01*
X8620341Y-14480968D02*
X8629865Y-14471444D01*
X8629865Y-14471444D02*
X8648912Y-14461920D01*
X8906055Y-14661920D02*
X8791769Y-14661920D01*
X8848912Y-14661920D02*
X8848912Y-14461920D01*
X8848912Y-14461920D02*
X8829865Y-14490491D01*
X8829865Y-14490491D02*
X8810817Y-14509539D01*
X8810817Y-14509539D02*
X8791769Y-14519063D01*
X9001293Y-14661920D02*
X9039388Y-14661920D01*
X9039388Y-14661920D02*
X9058436Y-14652396D01*
X9058436Y-14652396D02*
X9067960Y-14642872D01*
X9067960Y-14642872D02*
X9087007Y-14614301D01*
X9087007Y-14614301D02*
X9096531Y-14576206D01*
X9096531Y-14576206D02*
X9096531Y-14500015D01*
X9096531Y-14500015D02*
X9087007Y-14480968D01*
X9087007Y-14480968D02*
X9077484Y-14471444D01*
X9077484Y-14471444D02*
X9058436Y-14461920D01*
X9058436Y-14461920D02*
X9020341Y-14461920D01*
X9020341Y-14461920D02*
X9001293Y-14471444D01*
X9001293Y-14471444D02*
X8991769Y-14480968D01*
X8991769Y-14480968D02*
X8982246Y-14500015D01*
X8982246Y-14500015D02*
X8982246Y-14547634D01*
X8982246Y-14547634D02*
X8991769Y-14566682D01*
X8991769Y-14566682D02*
X9001293Y-14576206D01*
X9001293Y-14576206D02*
X9020341Y-14585730D01*
X9020341Y-14585730D02*
X9058436Y-14585730D01*
X9058436Y-14585730D02*
X9077484Y-14576206D01*
X9077484Y-14576206D02*
X9087007Y-14566682D01*
X9087007Y-14566682D02*
X9096531Y-14547634D01*
X9163198Y-14461920D02*
X9296531Y-14461920D01*
X9296531Y-14461920D02*
X9210817Y-14661920D01*
X9363198Y-14461920D02*
X9363198Y-14500015D01*
X9439388Y-14461920D02*
X9439388Y-14500015D01*
X9734627Y-14738110D02*
X9725103Y-14728587D01*
X9725103Y-14728587D02*
X9706055Y-14700015D01*
X9706055Y-14700015D02*
X9696531Y-14680968D01*
X9696531Y-14680968D02*
X9687008Y-14652396D01*
X9687008Y-14652396D02*
X9677484Y-14604777D01*
X9677484Y-14604777D02*
X9677484Y-14566682D01*
X9677484Y-14566682D02*
X9687008Y-14519063D01*
X9687008Y-14519063D02*
X9696531Y-14490491D01*
X9696531Y-14490491D02*
X9706055Y-14471444D01*
X9706055Y-14471444D02*
X9725103Y-14442872D01*
X9725103Y-14442872D02*
X9734627Y-14433349D01*
X9801293Y-14480968D02*
X9810817Y-14471444D01*
X9810817Y-14471444D02*
X9829865Y-14461920D01*
X9829865Y-14461920D02*
X9877484Y-14461920D01*
X9877484Y-14461920D02*
X9896531Y-14471444D01*
X9896531Y-14471444D02*
X9906055Y-14480968D01*
X9906055Y-14480968D02*
X9915579Y-14500015D01*
X9915579Y-14500015D02*
X9915579Y-14519063D01*
X9915579Y-14519063D02*
X9906055Y-14547634D01*
X9906055Y-14547634D02*
X9791769Y-14661920D01*
X9791769Y-14661920D02*
X9915579Y-14661920D01*
X10087008Y-14528587D02*
X10087008Y-14661920D01*
X10039388Y-14452396D02*
X9991769Y-14595253D01*
X9991769Y-14595253D02*
X10115579Y-14595253D01*
X10344150Y-14661920D02*
X10344150Y-14461920D01*
X10429865Y-14661920D02*
X10429865Y-14557158D01*
X10429865Y-14557158D02*
X10420341Y-14538110D01*
X10420341Y-14538110D02*
X10401293Y-14528587D01*
X10401293Y-14528587D02*
X10372722Y-14528587D01*
X10372722Y-14528587D02*
X10353674Y-14538110D01*
X10353674Y-14538110D02*
X10344150Y-14547634D01*
X10553674Y-14661920D02*
X10534627Y-14652396D01*
X10534627Y-14652396D02*
X10525103Y-14642872D01*
X10525103Y-14642872D02*
X10515579Y-14623825D01*
X10515579Y-14623825D02*
X10515579Y-14566682D01*
X10515579Y-14566682D02*
X10525103Y-14547634D01*
X10525103Y-14547634D02*
X10534627Y-14538110D01*
X10534627Y-14538110D02*
X10553674Y-14528587D01*
X10553674Y-14528587D02*
X10582246Y-14528587D01*
X10582246Y-14528587D02*
X10601293Y-14538110D01*
X10601293Y-14538110D02*
X10610817Y-14547634D01*
X10610817Y-14547634D02*
X10620341Y-14566682D01*
X10620341Y-14566682D02*
X10620341Y-14623825D01*
X10620341Y-14623825D02*
X10610817Y-14642872D01*
X10610817Y-14642872D02*
X10601293Y-14652396D01*
X10601293Y-14652396D02*
X10582246Y-14661920D01*
X10582246Y-14661920D02*
X10553674Y-14661920D01*
X10734627Y-14661920D02*
X10715579Y-14652396D01*
X10715579Y-14652396D02*
X10706055Y-14633349D01*
X10706055Y-14633349D02*
X10706055Y-14461920D01*
X10887008Y-14652396D02*
X10867960Y-14661920D01*
X10867960Y-14661920D02*
X10829865Y-14661920D01*
X10829865Y-14661920D02*
X10810817Y-14652396D01*
X10810817Y-14652396D02*
X10801293Y-14633349D01*
X10801293Y-14633349D02*
X10801293Y-14557158D01*
X10801293Y-14557158D02*
X10810817Y-14538110D01*
X10810817Y-14538110D02*
X10829865Y-14528587D01*
X10829865Y-14528587D02*
X10867960Y-14528587D01*
X10867960Y-14528587D02*
X10887008Y-14538110D01*
X10887008Y-14538110D02*
X10896531Y-14557158D01*
X10896531Y-14557158D02*
X10896531Y-14576206D01*
X10896531Y-14576206D02*
X10801293Y-14595253D01*
X10972722Y-14652396D02*
X10991770Y-14661920D01*
X10991770Y-14661920D02*
X11029865Y-14661920D01*
X11029865Y-14661920D02*
X11048912Y-14652396D01*
X11048912Y-14652396D02*
X11058436Y-14633349D01*
X11058436Y-14633349D02*
X11058436Y-14623825D01*
X11058436Y-14623825D02*
X11048912Y-14604777D01*
X11048912Y-14604777D02*
X11029865Y-14595253D01*
X11029865Y-14595253D02*
X11001293Y-14595253D01*
X11001293Y-14595253D02*
X10982246Y-14585730D01*
X10982246Y-14585730D02*
X10972722Y-14566682D01*
X10972722Y-14566682D02*
X10972722Y-14557158D01*
X10972722Y-14557158D02*
X10982246Y-14538110D01*
X10982246Y-14538110D02*
X11001293Y-14528587D01*
X11001293Y-14528587D02*
X11029865Y-14528587D01*
X11029865Y-14528587D02*
X11048912Y-14538110D01*
X11125103Y-14738110D02*
X11134627Y-14728587D01*
X11134627Y-14728587D02*
X11153674Y-14700015D01*
X11153674Y-14700015D02*
X11163198Y-14680968D01*
X11163198Y-14680968D02*
X11172722Y-14652396D01*
X11172722Y-14652396D02*
X11182246Y-14604777D01*
X11182246Y-14604777D02*
X11182246Y-14566682D01*
X11182246Y-14566682D02*
X11172722Y-14519063D01*
X11172722Y-14519063D02*
X11163198Y-14490491D01*
X11163198Y-14490491D02*
X11153674Y-14471444D01*
X11153674Y-14471444D02*
X11134627Y-14442872D01*
X11134627Y-14442872D02*
X11125103Y-14433349D01*
X11487008Y-14738110D02*
X11477484Y-14728587D01*
X11477484Y-14728587D02*
X11458436Y-14700015D01*
X11458436Y-14700015D02*
X11448912Y-14680968D01*
X11448912Y-14680968D02*
X11439389Y-14652396D01*
X11439389Y-14652396D02*
X11429865Y-14604777D01*
X11429865Y-14604777D02*
X11429865Y-14566682D01*
X11429865Y-14566682D02*
X11439389Y-14519063D01*
X11439389Y-14519063D02*
X11448912Y-14490491D01*
X11448912Y-14490491D02*
X11458436Y-14471444D01*
X11458436Y-14471444D02*
X11477484Y-14442872D01*
X11477484Y-14442872D02*
X11487008Y-14433349D01*
X11563198Y-14528587D02*
X11563198Y-14661920D01*
X11563198Y-14547634D02*
X11572722Y-14538110D01*
X11572722Y-14538110D02*
X11591769Y-14528587D01*
X11591769Y-14528587D02*
X11620341Y-14528587D01*
X11620341Y-14528587D02*
X11639389Y-14538110D01*
X11639389Y-14538110D02*
X11648912Y-14557158D01*
X11648912Y-14557158D02*
X11648912Y-14661920D01*
X11772722Y-14661920D02*
X11753674Y-14652396D01*
X11753674Y-14652396D02*
X11744150Y-14642872D01*
X11744150Y-14642872D02*
X11734627Y-14623825D01*
X11734627Y-14623825D02*
X11734627Y-14566682D01*
X11734627Y-14566682D02*
X11744150Y-14547634D01*
X11744150Y-14547634D02*
X11753674Y-14538110D01*
X11753674Y-14538110D02*
X11772722Y-14528587D01*
X11772722Y-14528587D02*
X11801293Y-14528587D01*
X11801293Y-14528587D02*
X11820341Y-14538110D01*
X11820341Y-14538110D02*
X11829865Y-14547634D01*
X11829865Y-14547634D02*
X11839389Y-14566682D01*
X11839389Y-14566682D02*
X11839389Y-14623825D01*
X11839389Y-14623825D02*
X11829865Y-14642872D01*
X11829865Y-14642872D02*
X11820341Y-14652396D01*
X11820341Y-14652396D02*
X11801293Y-14661920D01*
X11801293Y-14661920D02*
X11772722Y-14661920D01*
X11896531Y-14528587D02*
X11972722Y-14528587D01*
X11925103Y-14461920D02*
X11925103Y-14633349D01*
X11925103Y-14633349D02*
X11934627Y-14652396D01*
X11934627Y-14652396D02*
X11953674Y-14661920D01*
X11953674Y-14661920D02*
X11972722Y-14661920D01*
X12191770Y-14528587D02*
X12191770Y-14728587D01*
X12191770Y-14538110D02*
X12210817Y-14528587D01*
X12210817Y-14528587D02*
X12248912Y-14528587D01*
X12248912Y-14528587D02*
X12267960Y-14538110D01*
X12267960Y-14538110D02*
X12277484Y-14547634D01*
X12277484Y-14547634D02*
X12287008Y-14566682D01*
X12287008Y-14566682D02*
X12287008Y-14623825D01*
X12287008Y-14623825D02*
X12277484Y-14642872D01*
X12277484Y-14642872D02*
X12267960Y-14652396D01*
X12267960Y-14652396D02*
X12248912Y-14661920D01*
X12248912Y-14661920D02*
X12210817Y-14661920D01*
X12210817Y-14661920D02*
X12191770Y-14652396D01*
X12401293Y-14661920D02*
X12382246Y-14652396D01*
X12382246Y-14652396D02*
X12372722Y-14633349D01*
X12372722Y-14633349D02*
X12372722Y-14461920D01*
X12563198Y-14661920D02*
X12563198Y-14557158D01*
X12563198Y-14557158D02*
X12553674Y-14538110D01*
X12553674Y-14538110D02*
X12534627Y-14528587D01*
X12534627Y-14528587D02*
X12496531Y-14528587D01*
X12496531Y-14528587D02*
X12477484Y-14538110D01*
X12563198Y-14652396D02*
X12544151Y-14661920D01*
X12544151Y-14661920D02*
X12496531Y-14661920D01*
X12496531Y-14661920D02*
X12477484Y-14652396D01*
X12477484Y-14652396D02*
X12467960Y-14633349D01*
X12467960Y-14633349D02*
X12467960Y-14614301D01*
X12467960Y-14614301D02*
X12477484Y-14595253D01*
X12477484Y-14595253D02*
X12496531Y-14585730D01*
X12496531Y-14585730D02*
X12544151Y-14585730D01*
X12544151Y-14585730D02*
X12563198Y-14576206D01*
X12629865Y-14528587D02*
X12706055Y-14528587D01*
X12658436Y-14461920D02*
X12658436Y-14633349D01*
X12658436Y-14633349D02*
X12667960Y-14652396D01*
X12667960Y-14652396D02*
X12687008Y-14661920D01*
X12687008Y-14661920D02*
X12706055Y-14661920D01*
X12848912Y-14652396D02*
X12829865Y-14661920D01*
X12829865Y-14661920D02*
X12791770Y-14661920D01*
X12791770Y-14661920D02*
X12772722Y-14652396D01*
X12772722Y-14652396D02*
X12763198Y-14633349D01*
X12763198Y-14633349D02*
X12763198Y-14557158D01*
X12763198Y-14557158D02*
X12772722Y-14538110D01*
X12772722Y-14538110D02*
X12791770Y-14528587D01*
X12791770Y-14528587D02*
X12829865Y-14528587D01*
X12829865Y-14528587D02*
X12848912Y-14538110D01*
X12848912Y-14538110D02*
X12858436Y-14557158D01*
X12858436Y-14557158D02*
X12858436Y-14576206D01*
X12858436Y-14576206D02*
X12763198Y-14595253D01*
X13029865Y-14661920D02*
X13029865Y-14461920D01*
X13029865Y-14652396D02*
X13010817Y-14661920D01*
X13010817Y-14661920D02*
X12972722Y-14661920D01*
X12972722Y-14661920D02*
X12953674Y-14652396D01*
X12953674Y-14652396D02*
X12944151Y-14642872D01*
X12944151Y-14642872D02*
X12934627Y-14623825D01*
X12934627Y-14623825D02*
X12934627Y-14566682D01*
X12934627Y-14566682D02*
X12944151Y-14547634D01*
X12944151Y-14547634D02*
X12953674Y-14538110D01*
X12953674Y-14538110D02*
X12972722Y-14528587D01*
X12972722Y-14528587D02*
X13010817Y-14528587D01*
X13010817Y-14528587D02*
X13029865Y-14538110D01*
X13106055Y-14738110D02*
X13115579Y-14728587D01*
X13115579Y-14728587D02*
X13134627Y-14700015D01*
X13134627Y-14700015D02*
X13144151Y-14680968D01*
X13144151Y-14680968D02*
X13153674Y-14652396D01*
X13153674Y-14652396D02*
X13163198Y-14604777D01*
X13163198Y-14604777D02*
X13163198Y-14566682D01*
X13163198Y-14566682D02*
X13153674Y-14519063D01*
X13153674Y-14519063D02*
X13144151Y-14490491D01*
X13144151Y-14490491D02*
X13134627Y-14471444D01*
X13134627Y-14471444D02*
X13115579Y-14442872D01*
X13115579Y-14442872D02*
X13106055Y-14433349D01*
M02*
