G04 #@! TF.GenerationSoftware,KiCad,Pcbnew,7.0.5*
G04 #@! TF.CreationDate,2023-12-30T15:13:16+10:00*
G04 #@! TF.ProjectId,SimonGame,53696d6f-6e47-4616-9d65-2e6b69636164,rev?*
G04 #@! TF.SameCoordinates,Original*
G04 #@! TF.FileFunction,Legend,Bot*
G04 #@! TF.FilePolarity,Positive*
%FSLAX46Y46*%
G04 Gerber Fmt 4.6, Leading zero omitted, Abs format (unit mm)*
G04 Created by KiCad (PCBNEW 7.0.5) date 2023-12-30 15:13:16*
%MOMM*%
%LPD*%
G01*
G04 APERTURE LIST*
G04 Aperture macros list*
%AMHorizOval*
0 Thick line with rounded ends*
0 $1 width*
0 $2 $3 position (X,Y) of the first rounded end (center of the circle)*
0 $4 $5 position (X,Y) of the second rounded end (center of the circle)*
0 Add line between two ends*
20,1,$1,$2,$3,$4,$5,0*
0 Add two circle primitives to create the rounded ends*
1,1,$1,$2,$3*
1,1,$1,$4,$5*%
%AMRotRect*
0 Rectangle, with rotation*
0 The origin of the aperture is its center*
0 $1 length*
0 $2 width*
0 $3 Rotation angle, in degrees counterclockwise*
0 Add horizontal line*
21,1,$1,$2,0,0,$3*%
G04 Aperture macros list end*
%ADD10C,0.500000*%
%ADD11O,1.700000X1.700000*%
%ADD12R,1.700000X1.700000*%
%ADD13HorizOval,1.700000X0.000000X0.000000X0.000000X0.000000X0*%
%ADD14RotRect,1.700000X1.700000X315.000000*%
%ADD15C,1.950000*%
%ADD16R,1.500000X1.500000*%
%ADD17C,1.500000*%
%ADD18HorizOval,1.700000X0.000000X0.000000X0.000000X0.000000X0*%
%ADD19RotRect,1.700000X1.700000X45.000000*%
G04 APERTURE END LIST*
%LPC*%
D10*
X134650000Y-92150000D03*
X133150000Y-92150000D03*
X133150000Y-90650000D03*
X134650000Y-90650000D03*
X133900000Y-92150000D03*
X133900000Y-90650000D03*
X108750000Y-116550000D03*
X110250000Y-116550000D03*
X108750000Y-115800000D03*
X110250000Y-115800000D03*
X108750000Y-115050000D03*
X110250000Y-115050000D03*
D11*
X119860000Y-105300000D03*
D12*
X122400000Y-105300000D03*
D13*
X143557897Y-130892103D03*
X145353949Y-129096051D03*
X147150000Y-127300000D03*
D14*
X148946051Y-125503949D03*
D15*
X151150000Y-102800000D03*
X146483095Y-98133095D03*
D16*
X124900000Y-112800000D03*
D17*
X124900000Y-119300000D03*
X120400000Y-112800000D03*
X120400000Y-119300000D03*
D18*
X124196052Y-130846052D03*
X122400000Y-129050000D03*
X120603949Y-127253949D03*
D19*
X118807898Y-125457898D03*
D17*
X147400000Y-112550000D03*
X147400000Y-119050000D03*
X142900000Y-112550000D03*
D16*
X142900000Y-119050000D03*
D17*
X130650000Y-102300000D03*
X137150000Y-102300000D03*
X130650000Y-106800000D03*
D16*
X137150000Y-106800000D03*
D17*
X137150000Y-129550000D03*
X130650000Y-129550000D03*
X137150000Y-125050000D03*
D16*
X130650000Y-125050000D03*
D10*
X85850000Y-92150000D03*
X84350000Y-92150000D03*
X84350000Y-90650000D03*
X85850000Y-90650000D03*
X85100000Y-92150000D03*
X85100000Y-90650000D03*
D11*
X71060000Y-105300000D03*
D12*
X73600000Y-105300000D03*
D13*
X94757897Y-130892103D03*
X96553949Y-129096051D03*
X98350000Y-127300000D03*
D14*
X100146051Y-125503949D03*
D15*
X102350000Y-102800000D03*
X97683095Y-98133095D03*
D16*
X76100000Y-112800000D03*
D17*
X76100000Y-119300000D03*
X71600000Y-112800000D03*
X71600000Y-119300000D03*
X98600000Y-112550000D03*
X98600000Y-119050000D03*
X94100000Y-112550000D03*
D16*
X94100000Y-119050000D03*
D17*
X81850000Y-102300000D03*
X88350000Y-102300000D03*
X81850000Y-106800000D03*
D16*
X88350000Y-106800000D03*
D18*
X75396052Y-130846052D03*
X73600000Y-129050000D03*
X71803949Y-127253949D03*
D19*
X70007898Y-125457898D03*
D17*
X88350000Y-129550000D03*
X81850000Y-129550000D03*
X88350000Y-125050000D03*
D16*
X81850000Y-125050000D03*
D11*
X119860000Y-56500000D03*
D12*
X122400000Y-56500000D03*
D16*
X124900000Y-64000000D03*
D17*
X124900000Y-70500000D03*
X120400000Y-64000000D03*
X120400000Y-70500000D03*
X147400000Y-63750000D03*
X147400000Y-70250000D03*
X142900000Y-63750000D03*
D16*
X142900000Y-70250000D03*
D17*
X130650000Y-53500000D03*
X137150000Y-53500000D03*
X130650000Y-58000000D03*
D16*
X137150000Y-58000000D03*
D18*
X124196052Y-82046052D03*
X122400000Y-80250000D03*
X120603949Y-78453949D03*
D19*
X118807898Y-76657898D03*
D17*
X137150000Y-80750000D03*
X130650000Y-80750000D03*
X137150000Y-76250000D03*
D16*
X130650000Y-76250000D03*
D15*
X151150000Y-54000000D03*
X146483095Y-49333095D03*
D13*
X143557897Y-82092103D03*
X145353949Y-80296051D03*
X147150000Y-78500000D03*
D14*
X148946051Y-76703949D03*
D10*
X108750000Y-67750000D03*
X110250000Y-67750000D03*
X108750000Y-67000000D03*
X110250000Y-67000000D03*
X108750000Y-66250000D03*
X110250000Y-66250000D03*
D11*
X71060000Y-56500000D03*
D12*
X73600000Y-56500000D03*
D13*
X94757897Y-82092103D03*
X96553949Y-80296051D03*
X98350000Y-78500000D03*
D14*
X100146051Y-76703949D03*
D18*
X75396052Y-82046052D03*
X73600000Y-80250000D03*
X71803949Y-78453949D03*
D19*
X70007898Y-76657898D03*
D15*
X102350000Y-54000000D03*
X97683095Y-49333095D03*
D16*
X76100000Y-64000000D03*
D17*
X76100000Y-70500000D03*
X71600000Y-64000000D03*
X71600000Y-70500000D03*
X81850000Y-53500000D03*
X88350000Y-53500000D03*
X81850000Y-58000000D03*
D16*
X88350000Y-58000000D03*
D17*
X98600000Y-63750000D03*
X98600000Y-70250000D03*
X94100000Y-63750000D03*
D16*
X94100000Y-70250000D03*
D17*
X88350000Y-80750000D03*
X81850000Y-80750000D03*
X88350000Y-76250000D03*
D16*
X81850000Y-76250000D03*
%LPD*%
M02*
