M48
; DRILL file {KiCad 7.0.5} date Sat Dec 30 15:14:20 2023
; FORMAT={-:-/ absolute / metric / decimal}
; #@! TF.CreationDate,2023-12-30T15:14:20+10:00
; #@! TF.GenerationSoftware,Kicad,Pcbnew,7.0.5
; #@! TF.FileFunction,NonPlated,1,2,NPTH
FMAT,2
METRIC
; #@! TA.AperFunction,NonPlated,NPTH,ComponentDrill
T1C0.500
%
G90
G05
T1
X84.35Y-90.65
X84.35Y-92.15
X85.1Y-90.65
X85.1Y-92.15
X85.85Y-90.65
X85.85Y-92.15
X108.75Y-66.25
X108.75Y-67.0
X108.75Y-67.75
X108.75Y-115.05
X108.75Y-115.8
X108.75Y-116.55
X110.25Y-66.25
X110.25Y-67.0
X110.25Y-67.75
X110.25Y-115.05
X110.25Y-115.8
X110.25Y-116.55
X133.15Y-90.65
X133.15Y-92.15
X133.9Y-90.65
X133.9Y-92.15
X134.65Y-90.65
X134.65Y-92.15
T0
M30
