G04 #@! TF.GenerationSoftware,KiCad,Pcbnew,7.0.5*
G04 #@! TF.CreationDate,2023-12-30T15:13:16+10:00*
G04 #@! TF.ProjectId,SimonGame,53696d6f-6e47-4616-9d65-2e6b69636164,rev?*
G04 #@! TF.SameCoordinates,Original*
G04 #@! TF.FileFunction,Profile,NP*
%FSLAX46Y46*%
G04 Gerber Fmt 4.6, Leading zero omitted, Abs format (unit mm)*
G04 Created by KiCad (PCBNEW 7.0.5) date 2023-12-30 15:13:16*
%MOMM*%
%LPD*%
G01*
G04 APERTURE LIST*
G04 #@! TA.AperFunction,Profile*
%ADD10C,0.038100*%
G04 #@! TD*
G04 APERTURE END LIST*
D10*
X110500003Y-117800000D02*
G75*
G03*
X135900000Y-92400003I23399997J2000000D01*
G01*
X83100000Y-92400003D02*
G75*
G03*
X108499997Y-117800000I2000000J-23399997D01*
G01*
X108499997Y-65000000D02*
G75*
G03*
X83100000Y-90399997I-23399997J-2000000D01*
G01*
X135900000Y-90399997D02*
G75*
G03*
X110500003Y-65000000I-2000000J23399997D01*
G01*
X110500001Y-69000000D02*
G75*
G03*
X108499999Y-69000000I-1000001J0D01*
G01*
X108499999Y-65000000D02*
G75*
G03*
X110500001Y-65000000I1000001J0D01*
G01*
X135900000Y-90399999D02*
G75*
G03*
X135900000Y-92400001I0J-1000001D01*
G01*
X131900000Y-92400001D02*
G75*
G03*
X131900000Y-90399999I0J1000001D01*
G01*
X108499999Y-113800000D02*
G75*
G03*
X110500001Y-113800000I1000001J0D01*
G01*
X110500001Y-117800000D02*
G75*
G03*
X108499999Y-117800000I-1000001J0D01*
G01*
X87100000Y-90399999D02*
G75*
G03*
X87100000Y-92400001I0J-1000001D01*
G01*
X83100000Y-92400001D02*
G75*
G03*
X83100000Y-90399999I0J1000001D01*
G01*
X136400000Y-120800000D02*
G75*
G03*
X136400000Y-120800000I-2500000J0D01*
G01*
X131900000Y-92400002D02*
G75*
G03*
X110500002Y-113800000I2000000J-23399998D01*
G01*
X87600000Y-120800000D02*
G75*
G03*
X87600000Y-120800000I-2500000J0D01*
G01*
X108499998Y-113800000D02*
G75*
G03*
X87100000Y-92400002I-23399998J-2000000D01*
G01*
X136400000Y-72000000D02*
G75*
G03*
X136400000Y-72000000I-2500000J0D01*
G01*
X110500002Y-69000000D02*
G75*
G03*
X131900000Y-90399998I23399998J2000000D01*
G01*
X87100000Y-90399998D02*
G75*
G03*
X108499998Y-69000000I-2000000J23399998D01*
G01*
X87600000Y-72000000D02*
G75*
G03*
X87600000Y-72000000I-2500000J0D01*
G01*
M02*
