M48
; DRILL file {KiCad 7.0.5} date Sat Dec 30 15:14:20 2023
; FORMAT={-:-/ absolute / metric / decimal}
; #@! TF.CreationDate,2023-12-30T15:14:20+10:00
; #@! TF.GenerationSoftware,Kicad,Pcbnew,7.0.5
; #@! TF.FileFunction,Plated,1,2,PTH
FMAT,2
METRIC
; #@! TA.AperFunction,Plated,PTH,ViaDrill
T1C0.300
; #@! TA.AperFunction,Plated,PTH,ComponentDrill
T2C1.000
; #@! TA.AperFunction,Plated,PTH,ComponentDrill
T3C1.300
%
G90
G05
T1
X63.1Y-67.0
X63.1Y-115.8
X64.85Y-60.0
X64.85Y-76.0
X64.85Y-108.8
X64.85Y-124.8
X69.4Y-62.8
X69.4Y-111.6
X69.6Y-69.0
X69.6Y-117.8
X69.8Y-50.8
X69.8Y-99.6
X69.85Y-83.25
X69.85Y-132.05
X72.6Y-75.25
X72.6Y-124.05
X73.85Y-67.25
X73.85Y-116.05
X74.6Y-87.0
X74.6Y-135.8
X77.2Y-46.6
X77.2Y-95.4
X78.35Y-73.5
X78.35Y-122.3
X78.6Y-63.8
X78.6Y-70.5
X78.6Y-112.6
X78.6Y-119.3
X78.85Y-66.75
X78.85Y-83.5
X78.85Y-115.55
X78.85Y-132.3
X79.0Y-51.6
X79.0Y-100.4
X79.1Y-60.75
X79.1Y-109.55
X79.8Y-88.4
X79.8Y-137.2
X80.35Y-64.4
X80.35Y-85.25
X80.35Y-113.2
X80.35Y-134.05
X81.6Y-74.0
X81.6Y-122.8
X83.4Y-65.826
X83.4Y-114.626
X84.4Y-64.0
X84.4Y-112.8
X84.85Y-45.25
X84.85Y-94.05
X85.35Y-55.5
X85.35Y-104.3
X86.1Y-68.5
X86.1Y-78.5
X86.1Y-117.3
X86.1Y-127.3
X86.35Y-64.0
X86.35Y-112.8
X87.1Y-82.5
X87.1Y-131.3
X89.1Y-86.25
X89.1Y-135.05
X89.85Y-46.25
X89.85Y-95.05
X90.2Y-75.4
X90.2Y-124.2
X90.6Y-65.8
X90.6Y-114.6
X90.85Y-51.25
X90.85Y-100.05
X91.1Y-68.75
X91.1Y-117.55
X91.6Y-64.5
X91.6Y-113.3
X92.35Y-57.75
X92.35Y-106.55
X92.6Y-73.0
X92.6Y-121.8
X93.35Y-58.5
X93.35Y-107.3
X93.6Y-60.75
X93.6Y-109.55
X93.85Y-79.25
X93.85Y-128.05
X94.6Y-87.25
X94.6Y-136.05
X94.85Y-47.5
X94.85Y-96.3
X96.6Y-65.25
X96.6Y-114.05
X98.6Y-74.25
X98.6Y-123.05
X101.1Y-82.75
X101.1Y-131.55
X101.6Y-63.25
X101.6Y-112.05
X102.1Y-73.25
X102.1Y-122.05
X103.85Y-56.5
X103.85Y-105.3
X104.35Y-67.25
X104.35Y-116.05
X106.85Y-72.0
X106.85Y-120.8
X111.9Y-67.0
X111.9Y-115.8
X113.65Y-60.0
X113.65Y-76.0
X113.65Y-108.8
X113.65Y-124.8
X118.2Y-62.8
X118.2Y-111.6
X118.4Y-69.0
X118.4Y-117.8
X118.6Y-50.8
X118.6Y-99.6
X118.65Y-83.25
X118.65Y-132.05
X121.4Y-75.25
X121.4Y-124.05
X122.65Y-67.25
X122.65Y-116.05
X123.4Y-87.0
X123.4Y-135.8
X126.0Y-46.6
X126.0Y-95.4
X127.15Y-73.5
X127.15Y-122.3
X127.4Y-63.8
X127.4Y-70.5
X127.4Y-112.6
X127.4Y-119.3
X127.65Y-66.75
X127.65Y-83.5
X127.65Y-115.55
X127.65Y-132.3
X127.8Y-51.6
X127.8Y-100.4
X127.9Y-60.75
X127.9Y-109.55
X128.6Y-88.4
X128.6Y-137.2
X129.15Y-64.4
X129.15Y-85.25
X129.15Y-113.2
X129.15Y-134.05
X130.4Y-74.0
X130.4Y-122.8
X132.2Y-65.826
X132.2Y-114.626
X133.2Y-64.0
X133.2Y-112.8
X133.65Y-45.25
X133.65Y-94.05
X134.15Y-55.5
X134.15Y-104.3
X134.9Y-68.5
X134.9Y-78.5
X134.9Y-117.3
X134.9Y-127.3
X135.15Y-64.0
X135.15Y-112.8
X135.9Y-82.5
X135.9Y-131.3
X137.9Y-86.25
X137.9Y-135.05
X138.65Y-46.25
X138.65Y-95.05
X139.0Y-75.4
X139.0Y-124.2
X139.4Y-65.8
X139.4Y-114.6
X139.65Y-51.25
X139.65Y-100.05
X139.9Y-68.75
X139.9Y-117.55
X140.4Y-64.5
X140.4Y-113.3
X141.15Y-57.75
X141.15Y-106.55
X141.4Y-73.0
X141.4Y-121.8
X142.15Y-58.5
X142.15Y-107.3
X142.4Y-60.75
X142.4Y-109.55
X142.65Y-79.25
X142.65Y-128.05
X143.4Y-87.25
X143.4Y-136.05
X143.65Y-47.5
X143.65Y-96.3
X145.4Y-65.25
X145.4Y-114.05
X147.4Y-74.25
X147.4Y-123.05
X149.9Y-82.75
X149.9Y-131.55
X150.4Y-63.25
X150.4Y-112.05
X150.9Y-73.25
X150.9Y-122.05
X152.65Y-56.5
X152.65Y-105.3
X153.15Y-67.25
X153.15Y-116.05
X155.65Y-72.0
X155.65Y-120.8
T2
X70.008Y-76.658
X70.008Y-125.458
X71.06Y-56.5
X71.06Y-105.3
X71.6Y-64.0
X71.6Y-70.5
X71.6Y-112.8
X71.6Y-119.3
X71.804Y-78.454
X71.804Y-127.254
X73.6Y-56.5
X73.6Y-80.25
X73.6Y-105.3
X73.6Y-129.05
X75.396Y-82.046
X75.396Y-130.846
X76.1Y-64.0
X76.1Y-70.5
X76.1Y-112.8
X76.1Y-119.3
X81.85Y-53.5
X81.85Y-58.0
X81.85Y-76.25
X81.85Y-80.75
X81.85Y-102.3
X81.85Y-106.8
X81.85Y-125.05
X81.85Y-129.55
X88.35Y-53.5
X88.35Y-58.0
X88.35Y-76.25
X88.35Y-80.75
X88.35Y-102.3
X88.35Y-106.8
X88.35Y-125.05
X88.35Y-129.55
X94.1Y-63.75
X94.1Y-70.25
X94.1Y-112.55
X94.1Y-119.05
X94.758Y-82.092
X94.758Y-130.892
X96.554Y-80.296
X96.554Y-129.096
X98.35Y-78.5
X98.35Y-127.3
X98.6Y-63.75
X98.6Y-70.25
X98.6Y-112.55
X98.6Y-119.05
X100.146Y-76.704
X100.146Y-125.504
X118.808Y-76.658
X118.808Y-125.458
X119.86Y-56.5
X119.86Y-105.3
X120.4Y-64.0
X120.4Y-70.5
X120.4Y-112.8
X120.4Y-119.3
X120.604Y-78.454
X120.604Y-127.254
X122.4Y-56.5
X122.4Y-80.25
X122.4Y-105.3
X122.4Y-129.05
X124.196Y-82.046
X124.196Y-130.846
X124.9Y-64.0
X124.9Y-70.5
X124.9Y-112.8
X124.9Y-119.3
X130.65Y-53.5
X130.65Y-58.0
X130.65Y-76.25
X130.65Y-80.75
X130.65Y-102.3
X130.65Y-106.8
X130.65Y-125.05
X130.65Y-129.55
X137.15Y-53.5
X137.15Y-58.0
X137.15Y-76.25
X137.15Y-80.75
X137.15Y-102.3
X137.15Y-106.8
X137.15Y-125.05
X137.15Y-129.55
X142.9Y-63.75
X142.9Y-70.25
X142.9Y-112.55
X142.9Y-119.05
X143.558Y-82.092
X143.558Y-130.892
X145.354Y-80.296
X145.354Y-129.096
X147.15Y-78.5
X147.15Y-127.3
X147.4Y-63.75
X147.4Y-70.25
X147.4Y-112.55
X147.4Y-119.05
X148.946Y-76.704
X148.946Y-125.504
T3
X97.683Y-49.333
X97.683Y-98.133
X102.35Y-54.0
X102.35Y-102.8
X146.483Y-49.333
X146.483Y-98.133
X151.15Y-54.0
X151.15Y-102.8
T0
M30
