G04 #@! TF.GenerationSoftware,KiCad,Pcbnew,7.0.5*
G04 #@! TF.CreationDate,2023-12-30T15:13:16+10:00*
G04 #@! TF.ProjectId,SimonGame,53696d6f-6e47-4616-9d65-2e6b69636164,rev?*
G04 #@! TF.SameCoordinates,Original*
G04 #@! TF.FileFunction,Soldermask,Bot*
G04 #@! TF.FilePolarity,Negative*
%FSLAX46Y46*%
G04 Gerber Fmt 4.6, Leading zero omitted, Abs format (unit mm)*
G04 Created by KiCad (PCBNEW 7.0.5) date 2023-12-30 15:13:16*
%MOMM*%
%LPD*%
G01*
G04 APERTURE LIST*
G04 APERTURE END LIST*
G36*
X95020561Y-130083705D02*
G01*
X95182897Y-130155981D01*
X95326658Y-130260430D01*
X95445561Y-130392486D01*
X95534411Y-130546377D01*
X95589322Y-130715378D01*
X95607897Y-130892103D01*
X95589322Y-131068828D01*
X95534411Y-131237829D01*
X95445561Y-131391720D01*
X95326658Y-131523776D01*
X95182897Y-131628225D01*
X95020561Y-131700501D01*
X94846746Y-131737447D01*
X94669048Y-131737447D01*
X94495233Y-131700501D01*
X94332897Y-131628225D01*
X94189136Y-131523776D01*
X94070233Y-131391720D01*
X93981383Y-131237829D01*
X93926472Y-131068828D01*
X93907897Y-130892103D01*
X93926472Y-130715378D01*
X93981383Y-130546377D01*
X94070233Y-130392486D01*
X94189136Y-130260430D01*
X94332897Y-130155981D01*
X94495233Y-130083705D01*
X94669048Y-130046759D01*
X94846746Y-130046759D01*
X95020561Y-130083705D01*
G37*
G36*
X143820561Y-130083705D02*
G01*
X143982897Y-130155981D01*
X144126658Y-130260430D01*
X144245561Y-130392486D01*
X144334411Y-130546377D01*
X144389322Y-130715378D01*
X144407897Y-130892103D01*
X144389322Y-131068828D01*
X144334411Y-131237829D01*
X144245561Y-131391720D01*
X144126658Y-131523776D01*
X143982897Y-131628225D01*
X143820561Y-131700501D01*
X143646746Y-131737447D01*
X143469048Y-131737447D01*
X143295233Y-131700501D01*
X143132897Y-131628225D01*
X142989136Y-131523776D01*
X142870233Y-131391720D01*
X142781383Y-131237829D01*
X142726472Y-131068828D01*
X142707897Y-130892103D01*
X142726472Y-130715378D01*
X142781383Y-130546377D01*
X142870233Y-130392486D01*
X142989136Y-130260430D01*
X143132897Y-130155981D01*
X143295233Y-130083705D01*
X143469048Y-130046759D01*
X143646746Y-130046759D01*
X143820561Y-130083705D01*
G37*
G36*
X75658716Y-130037654D02*
G01*
X75821052Y-130109930D01*
X75964813Y-130214379D01*
X76083716Y-130346435D01*
X76172566Y-130500326D01*
X76227477Y-130669327D01*
X76246052Y-130846052D01*
X76227477Y-131022777D01*
X76172566Y-131191778D01*
X76083716Y-131345669D01*
X75964813Y-131477725D01*
X75821052Y-131582174D01*
X75658716Y-131654450D01*
X75484901Y-131691396D01*
X75307203Y-131691396D01*
X75133388Y-131654450D01*
X74971052Y-131582174D01*
X74827291Y-131477725D01*
X74708388Y-131345669D01*
X74619538Y-131191778D01*
X74564627Y-131022777D01*
X74546052Y-130846052D01*
X74564627Y-130669327D01*
X74619538Y-130500326D01*
X74708388Y-130346435D01*
X74827291Y-130214379D01*
X74971052Y-130109930D01*
X75133388Y-130037654D01*
X75307203Y-130000708D01*
X75484901Y-130000708D01*
X75658716Y-130037654D01*
G37*
G36*
X124458716Y-130037654D02*
G01*
X124621052Y-130109930D01*
X124764813Y-130214379D01*
X124883716Y-130346435D01*
X124972566Y-130500326D01*
X125027477Y-130669327D01*
X125046052Y-130846052D01*
X125027477Y-131022777D01*
X124972566Y-131191778D01*
X124883716Y-131345669D01*
X124764813Y-131477725D01*
X124621052Y-131582174D01*
X124458716Y-131654450D01*
X124284901Y-131691396D01*
X124107203Y-131691396D01*
X123933388Y-131654450D01*
X123771052Y-131582174D01*
X123627291Y-131477725D01*
X123508388Y-131345669D01*
X123419538Y-131191778D01*
X123364627Y-131022777D01*
X123346052Y-130846052D01*
X123364627Y-130669327D01*
X123419538Y-130500326D01*
X123508388Y-130346435D01*
X123627291Y-130214379D01*
X123771052Y-130109930D01*
X123933388Y-130037654D01*
X124107203Y-130000708D01*
X124284901Y-130000708D01*
X124458716Y-130037654D01*
G37*
G36*
X82016891Y-128818804D02*
G01*
X82175413Y-128874273D01*
X82317617Y-128963626D01*
X82436374Y-129082383D01*
X82525727Y-129224587D01*
X82581196Y-129383109D01*
X82600000Y-129550000D01*
X82581196Y-129716891D01*
X82525727Y-129875413D01*
X82436374Y-130017617D01*
X82317617Y-130136374D01*
X82175413Y-130225727D01*
X82016891Y-130281196D01*
X81850000Y-130300000D01*
X81683109Y-130281196D01*
X81524587Y-130225727D01*
X81382383Y-130136374D01*
X81263626Y-130017617D01*
X81174273Y-129875413D01*
X81118804Y-129716891D01*
X81100000Y-129550000D01*
X81118804Y-129383109D01*
X81174273Y-129224587D01*
X81263626Y-129082383D01*
X81382383Y-128963626D01*
X81524587Y-128874273D01*
X81683109Y-128818804D01*
X81850000Y-128800000D01*
X82016891Y-128818804D01*
G37*
G36*
X88516891Y-128818804D02*
G01*
X88675413Y-128874273D01*
X88817617Y-128963626D01*
X88936374Y-129082383D01*
X89025727Y-129224587D01*
X89081196Y-129383109D01*
X89100000Y-129550000D01*
X89081196Y-129716891D01*
X89025727Y-129875413D01*
X88936374Y-130017617D01*
X88817617Y-130136374D01*
X88675413Y-130225727D01*
X88516891Y-130281196D01*
X88350000Y-130300000D01*
X88183109Y-130281196D01*
X88024587Y-130225727D01*
X87882383Y-130136374D01*
X87763626Y-130017617D01*
X87674273Y-129875413D01*
X87618804Y-129716891D01*
X87600000Y-129550000D01*
X87618804Y-129383109D01*
X87674273Y-129224587D01*
X87763626Y-129082383D01*
X87882383Y-128963626D01*
X88024587Y-128874273D01*
X88183109Y-128818804D01*
X88350000Y-128800000D01*
X88516891Y-128818804D01*
G37*
G36*
X130816891Y-128818804D02*
G01*
X130975413Y-128874273D01*
X131117617Y-128963626D01*
X131236374Y-129082383D01*
X131325727Y-129224587D01*
X131381196Y-129383109D01*
X131400000Y-129550000D01*
X131381196Y-129716891D01*
X131325727Y-129875413D01*
X131236374Y-130017617D01*
X131117617Y-130136374D01*
X130975413Y-130225727D01*
X130816891Y-130281196D01*
X130650000Y-130300000D01*
X130483109Y-130281196D01*
X130324587Y-130225727D01*
X130182383Y-130136374D01*
X130063626Y-130017617D01*
X129974273Y-129875413D01*
X129918804Y-129716891D01*
X129900000Y-129550000D01*
X129918804Y-129383109D01*
X129974273Y-129224587D01*
X130063626Y-129082383D01*
X130182383Y-128963626D01*
X130324587Y-128874273D01*
X130483109Y-128818804D01*
X130650000Y-128800000D01*
X130816891Y-128818804D01*
G37*
G36*
X137316891Y-128818804D02*
G01*
X137475413Y-128874273D01*
X137617617Y-128963626D01*
X137736374Y-129082383D01*
X137825727Y-129224587D01*
X137881196Y-129383109D01*
X137900000Y-129550000D01*
X137881196Y-129716891D01*
X137825727Y-129875413D01*
X137736374Y-130017617D01*
X137617617Y-130136374D01*
X137475413Y-130225727D01*
X137316891Y-130281196D01*
X137150000Y-130300000D01*
X136983109Y-130281196D01*
X136824587Y-130225727D01*
X136682383Y-130136374D01*
X136563626Y-130017617D01*
X136474273Y-129875413D01*
X136418804Y-129716891D01*
X136400000Y-129550000D01*
X136418804Y-129383109D01*
X136474273Y-129224587D01*
X136563626Y-129082383D01*
X136682383Y-128963626D01*
X136824587Y-128874273D01*
X136983109Y-128818804D01*
X137150000Y-128800000D01*
X137316891Y-128818804D01*
G37*
G36*
X96816613Y-128287653D02*
G01*
X96978949Y-128359929D01*
X97122710Y-128464378D01*
X97241613Y-128596434D01*
X97330463Y-128750325D01*
X97385374Y-128919326D01*
X97403949Y-129096051D01*
X97385374Y-129272776D01*
X97330463Y-129441777D01*
X97241613Y-129595668D01*
X97122710Y-129727724D01*
X96978949Y-129832173D01*
X96816613Y-129904449D01*
X96642798Y-129941395D01*
X96465100Y-129941395D01*
X96291285Y-129904449D01*
X96128949Y-129832173D01*
X95985188Y-129727724D01*
X95866285Y-129595668D01*
X95777435Y-129441777D01*
X95722524Y-129272776D01*
X95703949Y-129096051D01*
X95722524Y-128919326D01*
X95777435Y-128750325D01*
X95866285Y-128596434D01*
X95985188Y-128464378D01*
X96128949Y-128359929D01*
X96291285Y-128287653D01*
X96465100Y-128250707D01*
X96642798Y-128250707D01*
X96816613Y-128287653D01*
G37*
G36*
X145616613Y-128287653D02*
G01*
X145778949Y-128359929D01*
X145922710Y-128464378D01*
X146041613Y-128596434D01*
X146130463Y-128750325D01*
X146185374Y-128919326D01*
X146203949Y-129096051D01*
X146185374Y-129272776D01*
X146130463Y-129441777D01*
X146041613Y-129595668D01*
X145922710Y-129727724D01*
X145778949Y-129832173D01*
X145616613Y-129904449D01*
X145442798Y-129941395D01*
X145265100Y-129941395D01*
X145091285Y-129904449D01*
X144928949Y-129832173D01*
X144785188Y-129727724D01*
X144666285Y-129595668D01*
X144577435Y-129441777D01*
X144522524Y-129272776D01*
X144503949Y-129096051D01*
X144522524Y-128919326D01*
X144577435Y-128750325D01*
X144666285Y-128596434D01*
X144785188Y-128464378D01*
X144928949Y-128359929D01*
X145091285Y-128287653D01*
X145265100Y-128250707D01*
X145442798Y-128250707D01*
X145616613Y-128287653D01*
G37*
G36*
X73862664Y-128241602D02*
G01*
X74025000Y-128313878D01*
X74168761Y-128418327D01*
X74287664Y-128550383D01*
X74376514Y-128704274D01*
X74431425Y-128873275D01*
X74450000Y-129050000D01*
X74431425Y-129226725D01*
X74376514Y-129395726D01*
X74287664Y-129549617D01*
X74168761Y-129681673D01*
X74025000Y-129786122D01*
X73862664Y-129858398D01*
X73688849Y-129895344D01*
X73511151Y-129895344D01*
X73337336Y-129858398D01*
X73175000Y-129786122D01*
X73031239Y-129681673D01*
X72912336Y-129549617D01*
X72823486Y-129395726D01*
X72768575Y-129226725D01*
X72750000Y-129050000D01*
X72768575Y-128873275D01*
X72823486Y-128704274D01*
X72912336Y-128550383D01*
X73031239Y-128418327D01*
X73175000Y-128313878D01*
X73337336Y-128241602D01*
X73511151Y-128204656D01*
X73688849Y-128204656D01*
X73862664Y-128241602D01*
G37*
G36*
X122662664Y-128241602D02*
G01*
X122825000Y-128313878D01*
X122968761Y-128418327D01*
X123087664Y-128550383D01*
X123176514Y-128704274D01*
X123231425Y-128873275D01*
X123250000Y-129050000D01*
X123231425Y-129226725D01*
X123176514Y-129395726D01*
X123087664Y-129549617D01*
X122968761Y-129681673D01*
X122825000Y-129786122D01*
X122662664Y-129858398D01*
X122488849Y-129895344D01*
X122311151Y-129895344D01*
X122137336Y-129858398D01*
X121975000Y-129786122D01*
X121831239Y-129681673D01*
X121712336Y-129549617D01*
X121623486Y-129395726D01*
X121568575Y-129226725D01*
X121550000Y-129050000D01*
X121568575Y-128873275D01*
X121623486Y-128704274D01*
X121712336Y-128550383D01*
X121831239Y-128418327D01*
X121975000Y-128313878D01*
X122137336Y-128241602D01*
X122311151Y-128204656D01*
X122488849Y-128204656D01*
X122662664Y-128241602D01*
G37*
G36*
X98612664Y-126491602D02*
G01*
X98775000Y-126563878D01*
X98918761Y-126668327D01*
X99037664Y-126800383D01*
X99126514Y-126954274D01*
X99181425Y-127123275D01*
X99200000Y-127300000D01*
X99181425Y-127476725D01*
X99126514Y-127645726D01*
X99037664Y-127799617D01*
X98918761Y-127931673D01*
X98775000Y-128036122D01*
X98612664Y-128108398D01*
X98438849Y-128145344D01*
X98261151Y-128145344D01*
X98087336Y-128108398D01*
X97925000Y-128036122D01*
X97781239Y-127931673D01*
X97662336Y-127799617D01*
X97573486Y-127645726D01*
X97518575Y-127476725D01*
X97500000Y-127300000D01*
X97518575Y-127123275D01*
X97573486Y-126954274D01*
X97662336Y-126800383D01*
X97781239Y-126668327D01*
X97925000Y-126563878D01*
X98087336Y-126491602D01*
X98261151Y-126454656D01*
X98438849Y-126454656D01*
X98612664Y-126491602D01*
G37*
G36*
X147412664Y-126491602D02*
G01*
X147575000Y-126563878D01*
X147718761Y-126668327D01*
X147837664Y-126800383D01*
X147926514Y-126954274D01*
X147981425Y-127123275D01*
X148000000Y-127300000D01*
X147981425Y-127476725D01*
X147926514Y-127645726D01*
X147837664Y-127799617D01*
X147718761Y-127931673D01*
X147575000Y-128036122D01*
X147412664Y-128108398D01*
X147238849Y-128145344D01*
X147061151Y-128145344D01*
X146887336Y-128108398D01*
X146725000Y-128036122D01*
X146581239Y-127931673D01*
X146462336Y-127799617D01*
X146373486Y-127645726D01*
X146318575Y-127476725D01*
X146300000Y-127300000D01*
X146318575Y-127123275D01*
X146373486Y-126954274D01*
X146462336Y-126800383D01*
X146581239Y-126668327D01*
X146725000Y-126563878D01*
X146887336Y-126491602D01*
X147061151Y-126454656D01*
X147238849Y-126454656D01*
X147412664Y-126491602D01*
G37*
G36*
X72066613Y-126445551D02*
G01*
X72228949Y-126517827D01*
X72372710Y-126622276D01*
X72491613Y-126754332D01*
X72580463Y-126908223D01*
X72635374Y-127077224D01*
X72653949Y-127253949D01*
X72635374Y-127430674D01*
X72580463Y-127599675D01*
X72491613Y-127753566D01*
X72372710Y-127885622D01*
X72228949Y-127990071D01*
X72066613Y-128062347D01*
X71892798Y-128099293D01*
X71715100Y-128099293D01*
X71541285Y-128062347D01*
X71378949Y-127990071D01*
X71235188Y-127885622D01*
X71116285Y-127753566D01*
X71027435Y-127599675D01*
X70972524Y-127430674D01*
X70953949Y-127253949D01*
X70972524Y-127077224D01*
X71027435Y-126908223D01*
X71116285Y-126754332D01*
X71235188Y-126622276D01*
X71378949Y-126517827D01*
X71541285Y-126445551D01*
X71715100Y-126408605D01*
X71892798Y-126408605D01*
X72066613Y-126445551D01*
G37*
G36*
X120866613Y-126445551D02*
G01*
X121028949Y-126517827D01*
X121172710Y-126622276D01*
X121291613Y-126754332D01*
X121380463Y-126908223D01*
X121435374Y-127077224D01*
X121453949Y-127253949D01*
X121435374Y-127430674D01*
X121380463Y-127599675D01*
X121291613Y-127753566D01*
X121172710Y-127885622D01*
X121028949Y-127990071D01*
X120866613Y-128062347D01*
X120692798Y-128099293D01*
X120515100Y-128099293D01*
X120341285Y-128062347D01*
X120178949Y-127990071D01*
X120035188Y-127885622D01*
X119916285Y-127753566D01*
X119827435Y-127599675D01*
X119772524Y-127430674D01*
X119753949Y-127253949D01*
X119772524Y-127077224D01*
X119827435Y-126908223D01*
X119916285Y-126754332D01*
X120035188Y-126622276D01*
X120178949Y-126517827D01*
X120341285Y-126445551D01*
X120515100Y-126408605D01*
X120692798Y-126408605D01*
X120866613Y-126445551D01*
G37*
G36*
X101348133Y-125503949D02*
G01*
X100146051Y-126706031D01*
X98943969Y-125503949D01*
X100146051Y-124301867D01*
X101348133Y-125503949D01*
G37*
G36*
X150148133Y-125503949D02*
G01*
X148946051Y-126706031D01*
X147743969Y-125503949D01*
X148946051Y-124301867D01*
X150148133Y-125503949D01*
G37*
G36*
X71209980Y-125457898D02*
G01*
X70007898Y-126659980D01*
X68805816Y-125457898D01*
X70007898Y-124255816D01*
X71209980Y-125457898D01*
G37*
G36*
X120009980Y-125457898D02*
G01*
X118807898Y-126659980D01*
X117605816Y-125457898D01*
X118807898Y-124255816D01*
X120009980Y-125457898D01*
G37*
G36*
X82600000Y-125800000D02*
G01*
X81100000Y-125800000D01*
X81100000Y-124300000D01*
X82600000Y-124300000D01*
X82600000Y-125800000D01*
G37*
G36*
X88516891Y-124318804D02*
G01*
X88675413Y-124374273D01*
X88817617Y-124463626D01*
X88936374Y-124582383D01*
X89025727Y-124724587D01*
X89081196Y-124883109D01*
X89100000Y-125050000D01*
X89081196Y-125216891D01*
X89025727Y-125375413D01*
X88936374Y-125517617D01*
X88817617Y-125636374D01*
X88675413Y-125725727D01*
X88516891Y-125781196D01*
X88350000Y-125800000D01*
X88183109Y-125781196D01*
X88024587Y-125725727D01*
X87882383Y-125636374D01*
X87763626Y-125517617D01*
X87674273Y-125375413D01*
X87618804Y-125216891D01*
X87600000Y-125050000D01*
X87618804Y-124883109D01*
X87674273Y-124724587D01*
X87763626Y-124582383D01*
X87882383Y-124463626D01*
X88024587Y-124374273D01*
X88183109Y-124318804D01*
X88350000Y-124300000D01*
X88516891Y-124318804D01*
G37*
G36*
X131400000Y-125800000D02*
G01*
X129900000Y-125800000D01*
X129900000Y-124300000D01*
X131400000Y-124300000D01*
X131400000Y-125800000D01*
G37*
G36*
X137316891Y-124318804D02*
G01*
X137475413Y-124374273D01*
X137617617Y-124463626D01*
X137736374Y-124582383D01*
X137825727Y-124724587D01*
X137881196Y-124883109D01*
X137900000Y-125050000D01*
X137881196Y-125216891D01*
X137825727Y-125375413D01*
X137736374Y-125517617D01*
X137617617Y-125636374D01*
X137475413Y-125725727D01*
X137316891Y-125781196D01*
X137150000Y-125800000D01*
X136983109Y-125781196D01*
X136824587Y-125725727D01*
X136682383Y-125636374D01*
X136563626Y-125517617D01*
X136474273Y-125375413D01*
X136418804Y-125216891D01*
X136400000Y-125050000D01*
X136418804Y-124883109D01*
X136474273Y-124724587D01*
X136563626Y-124582383D01*
X136682383Y-124463626D01*
X136824587Y-124374273D01*
X136983109Y-124318804D01*
X137150000Y-124300000D01*
X137316891Y-124318804D01*
G37*
G36*
X71766891Y-118568804D02*
G01*
X71925413Y-118624273D01*
X72067617Y-118713626D01*
X72186374Y-118832383D01*
X72275727Y-118974587D01*
X72331196Y-119133109D01*
X72350000Y-119300000D01*
X72331196Y-119466891D01*
X72275727Y-119625413D01*
X72186374Y-119767617D01*
X72067617Y-119886374D01*
X71925413Y-119975727D01*
X71766891Y-120031196D01*
X71600000Y-120050000D01*
X71433109Y-120031196D01*
X71274587Y-119975727D01*
X71132383Y-119886374D01*
X71013626Y-119767617D01*
X70924273Y-119625413D01*
X70868804Y-119466891D01*
X70850000Y-119300000D01*
X70868804Y-119133109D01*
X70924273Y-118974587D01*
X71013626Y-118832383D01*
X71132383Y-118713626D01*
X71274587Y-118624273D01*
X71433109Y-118568804D01*
X71600000Y-118550000D01*
X71766891Y-118568804D01*
G37*
G36*
X76266891Y-118568804D02*
G01*
X76425413Y-118624273D01*
X76567617Y-118713626D01*
X76686374Y-118832383D01*
X76775727Y-118974587D01*
X76831196Y-119133109D01*
X76850000Y-119300000D01*
X76831196Y-119466891D01*
X76775727Y-119625413D01*
X76686374Y-119767617D01*
X76567617Y-119886374D01*
X76425413Y-119975727D01*
X76266891Y-120031196D01*
X76100000Y-120050000D01*
X75933109Y-120031196D01*
X75774587Y-119975727D01*
X75632383Y-119886374D01*
X75513626Y-119767617D01*
X75424273Y-119625413D01*
X75368804Y-119466891D01*
X75350000Y-119300000D01*
X75368804Y-119133109D01*
X75424273Y-118974587D01*
X75513626Y-118832383D01*
X75632383Y-118713626D01*
X75774587Y-118624273D01*
X75933109Y-118568804D01*
X76100000Y-118550000D01*
X76266891Y-118568804D01*
G37*
G36*
X120566891Y-118568804D02*
G01*
X120725413Y-118624273D01*
X120867617Y-118713626D01*
X120986374Y-118832383D01*
X121075727Y-118974587D01*
X121131196Y-119133109D01*
X121150000Y-119300000D01*
X121131196Y-119466891D01*
X121075727Y-119625413D01*
X120986374Y-119767617D01*
X120867617Y-119886374D01*
X120725413Y-119975727D01*
X120566891Y-120031196D01*
X120400000Y-120050000D01*
X120233109Y-120031196D01*
X120074587Y-119975727D01*
X119932383Y-119886374D01*
X119813626Y-119767617D01*
X119724273Y-119625413D01*
X119668804Y-119466891D01*
X119650000Y-119300000D01*
X119668804Y-119133109D01*
X119724273Y-118974587D01*
X119813626Y-118832383D01*
X119932383Y-118713626D01*
X120074587Y-118624273D01*
X120233109Y-118568804D01*
X120400000Y-118550000D01*
X120566891Y-118568804D01*
G37*
G36*
X125066891Y-118568804D02*
G01*
X125225413Y-118624273D01*
X125367617Y-118713626D01*
X125486374Y-118832383D01*
X125575727Y-118974587D01*
X125631196Y-119133109D01*
X125650000Y-119300000D01*
X125631196Y-119466891D01*
X125575727Y-119625413D01*
X125486374Y-119767617D01*
X125367617Y-119886374D01*
X125225413Y-119975727D01*
X125066891Y-120031196D01*
X124900000Y-120050000D01*
X124733109Y-120031196D01*
X124574587Y-119975727D01*
X124432383Y-119886374D01*
X124313626Y-119767617D01*
X124224273Y-119625413D01*
X124168804Y-119466891D01*
X124150000Y-119300000D01*
X124168804Y-119133109D01*
X124224273Y-118974587D01*
X124313626Y-118832383D01*
X124432383Y-118713626D01*
X124574587Y-118624273D01*
X124733109Y-118568804D01*
X124900000Y-118550000D01*
X125066891Y-118568804D01*
G37*
G36*
X94850000Y-119800000D02*
G01*
X93350000Y-119800000D01*
X93350000Y-118300000D01*
X94850000Y-118300000D01*
X94850000Y-119800000D01*
G37*
G36*
X98766891Y-118318804D02*
G01*
X98925413Y-118374273D01*
X99067617Y-118463626D01*
X99186374Y-118582383D01*
X99275727Y-118724587D01*
X99331196Y-118883109D01*
X99350000Y-119050000D01*
X99331196Y-119216891D01*
X99275727Y-119375413D01*
X99186374Y-119517617D01*
X99067617Y-119636374D01*
X98925413Y-119725727D01*
X98766891Y-119781196D01*
X98600000Y-119800000D01*
X98433109Y-119781196D01*
X98274587Y-119725727D01*
X98132383Y-119636374D01*
X98013626Y-119517617D01*
X97924273Y-119375413D01*
X97868804Y-119216891D01*
X97850000Y-119050000D01*
X97868804Y-118883109D01*
X97924273Y-118724587D01*
X98013626Y-118582383D01*
X98132383Y-118463626D01*
X98274587Y-118374273D01*
X98433109Y-118318804D01*
X98600000Y-118300000D01*
X98766891Y-118318804D01*
G37*
G36*
X143650000Y-119800000D02*
G01*
X142150000Y-119800000D01*
X142150000Y-118300000D01*
X143650000Y-118300000D01*
X143650000Y-119800000D01*
G37*
G36*
X147566891Y-118318804D02*
G01*
X147725413Y-118374273D01*
X147867617Y-118463626D01*
X147986374Y-118582383D01*
X148075727Y-118724587D01*
X148131196Y-118883109D01*
X148150000Y-119050000D01*
X148131196Y-119216891D01*
X148075727Y-119375413D01*
X147986374Y-119517617D01*
X147867617Y-119636374D01*
X147725413Y-119725727D01*
X147566891Y-119781196D01*
X147400000Y-119800000D01*
X147233109Y-119781196D01*
X147074587Y-119725727D01*
X146932383Y-119636374D01*
X146813626Y-119517617D01*
X146724273Y-119375413D01*
X146668804Y-119216891D01*
X146650000Y-119050000D01*
X146668804Y-118883109D01*
X146724273Y-118724587D01*
X146813626Y-118582383D01*
X146932383Y-118463626D01*
X147074587Y-118374273D01*
X147233109Y-118318804D01*
X147400000Y-118300000D01*
X147566891Y-118318804D01*
G37*
G36*
X108773679Y-116304710D02*
G01*
X108793251Y-116304710D01*
X108816838Y-116313294D01*
X108845671Y-116319030D01*
X108861314Y-116329482D01*
X108874537Y-116334295D01*
X108898071Y-116354042D01*
X108926777Y-116373223D01*
X108934239Y-116384390D01*
X108940801Y-116389897D01*
X108959127Y-116421639D01*
X108980970Y-116454329D01*
X108982530Y-116462173D01*
X108984053Y-116464811D01*
X108991840Y-116508980D01*
X109000000Y-116550000D01*
X108991838Y-116591030D01*
X108984053Y-116635188D01*
X108982530Y-116637824D01*
X108980970Y-116645671D01*
X108959123Y-116678366D01*
X108940801Y-116710102D01*
X108934240Y-116715606D01*
X108926777Y-116726777D01*
X108898065Y-116745961D01*
X108874537Y-116765704D01*
X108861316Y-116770515D01*
X108845671Y-116780970D01*
X108816836Y-116786705D01*
X108793251Y-116795290D01*
X108773679Y-116795290D01*
X108750000Y-116800000D01*
X108726321Y-116795290D01*
X108706749Y-116795290D01*
X108683162Y-116786705D01*
X108654329Y-116780970D01*
X108638684Y-116770516D01*
X108625462Y-116765704D01*
X108601929Y-116745958D01*
X108573223Y-116726777D01*
X108565760Y-116715608D01*
X108559198Y-116710102D01*
X108540869Y-116678355D01*
X108519030Y-116645671D01*
X108517469Y-116637827D01*
X108515946Y-116635188D01*
X108508152Y-116590986D01*
X108500000Y-116550000D01*
X108508150Y-116509025D01*
X108515946Y-116464811D01*
X108517470Y-116462171D01*
X108519030Y-116454329D01*
X108540864Y-116421651D01*
X108559199Y-116389895D01*
X108565763Y-116384386D01*
X108573223Y-116373223D01*
X108601922Y-116354046D01*
X108625461Y-116334296D01*
X108638684Y-116329483D01*
X108654329Y-116319030D01*
X108683163Y-116313294D01*
X108706750Y-116304710D01*
X108726321Y-116304710D01*
X108750000Y-116300000D01*
X108773679Y-116304710D01*
G37*
G36*
X110273679Y-116304710D02*
G01*
X110293251Y-116304710D01*
X110316838Y-116313294D01*
X110345671Y-116319030D01*
X110361314Y-116329482D01*
X110374537Y-116334295D01*
X110398071Y-116354042D01*
X110426777Y-116373223D01*
X110434239Y-116384390D01*
X110440801Y-116389897D01*
X110459127Y-116421639D01*
X110480970Y-116454329D01*
X110482530Y-116462173D01*
X110484053Y-116464811D01*
X110491840Y-116508976D01*
X110500000Y-116550000D01*
X110491839Y-116591026D01*
X110484053Y-116635188D01*
X110482530Y-116637824D01*
X110480970Y-116645671D01*
X110459123Y-116678366D01*
X110440801Y-116710102D01*
X110434240Y-116715606D01*
X110426777Y-116726777D01*
X110398065Y-116745961D01*
X110374537Y-116765704D01*
X110361316Y-116770515D01*
X110345671Y-116780970D01*
X110316836Y-116786705D01*
X110293251Y-116795290D01*
X110273679Y-116795290D01*
X110250000Y-116800000D01*
X110226321Y-116795290D01*
X110206749Y-116795290D01*
X110183162Y-116786705D01*
X110154329Y-116780970D01*
X110138684Y-116770516D01*
X110125462Y-116765704D01*
X110101929Y-116745958D01*
X110073223Y-116726777D01*
X110065760Y-116715608D01*
X110059198Y-116710102D01*
X110040869Y-116678355D01*
X110019030Y-116645671D01*
X110017469Y-116637827D01*
X110015946Y-116635188D01*
X110008151Y-116590982D01*
X110000000Y-116550000D01*
X110008151Y-116509021D01*
X110015946Y-116464811D01*
X110017470Y-116462171D01*
X110019030Y-116454329D01*
X110040864Y-116421651D01*
X110059199Y-116389895D01*
X110065763Y-116384386D01*
X110073223Y-116373223D01*
X110101922Y-116354046D01*
X110125461Y-116334296D01*
X110138684Y-116329483D01*
X110154329Y-116319030D01*
X110183163Y-116313294D01*
X110206750Y-116304710D01*
X110226321Y-116304710D01*
X110250000Y-116300000D01*
X110273679Y-116304710D01*
G37*
G36*
X108773679Y-115554710D02*
G01*
X108793251Y-115554710D01*
X108816838Y-115563294D01*
X108845671Y-115569030D01*
X108861314Y-115579482D01*
X108874537Y-115584295D01*
X108898071Y-115604042D01*
X108926777Y-115623223D01*
X108934239Y-115634390D01*
X108940801Y-115639897D01*
X108959127Y-115671639D01*
X108980970Y-115704329D01*
X108982530Y-115712173D01*
X108984053Y-115714811D01*
X108991840Y-115758980D01*
X109000000Y-115800000D01*
X108991838Y-115841030D01*
X108984053Y-115885188D01*
X108982530Y-115887824D01*
X108980970Y-115895671D01*
X108959123Y-115928366D01*
X108940801Y-115960102D01*
X108934240Y-115965606D01*
X108926777Y-115976777D01*
X108898065Y-115995961D01*
X108874537Y-116015704D01*
X108861316Y-116020515D01*
X108845671Y-116030970D01*
X108816836Y-116036705D01*
X108793251Y-116045290D01*
X108773679Y-116045290D01*
X108750000Y-116050000D01*
X108726321Y-116045290D01*
X108706749Y-116045290D01*
X108683162Y-116036705D01*
X108654329Y-116030970D01*
X108638684Y-116020516D01*
X108625462Y-116015704D01*
X108601929Y-115995958D01*
X108573223Y-115976777D01*
X108565760Y-115965608D01*
X108559198Y-115960102D01*
X108540869Y-115928355D01*
X108519030Y-115895671D01*
X108517469Y-115887827D01*
X108515946Y-115885188D01*
X108508151Y-115840982D01*
X108500000Y-115800000D01*
X108508151Y-115759021D01*
X108515946Y-115714811D01*
X108517470Y-115712171D01*
X108519030Y-115704329D01*
X108540864Y-115671651D01*
X108559199Y-115639895D01*
X108565763Y-115634386D01*
X108573223Y-115623223D01*
X108601922Y-115604046D01*
X108625461Y-115584296D01*
X108638684Y-115579483D01*
X108654329Y-115569030D01*
X108683163Y-115563294D01*
X108706750Y-115554710D01*
X108726321Y-115554710D01*
X108750000Y-115550000D01*
X108773679Y-115554710D01*
G37*
G36*
X110273679Y-115554710D02*
G01*
X110293251Y-115554710D01*
X110316838Y-115563294D01*
X110345671Y-115569030D01*
X110361314Y-115579482D01*
X110374537Y-115584295D01*
X110398071Y-115604042D01*
X110426777Y-115623223D01*
X110434239Y-115634390D01*
X110440801Y-115639897D01*
X110459127Y-115671639D01*
X110480970Y-115704329D01*
X110482530Y-115712173D01*
X110484053Y-115714811D01*
X110491840Y-115758976D01*
X110500000Y-115800000D01*
X110491839Y-115841026D01*
X110484053Y-115885188D01*
X110482530Y-115887824D01*
X110480970Y-115895671D01*
X110459123Y-115928366D01*
X110440801Y-115960102D01*
X110434240Y-115965606D01*
X110426777Y-115976777D01*
X110398065Y-115995961D01*
X110374537Y-116015704D01*
X110361316Y-116020515D01*
X110345671Y-116030970D01*
X110316836Y-116036705D01*
X110293251Y-116045290D01*
X110273679Y-116045290D01*
X110250000Y-116050000D01*
X110226321Y-116045290D01*
X110206749Y-116045290D01*
X110183162Y-116036705D01*
X110154329Y-116030970D01*
X110138684Y-116020516D01*
X110125462Y-116015704D01*
X110101929Y-115995958D01*
X110073223Y-115976777D01*
X110065760Y-115965608D01*
X110059198Y-115960102D01*
X110040869Y-115928355D01*
X110019030Y-115895671D01*
X110017469Y-115887827D01*
X110015946Y-115885188D01*
X110008151Y-115840982D01*
X110000000Y-115800000D01*
X110008151Y-115759021D01*
X110015946Y-115714811D01*
X110017470Y-115712171D01*
X110019030Y-115704329D01*
X110040864Y-115671651D01*
X110059199Y-115639895D01*
X110065763Y-115634386D01*
X110073223Y-115623223D01*
X110101922Y-115604046D01*
X110125461Y-115584296D01*
X110138684Y-115579483D01*
X110154329Y-115569030D01*
X110183163Y-115563294D01*
X110206750Y-115554710D01*
X110226321Y-115554710D01*
X110250000Y-115550000D01*
X110273679Y-115554710D01*
G37*
G36*
X108773679Y-114804710D02*
G01*
X108793251Y-114804710D01*
X108816838Y-114813294D01*
X108845671Y-114819030D01*
X108861314Y-114829482D01*
X108874537Y-114834295D01*
X108898071Y-114854042D01*
X108926777Y-114873223D01*
X108934239Y-114884390D01*
X108940801Y-114889897D01*
X108959127Y-114921639D01*
X108980970Y-114954329D01*
X108982530Y-114962173D01*
X108984053Y-114964811D01*
X108991840Y-115008980D01*
X109000000Y-115050000D01*
X108991838Y-115091030D01*
X108984053Y-115135188D01*
X108982530Y-115137824D01*
X108980970Y-115145671D01*
X108959123Y-115178366D01*
X108940801Y-115210102D01*
X108934240Y-115215606D01*
X108926777Y-115226777D01*
X108898065Y-115245961D01*
X108874537Y-115265704D01*
X108861316Y-115270515D01*
X108845671Y-115280970D01*
X108816836Y-115286705D01*
X108793251Y-115295290D01*
X108773679Y-115295290D01*
X108750000Y-115300000D01*
X108726321Y-115295290D01*
X108706749Y-115295290D01*
X108683162Y-115286705D01*
X108654329Y-115280970D01*
X108638684Y-115270516D01*
X108625462Y-115265704D01*
X108601929Y-115245958D01*
X108573223Y-115226777D01*
X108565760Y-115215608D01*
X108559198Y-115210102D01*
X108540869Y-115178355D01*
X108519030Y-115145671D01*
X108517469Y-115137827D01*
X108515946Y-115135188D01*
X108508152Y-115090986D01*
X108500000Y-115050000D01*
X108508150Y-115009025D01*
X108515946Y-114964811D01*
X108517470Y-114962171D01*
X108519030Y-114954329D01*
X108540864Y-114921651D01*
X108559199Y-114889895D01*
X108565763Y-114884386D01*
X108573223Y-114873223D01*
X108601922Y-114854046D01*
X108625461Y-114834296D01*
X108638684Y-114829483D01*
X108654329Y-114819030D01*
X108683163Y-114813294D01*
X108706750Y-114804710D01*
X108726321Y-114804710D01*
X108750000Y-114800000D01*
X108773679Y-114804710D01*
G37*
G36*
X110273679Y-114804710D02*
G01*
X110293251Y-114804710D01*
X110316838Y-114813294D01*
X110345671Y-114819030D01*
X110361314Y-114829482D01*
X110374537Y-114834295D01*
X110398071Y-114854042D01*
X110426777Y-114873223D01*
X110434239Y-114884390D01*
X110440801Y-114889897D01*
X110459127Y-114921639D01*
X110480970Y-114954329D01*
X110482530Y-114962173D01*
X110484053Y-114964811D01*
X110491840Y-115008976D01*
X110500000Y-115050000D01*
X110491839Y-115091026D01*
X110484053Y-115135188D01*
X110482530Y-115137824D01*
X110480970Y-115145671D01*
X110459123Y-115178366D01*
X110440801Y-115210102D01*
X110434240Y-115215606D01*
X110426777Y-115226777D01*
X110398065Y-115245961D01*
X110374537Y-115265704D01*
X110361316Y-115270515D01*
X110345671Y-115280970D01*
X110316836Y-115286705D01*
X110293251Y-115295290D01*
X110273679Y-115295290D01*
X110250000Y-115300000D01*
X110226321Y-115295290D01*
X110206749Y-115295290D01*
X110183162Y-115286705D01*
X110154329Y-115280970D01*
X110138684Y-115270516D01*
X110125462Y-115265704D01*
X110101929Y-115245958D01*
X110073223Y-115226777D01*
X110065760Y-115215608D01*
X110059198Y-115210102D01*
X110040869Y-115178355D01*
X110019030Y-115145671D01*
X110017469Y-115137827D01*
X110015946Y-115135188D01*
X110008151Y-115090982D01*
X110000000Y-115050000D01*
X110008151Y-115009021D01*
X110015946Y-114964811D01*
X110017470Y-114962171D01*
X110019030Y-114954329D01*
X110040864Y-114921651D01*
X110059199Y-114889895D01*
X110065763Y-114884386D01*
X110073223Y-114873223D01*
X110101922Y-114854046D01*
X110125461Y-114834296D01*
X110138684Y-114829483D01*
X110154329Y-114819030D01*
X110183163Y-114813294D01*
X110206750Y-114804710D01*
X110226321Y-114804710D01*
X110250000Y-114800000D01*
X110273679Y-114804710D01*
G37*
G36*
X71766891Y-112068804D02*
G01*
X71925413Y-112124273D01*
X72067617Y-112213626D01*
X72186374Y-112332383D01*
X72275727Y-112474587D01*
X72331196Y-112633109D01*
X72350000Y-112800000D01*
X72331196Y-112966891D01*
X72275727Y-113125413D01*
X72186374Y-113267617D01*
X72067617Y-113386374D01*
X71925413Y-113475727D01*
X71766891Y-113531196D01*
X71600000Y-113550000D01*
X71433109Y-113531196D01*
X71274587Y-113475727D01*
X71132383Y-113386374D01*
X71013626Y-113267617D01*
X70924273Y-113125413D01*
X70868804Y-112966891D01*
X70850000Y-112800000D01*
X70868804Y-112633109D01*
X70924273Y-112474587D01*
X71013626Y-112332383D01*
X71132383Y-112213626D01*
X71274587Y-112124273D01*
X71433109Y-112068804D01*
X71600000Y-112050000D01*
X71766891Y-112068804D01*
G37*
G36*
X76850000Y-113550000D02*
G01*
X75350000Y-113550000D01*
X75350000Y-112050000D01*
X76850000Y-112050000D01*
X76850000Y-113550000D01*
G37*
G36*
X120566891Y-112068804D02*
G01*
X120725413Y-112124273D01*
X120867617Y-112213626D01*
X120986374Y-112332383D01*
X121075727Y-112474587D01*
X121131196Y-112633109D01*
X121150000Y-112800000D01*
X121131196Y-112966891D01*
X121075727Y-113125413D01*
X120986374Y-113267617D01*
X120867617Y-113386374D01*
X120725413Y-113475727D01*
X120566891Y-113531196D01*
X120400000Y-113550000D01*
X120233109Y-113531196D01*
X120074587Y-113475727D01*
X119932383Y-113386374D01*
X119813626Y-113267617D01*
X119724273Y-113125413D01*
X119668804Y-112966891D01*
X119650000Y-112800000D01*
X119668804Y-112633109D01*
X119724273Y-112474587D01*
X119813626Y-112332383D01*
X119932383Y-112213626D01*
X120074587Y-112124273D01*
X120233109Y-112068804D01*
X120400000Y-112050000D01*
X120566891Y-112068804D01*
G37*
G36*
X125650000Y-113550000D02*
G01*
X124150000Y-113550000D01*
X124150000Y-112050000D01*
X125650000Y-112050000D01*
X125650000Y-113550000D01*
G37*
G36*
X94266891Y-111818804D02*
G01*
X94425413Y-111874273D01*
X94567617Y-111963626D01*
X94686374Y-112082383D01*
X94775727Y-112224587D01*
X94831196Y-112383109D01*
X94850000Y-112550000D01*
X94831196Y-112716891D01*
X94775727Y-112875413D01*
X94686374Y-113017617D01*
X94567617Y-113136374D01*
X94425413Y-113225727D01*
X94266891Y-113281196D01*
X94100000Y-113300000D01*
X93933109Y-113281196D01*
X93774587Y-113225727D01*
X93632383Y-113136374D01*
X93513626Y-113017617D01*
X93424273Y-112875413D01*
X93368804Y-112716891D01*
X93350000Y-112550000D01*
X93368804Y-112383109D01*
X93424273Y-112224587D01*
X93513626Y-112082383D01*
X93632383Y-111963626D01*
X93774587Y-111874273D01*
X93933109Y-111818804D01*
X94100000Y-111800000D01*
X94266891Y-111818804D01*
G37*
G36*
X98766891Y-111818804D02*
G01*
X98925413Y-111874273D01*
X99067617Y-111963626D01*
X99186374Y-112082383D01*
X99275727Y-112224587D01*
X99331196Y-112383109D01*
X99350000Y-112550000D01*
X99331196Y-112716891D01*
X99275727Y-112875413D01*
X99186374Y-113017617D01*
X99067617Y-113136374D01*
X98925413Y-113225727D01*
X98766891Y-113281196D01*
X98600000Y-113300000D01*
X98433109Y-113281196D01*
X98274587Y-113225727D01*
X98132383Y-113136374D01*
X98013626Y-113017617D01*
X97924273Y-112875413D01*
X97868804Y-112716891D01*
X97850000Y-112550000D01*
X97868804Y-112383109D01*
X97924273Y-112224587D01*
X98013626Y-112082383D01*
X98132383Y-111963626D01*
X98274587Y-111874273D01*
X98433109Y-111818804D01*
X98600000Y-111800000D01*
X98766891Y-111818804D01*
G37*
G36*
X143066891Y-111818804D02*
G01*
X143225413Y-111874273D01*
X143367617Y-111963626D01*
X143486374Y-112082383D01*
X143575727Y-112224587D01*
X143631196Y-112383109D01*
X143650000Y-112550000D01*
X143631196Y-112716891D01*
X143575727Y-112875413D01*
X143486374Y-113017617D01*
X143367617Y-113136374D01*
X143225413Y-113225727D01*
X143066891Y-113281196D01*
X142900000Y-113300000D01*
X142733109Y-113281196D01*
X142574587Y-113225727D01*
X142432383Y-113136374D01*
X142313626Y-113017617D01*
X142224273Y-112875413D01*
X142168804Y-112716891D01*
X142150000Y-112550000D01*
X142168804Y-112383109D01*
X142224273Y-112224587D01*
X142313626Y-112082383D01*
X142432383Y-111963626D01*
X142574587Y-111874273D01*
X142733109Y-111818804D01*
X142900000Y-111800000D01*
X143066891Y-111818804D01*
G37*
G36*
X147566891Y-111818804D02*
G01*
X147725413Y-111874273D01*
X147867617Y-111963626D01*
X147986374Y-112082383D01*
X148075727Y-112224587D01*
X148131196Y-112383109D01*
X148150000Y-112550000D01*
X148131196Y-112716891D01*
X148075727Y-112875413D01*
X147986374Y-113017617D01*
X147867617Y-113136374D01*
X147725413Y-113225727D01*
X147566891Y-113281196D01*
X147400000Y-113300000D01*
X147233109Y-113281196D01*
X147074587Y-113225727D01*
X146932383Y-113136374D01*
X146813626Y-113017617D01*
X146724273Y-112875413D01*
X146668804Y-112716891D01*
X146650000Y-112550000D01*
X146668804Y-112383109D01*
X146724273Y-112224587D01*
X146813626Y-112082383D01*
X146932383Y-111963626D01*
X147074587Y-111874273D01*
X147233109Y-111818804D01*
X147400000Y-111800000D01*
X147566891Y-111818804D01*
G37*
G36*
X82016891Y-106068804D02*
G01*
X82175413Y-106124273D01*
X82317617Y-106213626D01*
X82436374Y-106332383D01*
X82525727Y-106474587D01*
X82581196Y-106633109D01*
X82600000Y-106800000D01*
X82581196Y-106966891D01*
X82525727Y-107125413D01*
X82436374Y-107267617D01*
X82317617Y-107386374D01*
X82175413Y-107475727D01*
X82016891Y-107531196D01*
X81850000Y-107550000D01*
X81683109Y-107531196D01*
X81524587Y-107475727D01*
X81382383Y-107386374D01*
X81263626Y-107267617D01*
X81174273Y-107125413D01*
X81118804Y-106966891D01*
X81100000Y-106800000D01*
X81118804Y-106633109D01*
X81174273Y-106474587D01*
X81263626Y-106332383D01*
X81382383Y-106213626D01*
X81524587Y-106124273D01*
X81683109Y-106068804D01*
X81850000Y-106050000D01*
X82016891Y-106068804D01*
G37*
G36*
X89100000Y-107550000D02*
G01*
X87600000Y-107550000D01*
X87600000Y-106050000D01*
X89100000Y-106050000D01*
X89100000Y-107550000D01*
G37*
G36*
X130816891Y-106068804D02*
G01*
X130975413Y-106124273D01*
X131117617Y-106213626D01*
X131236374Y-106332383D01*
X131325727Y-106474587D01*
X131381196Y-106633109D01*
X131400000Y-106800000D01*
X131381196Y-106966891D01*
X131325727Y-107125413D01*
X131236374Y-107267617D01*
X131117617Y-107386374D01*
X130975413Y-107475727D01*
X130816891Y-107531196D01*
X130650000Y-107550000D01*
X130483109Y-107531196D01*
X130324587Y-107475727D01*
X130182383Y-107386374D01*
X130063626Y-107267617D01*
X129974273Y-107125413D01*
X129918804Y-106966891D01*
X129900000Y-106800000D01*
X129918804Y-106633109D01*
X129974273Y-106474587D01*
X130063626Y-106332383D01*
X130182383Y-106213626D01*
X130324587Y-106124273D01*
X130483109Y-106068804D01*
X130650000Y-106050000D01*
X130816891Y-106068804D01*
G37*
G36*
X137900000Y-107550000D02*
G01*
X136400000Y-107550000D01*
X136400000Y-106050000D01*
X137900000Y-106050000D01*
X137900000Y-107550000D01*
G37*
G36*
X74450000Y-106150000D02*
G01*
X72750000Y-106150000D01*
X72750000Y-104450000D01*
X74450000Y-104450000D01*
X74450000Y-106150000D01*
G37*
G36*
X123250000Y-106150000D02*
G01*
X121550000Y-106150000D01*
X121550000Y-104450000D01*
X123250000Y-104450000D01*
X123250000Y-106150000D01*
G37*
G36*
X71322664Y-104491602D02*
G01*
X71485000Y-104563878D01*
X71628761Y-104668327D01*
X71747664Y-104800383D01*
X71836514Y-104954274D01*
X71891425Y-105123275D01*
X71910000Y-105300000D01*
X71891425Y-105476725D01*
X71836514Y-105645726D01*
X71747664Y-105799617D01*
X71628761Y-105931673D01*
X71485000Y-106036122D01*
X71322664Y-106108398D01*
X71148849Y-106145344D01*
X70971151Y-106145344D01*
X70797336Y-106108398D01*
X70635000Y-106036122D01*
X70491239Y-105931673D01*
X70372336Y-105799617D01*
X70283486Y-105645726D01*
X70228575Y-105476725D01*
X70210000Y-105300000D01*
X70228575Y-105123275D01*
X70283486Y-104954274D01*
X70372336Y-104800383D01*
X70491239Y-104668327D01*
X70635000Y-104563878D01*
X70797336Y-104491602D01*
X70971151Y-104454656D01*
X71148849Y-104454656D01*
X71322664Y-104491602D01*
G37*
G36*
X120122664Y-104491602D02*
G01*
X120285000Y-104563878D01*
X120428761Y-104668327D01*
X120547664Y-104800383D01*
X120636514Y-104954274D01*
X120691425Y-105123275D01*
X120710000Y-105300000D01*
X120691425Y-105476725D01*
X120636514Y-105645726D01*
X120547664Y-105799617D01*
X120428761Y-105931673D01*
X120285000Y-106036122D01*
X120122664Y-106108398D01*
X119948849Y-106145344D01*
X119771151Y-106145344D01*
X119597336Y-106108398D01*
X119435000Y-106036122D01*
X119291239Y-105931673D01*
X119172336Y-105799617D01*
X119083486Y-105645726D01*
X119028575Y-105476725D01*
X119010000Y-105300000D01*
X119028575Y-105123275D01*
X119083486Y-104954274D01*
X119172336Y-104800383D01*
X119291239Y-104668327D01*
X119435000Y-104563878D01*
X119597336Y-104491602D01*
X119771151Y-104454656D01*
X119948849Y-104454656D01*
X120122664Y-104491602D01*
G37*
G36*
X102540213Y-101843734D02*
G01*
X102723116Y-101899217D01*
X102891681Y-101989317D01*
X103039429Y-102110571D01*
X103160683Y-102258319D01*
X103250783Y-102426884D01*
X103306266Y-102609787D01*
X103325000Y-102800000D01*
X103306266Y-102990213D01*
X103250783Y-103173116D01*
X103160683Y-103341681D01*
X103039429Y-103489429D01*
X102891681Y-103610683D01*
X102723116Y-103700783D01*
X102540213Y-103756266D01*
X102350000Y-103775000D01*
X102159787Y-103756266D01*
X101976884Y-103700783D01*
X101808319Y-103610683D01*
X101660571Y-103489429D01*
X101539317Y-103341681D01*
X101449217Y-103173116D01*
X101393734Y-102990213D01*
X101375000Y-102800000D01*
X101393734Y-102609787D01*
X101449217Y-102426884D01*
X101539317Y-102258319D01*
X101660571Y-102110571D01*
X101808319Y-101989317D01*
X101976884Y-101899217D01*
X102159787Y-101843734D01*
X102350000Y-101825000D01*
X102540213Y-101843734D01*
G37*
G36*
X151340213Y-101843734D02*
G01*
X151523116Y-101899217D01*
X151691681Y-101989317D01*
X151839429Y-102110571D01*
X151960683Y-102258319D01*
X152050783Y-102426884D01*
X152106266Y-102609787D01*
X152125000Y-102800000D01*
X152106266Y-102990213D01*
X152050783Y-103173116D01*
X151960683Y-103341681D01*
X151839429Y-103489429D01*
X151691681Y-103610683D01*
X151523116Y-103700783D01*
X151340213Y-103756266D01*
X151150000Y-103775000D01*
X150959787Y-103756266D01*
X150776884Y-103700783D01*
X150608319Y-103610683D01*
X150460571Y-103489429D01*
X150339317Y-103341681D01*
X150249217Y-103173116D01*
X150193734Y-102990213D01*
X150175000Y-102800000D01*
X150193734Y-102609787D01*
X150249217Y-102426884D01*
X150339317Y-102258319D01*
X150460571Y-102110571D01*
X150608319Y-101989317D01*
X150776884Y-101899217D01*
X150959787Y-101843734D01*
X151150000Y-101825000D01*
X151340213Y-101843734D01*
G37*
G36*
X82016891Y-101568804D02*
G01*
X82175413Y-101624273D01*
X82317617Y-101713626D01*
X82436374Y-101832383D01*
X82525727Y-101974587D01*
X82581196Y-102133109D01*
X82600000Y-102300000D01*
X82581196Y-102466891D01*
X82525727Y-102625413D01*
X82436374Y-102767617D01*
X82317617Y-102886374D01*
X82175413Y-102975727D01*
X82016891Y-103031196D01*
X81850000Y-103050000D01*
X81683109Y-103031196D01*
X81524587Y-102975727D01*
X81382383Y-102886374D01*
X81263626Y-102767617D01*
X81174273Y-102625413D01*
X81118804Y-102466891D01*
X81100000Y-102300000D01*
X81118804Y-102133109D01*
X81174273Y-101974587D01*
X81263626Y-101832383D01*
X81382383Y-101713626D01*
X81524587Y-101624273D01*
X81683109Y-101568804D01*
X81850000Y-101550000D01*
X82016891Y-101568804D01*
G37*
G36*
X88516891Y-101568804D02*
G01*
X88675413Y-101624273D01*
X88817617Y-101713626D01*
X88936374Y-101832383D01*
X89025727Y-101974587D01*
X89081196Y-102133109D01*
X89100000Y-102300000D01*
X89081196Y-102466891D01*
X89025727Y-102625413D01*
X88936374Y-102767617D01*
X88817617Y-102886374D01*
X88675413Y-102975727D01*
X88516891Y-103031196D01*
X88350000Y-103050000D01*
X88183109Y-103031196D01*
X88024587Y-102975727D01*
X87882383Y-102886374D01*
X87763626Y-102767617D01*
X87674273Y-102625413D01*
X87618804Y-102466891D01*
X87600000Y-102300000D01*
X87618804Y-102133109D01*
X87674273Y-101974587D01*
X87763626Y-101832383D01*
X87882383Y-101713626D01*
X88024587Y-101624273D01*
X88183109Y-101568804D01*
X88350000Y-101550000D01*
X88516891Y-101568804D01*
G37*
G36*
X130816891Y-101568804D02*
G01*
X130975413Y-101624273D01*
X131117617Y-101713626D01*
X131236374Y-101832383D01*
X131325727Y-101974587D01*
X131381196Y-102133109D01*
X131400000Y-102300000D01*
X131381196Y-102466891D01*
X131325727Y-102625413D01*
X131236374Y-102767617D01*
X131117617Y-102886374D01*
X130975413Y-102975727D01*
X130816891Y-103031196D01*
X130650000Y-103050000D01*
X130483109Y-103031196D01*
X130324587Y-102975727D01*
X130182383Y-102886374D01*
X130063626Y-102767617D01*
X129974273Y-102625413D01*
X129918804Y-102466891D01*
X129900000Y-102300000D01*
X129918804Y-102133109D01*
X129974273Y-101974587D01*
X130063626Y-101832383D01*
X130182383Y-101713626D01*
X130324587Y-101624273D01*
X130483109Y-101568804D01*
X130650000Y-101550000D01*
X130816891Y-101568804D01*
G37*
G36*
X137316891Y-101568804D02*
G01*
X137475413Y-101624273D01*
X137617617Y-101713626D01*
X137736374Y-101832383D01*
X137825727Y-101974587D01*
X137881196Y-102133109D01*
X137900000Y-102300000D01*
X137881196Y-102466891D01*
X137825727Y-102625413D01*
X137736374Y-102767617D01*
X137617617Y-102886374D01*
X137475413Y-102975727D01*
X137316891Y-103031196D01*
X137150000Y-103050000D01*
X136983109Y-103031196D01*
X136824587Y-102975727D01*
X136682383Y-102886374D01*
X136563626Y-102767617D01*
X136474273Y-102625413D01*
X136418804Y-102466891D01*
X136400000Y-102300000D01*
X136418804Y-102133109D01*
X136474273Y-101974587D01*
X136563626Y-101832383D01*
X136682383Y-101713626D01*
X136824587Y-101624273D01*
X136983109Y-101568804D01*
X137150000Y-101550000D01*
X137316891Y-101568804D01*
G37*
G36*
X97873308Y-97176829D02*
G01*
X98056211Y-97232312D01*
X98224776Y-97322412D01*
X98372524Y-97443666D01*
X98493778Y-97591414D01*
X98583878Y-97759979D01*
X98639361Y-97942882D01*
X98658095Y-98133095D01*
X98639361Y-98323308D01*
X98583878Y-98506211D01*
X98493778Y-98674776D01*
X98372524Y-98822524D01*
X98224776Y-98943778D01*
X98056211Y-99033878D01*
X97873308Y-99089361D01*
X97683095Y-99108095D01*
X97492882Y-99089361D01*
X97309979Y-99033878D01*
X97141414Y-98943778D01*
X96993666Y-98822524D01*
X96872412Y-98674776D01*
X96782312Y-98506211D01*
X96726829Y-98323308D01*
X96708095Y-98133095D01*
X96726829Y-97942882D01*
X96782312Y-97759979D01*
X96872412Y-97591414D01*
X96993666Y-97443666D01*
X97141414Y-97322412D01*
X97309979Y-97232312D01*
X97492882Y-97176829D01*
X97683095Y-97158095D01*
X97873308Y-97176829D01*
G37*
G36*
X146673308Y-97176829D02*
G01*
X146856211Y-97232312D01*
X147024776Y-97322412D01*
X147172524Y-97443666D01*
X147293778Y-97591414D01*
X147383878Y-97759979D01*
X147439361Y-97942882D01*
X147458095Y-98133095D01*
X147439361Y-98323308D01*
X147383878Y-98506211D01*
X147293778Y-98674776D01*
X147172524Y-98822524D01*
X147024776Y-98943778D01*
X146856211Y-99033878D01*
X146673308Y-99089361D01*
X146483095Y-99108095D01*
X146292882Y-99089361D01*
X146109979Y-99033878D01*
X145941414Y-98943778D01*
X145793666Y-98822524D01*
X145672412Y-98674776D01*
X145582312Y-98506211D01*
X145526829Y-98323308D01*
X145508095Y-98133095D01*
X145526829Y-97942882D01*
X145582312Y-97759979D01*
X145672412Y-97591414D01*
X145793666Y-97443666D01*
X145941414Y-97322412D01*
X146109979Y-97232312D01*
X146292882Y-97176829D01*
X146483095Y-97158095D01*
X146673308Y-97176829D01*
G37*
G36*
X84373679Y-91904710D02*
G01*
X84393251Y-91904710D01*
X84416838Y-91913294D01*
X84445671Y-91919030D01*
X84461314Y-91929482D01*
X84474537Y-91934295D01*
X84498071Y-91954042D01*
X84526777Y-91973223D01*
X84534239Y-91984390D01*
X84540801Y-91989897D01*
X84559127Y-92021639D01*
X84580970Y-92054329D01*
X84582530Y-92062173D01*
X84584053Y-92064811D01*
X84591840Y-92108976D01*
X84600000Y-92150000D01*
X84591839Y-92191026D01*
X84584053Y-92235188D01*
X84582530Y-92237824D01*
X84580970Y-92245671D01*
X84559123Y-92278366D01*
X84540801Y-92310102D01*
X84534240Y-92315606D01*
X84526777Y-92326777D01*
X84498065Y-92345961D01*
X84474537Y-92365704D01*
X84461316Y-92370515D01*
X84445671Y-92380970D01*
X84416836Y-92386705D01*
X84393251Y-92395290D01*
X84373679Y-92395290D01*
X84350000Y-92400000D01*
X84326321Y-92395290D01*
X84306749Y-92395290D01*
X84283162Y-92386705D01*
X84254329Y-92380970D01*
X84238684Y-92370516D01*
X84225462Y-92365704D01*
X84201929Y-92345958D01*
X84173223Y-92326777D01*
X84165760Y-92315608D01*
X84159198Y-92310102D01*
X84140869Y-92278355D01*
X84119030Y-92245671D01*
X84117469Y-92237827D01*
X84115946Y-92235188D01*
X84108151Y-92190982D01*
X84100000Y-92150000D01*
X84108151Y-92109021D01*
X84115946Y-92064811D01*
X84117470Y-92062171D01*
X84119030Y-92054329D01*
X84140864Y-92021651D01*
X84159199Y-91989895D01*
X84165763Y-91984386D01*
X84173223Y-91973223D01*
X84201922Y-91954046D01*
X84225461Y-91934296D01*
X84238684Y-91929483D01*
X84254329Y-91919030D01*
X84283163Y-91913294D01*
X84306750Y-91904710D01*
X84326321Y-91904710D01*
X84350000Y-91900000D01*
X84373679Y-91904710D01*
G37*
G36*
X85123679Y-91904710D02*
G01*
X85143251Y-91904710D01*
X85166838Y-91913294D01*
X85195671Y-91919030D01*
X85211314Y-91929482D01*
X85224537Y-91934295D01*
X85248071Y-91954042D01*
X85276777Y-91973223D01*
X85284239Y-91984390D01*
X85290801Y-91989897D01*
X85309127Y-92021639D01*
X85330970Y-92054329D01*
X85332530Y-92062173D01*
X85334053Y-92064811D01*
X85341840Y-92108980D01*
X85350000Y-92150000D01*
X85341838Y-92191030D01*
X85334053Y-92235188D01*
X85332530Y-92237824D01*
X85330970Y-92245671D01*
X85309123Y-92278366D01*
X85290801Y-92310102D01*
X85284240Y-92315606D01*
X85276777Y-92326777D01*
X85248065Y-92345961D01*
X85224537Y-92365704D01*
X85211316Y-92370515D01*
X85195671Y-92380970D01*
X85166836Y-92386705D01*
X85143251Y-92395290D01*
X85123679Y-92395290D01*
X85100000Y-92400000D01*
X85076321Y-92395290D01*
X85056749Y-92395290D01*
X85033162Y-92386705D01*
X85004329Y-92380970D01*
X84988684Y-92370516D01*
X84975462Y-92365704D01*
X84951929Y-92345958D01*
X84923223Y-92326777D01*
X84915760Y-92315608D01*
X84909198Y-92310102D01*
X84890869Y-92278355D01*
X84869030Y-92245671D01*
X84867469Y-92237827D01*
X84865946Y-92235188D01*
X84858152Y-92190986D01*
X84850000Y-92150000D01*
X84858150Y-92109025D01*
X84865946Y-92064811D01*
X84867470Y-92062171D01*
X84869030Y-92054329D01*
X84890864Y-92021651D01*
X84909199Y-91989895D01*
X84915763Y-91984386D01*
X84923223Y-91973223D01*
X84951922Y-91954046D01*
X84975461Y-91934296D01*
X84988684Y-91929483D01*
X85004329Y-91919030D01*
X85033163Y-91913294D01*
X85056750Y-91904710D01*
X85076321Y-91904710D01*
X85100000Y-91900000D01*
X85123679Y-91904710D01*
G37*
G36*
X85873679Y-91904710D02*
G01*
X85893251Y-91904710D01*
X85916838Y-91913294D01*
X85945671Y-91919030D01*
X85961314Y-91929482D01*
X85974537Y-91934295D01*
X85998071Y-91954042D01*
X86026777Y-91973223D01*
X86034239Y-91984390D01*
X86040801Y-91989897D01*
X86059127Y-92021639D01*
X86080970Y-92054329D01*
X86082530Y-92062173D01*
X86084053Y-92064811D01*
X86091840Y-92108976D01*
X86100000Y-92150000D01*
X86091839Y-92191026D01*
X86084053Y-92235188D01*
X86082530Y-92237824D01*
X86080970Y-92245671D01*
X86059123Y-92278366D01*
X86040801Y-92310102D01*
X86034240Y-92315606D01*
X86026777Y-92326777D01*
X85998065Y-92345961D01*
X85974537Y-92365704D01*
X85961316Y-92370515D01*
X85945671Y-92380970D01*
X85916836Y-92386705D01*
X85893251Y-92395290D01*
X85873679Y-92395290D01*
X85850000Y-92400000D01*
X85826321Y-92395290D01*
X85806749Y-92395290D01*
X85783162Y-92386705D01*
X85754329Y-92380970D01*
X85738684Y-92370516D01*
X85725462Y-92365704D01*
X85701929Y-92345958D01*
X85673223Y-92326777D01*
X85665760Y-92315608D01*
X85659198Y-92310102D01*
X85640869Y-92278355D01*
X85619030Y-92245671D01*
X85617469Y-92237827D01*
X85615946Y-92235188D01*
X85608151Y-92190982D01*
X85600000Y-92150000D01*
X85608151Y-92109021D01*
X85615946Y-92064811D01*
X85617470Y-92062171D01*
X85619030Y-92054329D01*
X85640864Y-92021651D01*
X85659199Y-91989895D01*
X85665763Y-91984386D01*
X85673223Y-91973223D01*
X85701922Y-91954046D01*
X85725461Y-91934296D01*
X85738684Y-91929483D01*
X85754329Y-91919030D01*
X85783163Y-91913294D01*
X85806750Y-91904710D01*
X85826321Y-91904710D01*
X85850000Y-91900000D01*
X85873679Y-91904710D01*
G37*
G36*
X133173679Y-91904710D02*
G01*
X133193251Y-91904710D01*
X133216838Y-91913294D01*
X133245671Y-91919030D01*
X133261314Y-91929482D01*
X133274537Y-91934295D01*
X133298071Y-91954042D01*
X133326777Y-91973223D01*
X133334239Y-91984390D01*
X133340801Y-91989897D01*
X133359127Y-92021639D01*
X133380970Y-92054329D01*
X133382530Y-92062173D01*
X133384053Y-92064811D01*
X133391840Y-92108980D01*
X133400000Y-92150000D01*
X133391838Y-92191030D01*
X133384053Y-92235188D01*
X133382530Y-92237824D01*
X133380970Y-92245671D01*
X133359123Y-92278366D01*
X133340801Y-92310102D01*
X133334240Y-92315606D01*
X133326777Y-92326777D01*
X133298065Y-92345961D01*
X133274537Y-92365704D01*
X133261316Y-92370515D01*
X133245671Y-92380970D01*
X133216836Y-92386705D01*
X133193251Y-92395290D01*
X133173679Y-92395290D01*
X133150000Y-92400000D01*
X133126321Y-92395290D01*
X133106749Y-92395290D01*
X133083162Y-92386705D01*
X133054329Y-92380970D01*
X133038684Y-92370516D01*
X133025462Y-92365704D01*
X133001929Y-92345958D01*
X132973223Y-92326777D01*
X132965760Y-92315608D01*
X132959198Y-92310102D01*
X132940869Y-92278355D01*
X132919030Y-92245671D01*
X132917469Y-92237827D01*
X132915946Y-92235188D01*
X132908152Y-92190986D01*
X132900000Y-92150000D01*
X132908150Y-92109025D01*
X132915946Y-92064811D01*
X132917470Y-92062171D01*
X132919030Y-92054329D01*
X132940864Y-92021651D01*
X132959199Y-91989895D01*
X132965763Y-91984386D01*
X132973223Y-91973223D01*
X133001922Y-91954046D01*
X133025461Y-91934296D01*
X133038684Y-91929483D01*
X133054329Y-91919030D01*
X133083163Y-91913294D01*
X133106750Y-91904710D01*
X133126321Y-91904710D01*
X133150000Y-91900000D01*
X133173679Y-91904710D01*
G37*
G36*
X133923679Y-91904710D02*
G01*
X133943251Y-91904710D01*
X133966838Y-91913294D01*
X133995671Y-91919030D01*
X134011314Y-91929482D01*
X134024537Y-91934295D01*
X134048071Y-91954042D01*
X134076777Y-91973223D01*
X134084239Y-91984390D01*
X134090801Y-91989897D01*
X134109127Y-92021639D01*
X134130970Y-92054329D01*
X134132530Y-92062173D01*
X134134053Y-92064811D01*
X134141840Y-92108980D01*
X134150000Y-92150000D01*
X134141838Y-92191030D01*
X134134053Y-92235188D01*
X134132530Y-92237824D01*
X134130970Y-92245671D01*
X134109123Y-92278366D01*
X134090801Y-92310102D01*
X134084240Y-92315606D01*
X134076777Y-92326777D01*
X134048065Y-92345961D01*
X134024537Y-92365704D01*
X134011316Y-92370515D01*
X133995671Y-92380970D01*
X133966836Y-92386705D01*
X133943251Y-92395290D01*
X133923679Y-92395290D01*
X133900000Y-92400000D01*
X133876321Y-92395290D01*
X133856749Y-92395290D01*
X133833162Y-92386705D01*
X133804329Y-92380970D01*
X133788684Y-92370516D01*
X133775462Y-92365704D01*
X133751929Y-92345958D01*
X133723223Y-92326777D01*
X133715760Y-92315608D01*
X133709198Y-92310102D01*
X133690869Y-92278355D01*
X133669030Y-92245671D01*
X133667469Y-92237827D01*
X133665946Y-92235188D01*
X133658152Y-92190986D01*
X133650000Y-92150000D01*
X133658150Y-92109025D01*
X133665946Y-92064811D01*
X133667470Y-92062171D01*
X133669030Y-92054329D01*
X133690864Y-92021651D01*
X133709199Y-91989895D01*
X133715763Y-91984386D01*
X133723223Y-91973223D01*
X133751922Y-91954046D01*
X133775461Y-91934296D01*
X133788684Y-91929483D01*
X133804329Y-91919030D01*
X133833163Y-91913294D01*
X133856750Y-91904710D01*
X133876321Y-91904710D01*
X133900000Y-91900000D01*
X133923679Y-91904710D01*
G37*
G36*
X134673679Y-91904710D02*
G01*
X134693251Y-91904710D01*
X134716838Y-91913294D01*
X134745671Y-91919030D01*
X134761314Y-91929482D01*
X134774537Y-91934295D01*
X134798071Y-91954042D01*
X134826777Y-91973223D01*
X134834239Y-91984390D01*
X134840801Y-91989897D01*
X134859127Y-92021639D01*
X134880970Y-92054329D01*
X134882530Y-92062173D01*
X134884053Y-92064811D01*
X134891840Y-92108980D01*
X134900000Y-92150000D01*
X134891838Y-92191030D01*
X134884053Y-92235188D01*
X134882530Y-92237824D01*
X134880970Y-92245671D01*
X134859123Y-92278366D01*
X134840801Y-92310102D01*
X134834240Y-92315606D01*
X134826777Y-92326777D01*
X134798065Y-92345961D01*
X134774537Y-92365704D01*
X134761316Y-92370515D01*
X134745671Y-92380970D01*
X134716836Y-92386705D01*
X134693251Y-92395290D01*
X134673679Y-92395290D01*
X134650000Y-92400000D01*
X134626321Y-92395290D01*
X134606749Y-92395290D01*
X134583162Y-92386705D01*
X134554329Y-92380970D01*
X134538684Y-92370516D01*
X134525462Y-92365704D01*
X134501929Y-92345958D01*
X134473223Y-92326777D01*
X134465760Y-92315608D01*
X134459198Y-92310102D01*
X134440869Y-92278355D01*
X134419030Y-92245671D01*
X134417469Y-92237827D01*
X134415946Y-92235188D01*
X134408152Y-92190986D01*
X134400000Y-92150000D01*
X134408150Y-92109025D01*
X134415946Y-92064811D01*
X134417470Y-92062171D01*
X134419030Y-92054329D01*
X134440864Y-92021651D01*
X134459199Y-91989895D01*
X134465763Y-91984386D01*
X134473223Y-91973223D01*
X134501922Y-91954046D01*
X134525461Y-91934296D01*
X134538684Y-91929483D01*
X134554329Y-91919030D01*
X134583163Y-91913294D01*
X134606750Y-91904710D01*
X134626321Y-91904710D01*
X134650000Y-91900000D01*
X134673679Y-91904710D01*
G37*
G36*
X84373679Y-90404710D02*
G01*
X84393251Y-90404710D01*
X84416838Y-90413294D01*
X84445671Y-90419030D01*
X84461314Y-90429482D01*
X84474537Y-90434295D01*
X84498071Y-90454042D01*
X84526777Y-90473223D01*
X84534239Y-90484390D01*
X84540801Y-90489897D01*
X84559127Y-90521639D01*
X84580970Y-90554329D01*
X84582530Y-90562173D01*
X84584053Y-90564811D01*
X84591840Y-90608980D01*
X84600000Y-90650000D01*
X84591838Y-90691030D01*
X84584053Y-90735188D01*
X84582530Y-90737824D01*
X84580970Y-90745671D01*
X84559123Y-90778366D01*
X84540801Y-90810102D01*
X84534240Y-90815606D01*
X84526777Y-90826777D01*
X84498065Y-90845961D01*
X84474537Y-90865704D01*
X84461316Y-90870515D01*
X84445671Y-90880970D01*
X84416836Y-90886705D01*
X84393251Y-90895290D01*
X84373679Y-90895290D01*
X84350000Y-90900000D01*
X84326321Y-90895290D01*
X84306749Y-90895290D01*
X84283162Y-90886705D01*
X84254329Y-90880970D01*
X84238684Y-90870516D01*
X84225462Y-90865704D01*
X84201929Y-90845958D01*
X84173223Y-90826777D01*
X84165760Y-90815608D01*
X84159198Y-90810102D01*
X84140869Y-90778355D01*
X84119030Y-90745671D01*
X84117469Y-90737827D01*
X84115946Y-90735188D01*
X84108152Y-90690986D01*
X84100000Y-90650000D01*
X84108150Y-90609025D01*
X84115946Y-90564811D01*
X84117470Y-90562171D01*
X84119030Y-90554329D01*
X84140864Y-90521651D01*
X84159199Y-90489895D01*
X84165763Y-90484386D01*
X84173223Y-90473223D01*
X84201922Y-90454046D01*
X84225461Y-90434296D01*
X84238684Y-90429483D01*
X84254329Y-90419030D01*
X84283163Y-90413294D01*
X84306750Y-90404710D01*
X84326321Y-90404710D01*
X84350000Y-90400000D01*
X84373679Y-90404710D01*
G37*
G36*
X85123679Y-90404710D02*
G01*
X85143251Y-90404710D01*
X85166838Y-90413294D01*
X85195671Y-90419030D01*
X85211314Y-90429482D01*
X85224537Y-90434295D01*
X85248071Y-90454042D01*
X85276777Y-90473223D01*
X85284239Y-90484390D01*
X85290801Y-90489897D01*
X85309127Y-90521639D01*
X85330970Y-90554329D01*
X85332530Y-90562173D01*
X85334053Y-90564811D01*
X85341840Y-90608976D01*
X85350000Y-90650000D01*
X85341839Y-90691026D01*
X85334053Y-90735188D01*
X85332530Y-90737824D01*
X85330970Y-90745671D01*
X85309123Y-90778366D01*
X85290801Y-90810102D01*
X85284240Y-90815606D01*
X85276777Y-90826777D01*
X85248065Y-90845961D01*
X85224537Y-90865704D01*
X85211316Y-90870515D01*
X85195671Y-90880970D01*
X85166836Y-90886705D01*
X85143251Y-90895290D01*
X85123679Y-90895290D01*
X85100000Y-90900000D01*
X85076321Y-90895290D01*
X85056749Y-90895290D01*
X85033162Y-90886705D01*
X85004329Y-90880970D01*
X84988684Y-90870516D01*
X84975462Y-90865704D01*
X84951929Y-90845958D01*
X84923223Y-90826777D01*
X84915760Y-90815608D01*
X84909198Y-90810102D01*
X84890869Y-90778355D01*
X84869030Y-90745671D01*
X84867469Y-90737827D01*
X84865946Y-90735188D01*
X84858151Y-90690982D01*
X84850000Y-90650000D01*
X84858151Y-90609021D01*
X84865946Y-90564811D01*
X84867470Y-90562171D01*
X84869030Y-90554329D01*
X84890864Y-90521651D01*
X84909199Y-90489895D01*
X84915763Y-90484386D01*
X84923223Y-90473223D01*
X84951922Y-90454046D01*
X84975461Y-90434296D01*
X84988684Y-90429483D01*
X85004329Y-90419030D01*
X85033163Y-90413294D01*
X85056750Y-90404710D01*
X85076321Y-90404710D01*
X85100000Y-90400000D01*
X85123679Y-90404710D01*
G37*
G36*
X85873679Y-90404710D02*
G01*
X85893251Y-90404710D01*
X85916838Y-90413294D01*
X85945671Y-90419030D01*
X85961314Y-90429482D01*
X85974537Y-90434295D01*
X85998071Y-90454042D01*
X86026777Y-90473223D01*
X86034239Y-90484390D01*
X86040801Y-90489897D01*
X86059127Y-90521639D01*
X86080970Y-90554329D01*
X86082530Y-90562173D01*
X86084053Y-90564811D01*
X86091840Y-90608980D01*
X86100000Y-90650000D01*
X86091838Y-90691030D01*
X86084053Y-90735188D01*
X86082530Y-90737824D01*
X86080970Y-90745671D01*
X86059123Y-90778366D01*
X86040801Y-90810102D01*
X86034240Y-90815606D01*
X86026777Y-90826777D01*
X85998065Y-90845961D01*
X85974537Y-90865704D01*
X85961316Y-90870515D01*
X85945671Y-90880970D01*
X85916836Y-90886705D01*
X85893251Y-90895290D01*
X85873679Y-90895290D01*
X85850000Y-90900000D01*
X85826321Y-90895290D01*
X85806749Y-90895290D01*
X85783162Y-90886705D01*
X85754329Y-90880970D01*
X85738684Y-90870516D01*
X85725462Y-90865704D01*
X85701929Y-90845958D01*
X85673223Y-90826777D01*
X85665760Y-90815608D01*
X85659198Y-90810102D01*
X85640869Y-90778355D01*
X85619030Y-90745671D01*
X85617469Y-90737827D01*
X85615946Y-90735188D01*
X85608152Y-90690986D01*
X85600000Y-90650000D01*
X85608150Y-90609025D01*
X85615946Y-90564811D01*
X85617470Y-90562171D01*
X85619030Y-90554329D01*
X85640864Y-90521651D01*
X85659199Y-90489895D01*
X85665763Y-90484386D01*
X85673223Y-90473223D01*
X85701922Y-90454046D01*
X85725461Y-90434296D01*
X85738684Y-90429483D01*
X85754329Y-90419030D01*
X85783163Y-90413294D01*
X85806750Y-90404710D01*
X85826321Y-90404710D01*
X85850000Y-90400000D01*
X85873679Y-90404710D01*
G37*
G36*
X133173679Y-90404710D02*
G01*
X133193251Y-90404710D01*
X133216838Y-90413294D01*
X133245671Y-90419030D01*
X133261314Y-90429482D01*
X133274537Y-90434295D01*
X133298071Y-90454042D01*
X133326777Y-90473223D01*
X133334239Y-90484390D01*
X133340801Y-90489897D01*
X133359127Y-90521639D01*
X133380970Y-90554329D01*
X133382530Y-90562173D01*
X133384053Y-90564811D01*
X133391840Y-90608976D01*
X133400000Y-90650000D01*
X133391839Y-90691026D01*
X133384053Y-90735188D01*
X133382530Y-90737824D01*
X133380970Y-90745671D01*
X133359123Y-90778366D01*
X133340801Y-90810102D01*
X133334240Y-90815606D01*
X133326777Y-90826777D01*
X133298065Y-90845961D01*
X133274537Y-90865704D01*
X133261316Y-90870515D01*
X133245671Y-90880970D01*
X133216836Y-90886705D01*
X133193251Y-90895290D01*
X133173679Y-90895290D01*
X133150000Y-90900000D01*
X133126321Y-90895290D01*
X133106749Y-90895290D01*
X133083162Y-90886705D01*
X133054329Y-90880970D01*
X133038684Y-90870516D01*
X133025462Y-90865704D01*
X133001929Y-90845958D01*
X132973223Y-90826777D01*
X132965760Y-90815608D01*
X132959198Y-90810102D01*
X132940869Y-90778355D01*
X132919030Y-90745671D01*
X132917469Y-90737827D01*
X132915946Y-90735188D01*
X132908151Y-90690982D01*
X132900000Y-90650000D01*
X132908151Y-90609021D01*
X132915946Y-90564811D01*
X132917470Y-90562171D01*
X132919030Y-90554329D01*
X132940864Y-90521651D01*
X132959199Y-90489895D01*
X132965763Y-90484386D01*
X132973223Y-90473223D01*
X133001922Y-90454046D01*
X133025461Y-90434296D01*
X133038684Y-90429483D01*
X133054329Y-90419030D01*
X133083163Y-90413294D01*
X133106750Y-90404710D01*
X133126321Y-90404710D01*
X133150000Y-90400000D01*
X133173679Y-90404710D01*
G37*
G36*
X133923679Y-90404710D02*
G01*
X133943251Y-90404710D01*
X133966838Y-90413294D01*
X133995671Y-90419030D01*
X134011314Y-90429482D01*
X134024537Y-90434295D01*
X134048071Y-90454042D01*
X134076777Y-90473223D01*
X134084239Y-90484390D01*
X134090801Y-90489897D01*
X134109127Y-90521639D01*
X134130970Y-90554329D01*
X134132530Y-90562173D01*
X134134053Y-90564811D01*
X134141840Y-90608976D01*
X134150000Y-90650000D01*
X134141839Y-90691026D01*
X134134053Y-90735188D01*
X134132530Y-90737824D01*
X134130970Y-90745671D01*
X134109123Y-90778366D01*
X134090801Y-90810102D01*
X134084240Y-90815606D01*
X134076777Y-90826777D01*
X134048065Y-90845961D01*
X134024537Y-90865704D01*
X134011316Y-90870515D01*
X133995671Y-90880970D01*
X133966836Y-90886705D01*
X133943251Y-90895290D01*
X133923679Y-90895290D01*
X133900000Y-90900000D01*
X133876321Y-90895290D01*
X133856749Y-90895290D01*
X133833162Y-90886705D01*
X133804329Y-90880970D01*
X133788684Y-90870516D01*
X133775462Y-90865704D01*
X133751929Y-90845958D01*
X133723223Y-90826777D01*
X133715760Y-90815608D01*
X133709198Y-90810102D01*
X133690869Y-90778355D01*
X133669030Y-90745671D01*
X133667469Y-90737827D01*
X133665946Y-90735188D01*
X133658151Y-90690982D01*
X133650000Y-90650000D01*
X133658151Y-90609021D01*
X133665946Y-90564811D01*
X133667470Y-90562171D01*
X133669030Y-90554329D01*
X133690864Y-90521651D01*
X133709199Y-90489895D01*
X133715763Y-90484386D01*
X133723223Y-90473223D01*
X133751922Y-90454046D01*
X133775461Y-90434296D01*
X133788684Y-90429483D01*
X133804329Y-90419030D01*
X133833163Y-90413294D01*
X133856750Y-90404710D01*
X133876321Y-90404710D01*
X133900000Y-90400000D01*
X133923679Y-90404710D01*
G37*
G36*
X134673679Y-90404710D02*
G01*
X134693251Y-90404710D01*
X134716838Y-90413294D01*
X134745671Y-90419030D01*
X134761314Y-90429482D01*
X134774537Y-90434295D01*
X134798071Y-90454042D01*
X134826777Y-90473223D01*
X134834239Y-90484390D01*
X134840801Y-90489897D01*
X134859127Y-90521639D01*
X134880970Y-90554329D01*
X134882530Y-90562173D01*
X134884053Y-90564811D01*
X134891840Y-90608976D01*
X134900000Y-90650000D01*
X134891839Y-90691026D01*
X134884053Y-90735188D01*
X134882530Y-90737824D01*
X134880970Y-90745671D01*
X134859123Y-90778366D01*
X134840801Y-90810102D01*
X134834240Y-90815606D01*
X134826777Y-90826777D01*
X134798065Y-90845961D01*
X134774537Y-90865704D01*
X134761316Y-90870515D01*
X134745671Y-90880970D01*
X134716836Y-90886705D01*
X134693251Y-90895290D01*
X134673679Y-90895290D01*
X134650000Y-90900000D01*
X134626321Y-90895290D01*
X134606749Y-90895290D01*
X134583162Y-90886705D01*
X134554329Y-90880970D01*
X134538684Y-90870516D01*
X134525462Y-90865704D01*
X134501929Y-90845958D01*
X134473223Y-90826777D01*
X134465760Y-90815608D01*
X134459198Y-90810102D01*
X134440869Y-90778355D01*
X134419030Y-90745671D01*
X134417469Y-90737827D01*
X134415946Y-90735188D01*
X134408151Y-90690982D01*
X134400000Y-90650000D01*
X134408151Y-90609021D01*
X134415946Y-90564811D01*
X134417470Y-90562171D01*
X134419030Y-90554329D01*
X134440864Y-90521651D01*
X134459199Y-90489895D01*
X134465763Y-90484386D01*
X134473223Y-90473223D01*
X134501922Y-90454046D01*
X134525461Y-90434296D01*
X134538684Y-90429483D01*
X134554329Y-90419030D01*
X134583163Y-90413294D01*
X134606750Y-90404710D01*
X134626321Y-90404710D01*
X134650000Y-90400000D01*
X134673679Y-90404710D01*
G37*
G36*
X95020561Y-81283705D02*
G01*
X95182897Y-81355981D01*
X95326658Y-81460430D01*
X95445561Y-81592486D01*
X95534411Y-81746377D01*
X95589322Y-81915378D01*
X95607897Y-82092103D01*
X95589322Y-82268828D01*
X95534411Y-82437829D01*
X95445561Y-82591720D01*
X95326658Y-82723776D01*
X95182897Y-82828225D01*
X95020561Y-82900501D01*
X94846746Y-82937447D01*
X94669048Y-82937447D01*
X94495233Y-82900501D01*
X94332897Y-82828225D01*
X94189136Y-82723776D01*
X94070233Y-82591720D01*
X93981383Y-82437829D01*
X93926472Y-82268828D01*
X93907897Y-82092103D01*
X93926472Y-81915378D01*
X93981383Y-81746377D01*
X94070233Y-81592486D01*
X94189136Y-81460430D01*
X94332897Y-81355981D01*
X94495233Y-81283705D01*
X94669048Y-81246759D01*
X94846746Y-81246759D01*
X95020561Y-81283705D01*
G37*
G36*
X143820561Y-81283705D02*
G01*
X143982897Y-81355981D01*
X144126658Y-81460430D01*
X144245561Y-81592486D01*
X144334411Y-81746377D01*
X144389322Y-81915378D01*
X144407897Y-82092103D01*
X144389322Y-82268828D01*
X144334411Y-82437829D01*
X144245561Y-82591720D01*
X144126658Y-82723776D01*
X143982897Y-82828225D01*
X143820561Y-82900501D01*
X143646746Y-82937447D01*
X143469048Y-82937447D01*
X143295233Y-82900501D01*
X143132897Y-82828225D01*
X142989136Y-82723776D01*
X142870233Y-82591720D01*
X142781383Y-82437829D01*
X142726472Y-82268828D01*
X142707897Y-82092103D01*
X142726472Y-81915378D01*
X142781383Y-81746377D01*
X142870233Y-81592486D01*
X142989136Y-81460430D01*
X143132897Y-81355981D01*
X143295233Y-81283705D01*
X143469048Y-81246759D01*
X143646746Y-81246759D01*
X143820561Y-81283705D01*
G37*
G36*
X75658716Y-81237654D02*
G01*
X75821052Y-81309930D01*
X75964813Y-81414379D01*
X76083716Y-81546435D01*
X76172566Y-81700326D01*
X76227477Y-81869327D01*
X76246052Y-82046052D01*
X76227477Y-82222777D01*
X76172566Y-82391778D01*
X76083716Y-82545669D01*
X75964813Y-82677725D01*
X75821052Y-82782174D01*
X75658716Y-82854450D01*
X75484901Y-82891396D01*
X75307203Y-82891396D01*
X75133388Y-82854450D01*
X74971052Y-82782174D01*
X74827291Y-82677725D01*
X74708388Y-82545669D01*
X74619538Y-82391778D01*
X74564627Y-82222777D01*
X74546052Y-82046052D01*
X74564627Y-81869327D01*
X74619538Y-81700326D01*
X74708388Y-81546435D01*
X74827291Y-81414379D01*
X74971052Y-81309930D01*
X75133388Y-81237654D01*
X75307203Y-81200708D01*
X75484901Y-81200708D01*
X75658716Y-81237654D01*
G37*
G36*
X124458716Y-81237654D02*
G01*
X124621052Y-81309930D01*
X124764813Y-81414379D01*
X124883716Y-81546435D01*
X124972566Y-81700326D01*
X125027477Y-81869327D01*
X125046052Y-82046052D01*
X125027477Y-82222777D01*
X124972566Y-82391778D01*
X124883716Y-82545669D01*
X124764813Y-82677725D01*
X124621052Y-82782174D01*
X124458716Y-82854450D01*
X124284901Y-82891396D01*
X124107203Y-82891396D01*
X123933388Y-82854450D01*
X123771052Y-82782174D01*
X123627291Y-82677725D01*
X123508388Y-82545669D01*
X123419538Y-82391778D01*
X123364627Y-82222777D01*
X123346052Y-82046052D01*
X123364627Y-81869327D01*
X123419538Y-81700326D01*
X123508388Y-81546435D01*
X123627291Y-81414379D01*
X123771052Y-81309930D01*
X123933388Y-81237654D01*
X124107203Y-81200708D01*
X124284901Y-81200708D01*
X124458716Y-81237654D01*
G37*
G36*
X82016891Y-80018804D02*
G01*
X82175413Y-80074273D01*
X82317617Y-80163626D01*
X82436374Y-80282383D01*
X82525727Y-80424587D01*
X82581196Y-80583109D01*
X82600000Y-80750000D01*
X82581196Y-80916891D01*
X82525727Y-81075413D01*
X82436374Y-81217617D01*
X82317617Y-81336374D01*
X82175413Y-81425727D01*
X82016891Y-81481196D01*
X81850000Y-81500000D01*
X81683109Y-81481196D01*
X81524587Y-81425727D01*
X81382383Y-81336374D01*
X81263626Y-81217617D01*
X81174273Y-81075413D01*
X81118804Y-80916891D01*
X81100000Y-80750000D01*
X81118804Y-80583109D01*
X81174273Y-80424587D01*
X81263626Y-80282383D01*
X81382383Y-80163626D01*
X81524587Y-80074273D01*
X81683109Y-80018804D01*
X81850000Y-80000000D01*
X82016891Y-80018804D01*
G37*
G36*
X88516891Y-80018804D02*
G01*
X88675413Y-80074273D01*
X88817617Y-80163626D01*
X88936374Y-80282383D01*
X89025727Y-80424587D01*
X89081196Y-80583109D01*
X89100000Y-80750000D01*
X89081196Y-80916891D01*
X89025727Y-81075413D01*
X88936374Y-81217617D01*
X88817617Y-81336374D01*
X88675413Y-81425727D01*
X88516891Y-81481196D01*
X88350000Y-81500000D01*
X88183109Y-81481196D01*
X88024587Y-81425727D01*
X87882383Y-81336374D01*
X87763626Y-81217617D01*
X87674273Y-81075413D01*
X87618804Y-80916891D01*
X87600000Y-80750000D01*
X87618804Y-80583109D01*
X87674273Y-80424587D01*
X87763626Y-80282383D01*
X87882383Y-80163626D01*
X88024587Y-80074273D01*
X88183109Y-80018804D01*
X88350000Y-80000000D01*
X88516891Y-80018804D01*
G37*
G36*
X130816891Y-80018804D02*
G01*
X130975413Y-80074273D01*
X131117617Y-80163626D01*
X131236374Y-80282383D01*
X131325727Y-80424587D01*
X131381196Y-80583109D01*
X131400000Y-80750000D01*
X131381196Y-80916891D01*
X131325727Y-81075413D01*
X131236374Y-81217617D01*
X131117617Y-81336374D01*
X130975413Y-81425727D01*
X130816891Y-81481196D01*
X130650000Y-81500000D01*
X130483109Y-81481196D01*
X130324587Y-81425727D01*
X130182383Y-81336374D01*
X130063626Y-81217617D01*
X129974273Y-81075413D01*
X129918804Y-80916891D01*
X129900000Y-80750000D01*
X129918804Y-80583109D01*
X129974273Y-80424587D01*
X130063626Y-80282383D01*
X130182383Y-80163626D01*
X130324587Y-80074273D01*
X130483109Y-80018804D01*
X130650000Y-80000000D01*
X130816891Y-80018804D01*
G37*
G36*
X137316891Y-80018804D02*
G01*
X137475413Y-80074273D01*
X137617617Y-80163626D01*
X137736374Y-80282383D01*
X137825727Y-80424587D01*
X137881196Y-80583109D01*
X137900000Y-80750000D01*
X137881196Y-80916891D01*
X137825727Y-81075413D01*
X137736374Y-81217617D01*
X137617617Y-81336374D01*
X137475413Y-81425727D01*
X137316891Y-81481196D01*
X137150000Y-81500000D01*
X136983109Y-81481196D01*
X136824587Y-81425727D01*
X136682383Y-81336374D01*
X136563626Y-81217617D01*
X136474273Y-81075413D01*
X136418804Y-80916891D01*
X136400000Y-80750000D01*
X136418804Y-80583109D01*
X136474273Y-80424587D01*
X136563626Y-80282383D01*
X136682383Y-80163626D01*
X136824587Y-80074273D01*
X136983109Y-80018804D01*
X137150000Y-80000000D01*
X137316891Y-80018804D01*
G37*
G36*
X96816613Y-79487653D02*
G01*
X96978949Y-79559929D01*
X97122710Y-79664378D01*
X97241613Y-79796434D01*
X97330463Y-79950325D01*
X97385374Y-80119326D01*
X97403949Y-80296051D01*
X97385374Y-80472776D01*
X97330463Y-80641777D01*
X97241613Y-80795668D01*
X97122710Y-80927724D01*
X96978949Y-81032173D01*
X96816613Y-81104449D01*
X96642798Y-81141395D01*
X96465100Y-81141395D01*
X96291285Y-81104449D01*
X96128949Y-81032173D01*
X95985188Y-80927724D01*
X95866285Y-80795668D01*
X95777435Y-80641777D01*
X95722524Y-80472776D01*
X95703949Y-80296051D01*
X95722524Y-80119326D01*
X95777435Y-79950325D01*
X95866285Y-79796434D01*
X95985188Y-79664378D01*
X96128949Y-79559929D01*
X96291285Y-79487653D01*
X96465100Y-79450707D01*
X96642798Y-79450707D01*
X96816613Y-79487653D01*
G37*
G36*
X145616613Y-79487653D02*
G01*
X145778949Y-79559929D01*
X145922710Y-79664378D01*
X146041613Y-79796434D01*
X146130463Y-79950325D01*
X146185374Y-80119326D01*
X146203949Y-80296051D01*
X146185374Y-80472776D01*
X146130463Y-80641777D01*
X146041613Y-80795668D01*
X145922710Y-80927724D01*
X145778949Y-81032173D01*
X145616613Y-81104449D01*
X145442798Y-81141395D01*
X145265100Y-81141395D01*
X145091285Y-81104449D01*
X144928949Y-81032173D01*
X144785188Y-80927724D01*
X144666285Y-80795668D01*
X144577435Y-80641777D01*
X144522524Y-80472776D01*
X144503949Y-80296051D01*
X144522524Y-80119326D01*
X144577435Y-79950325D01*
X144666285Y-79796434D01*
X144785188Y-79664378D01*
X144928949Y-79559929D01*
X145091285Y-79487653D01*
X145265100Y-79450707D01*
X145442798Y-79450707D01*
X145616613Y-79487653D01*
G37*
G36*
X73862664Y-79441602D02*
G01*
X74025000Y-79513878D01*
X74168761Y-79618327D01*
X74287664Y-79750383D01*
X74376514Y-79904274D01*
X74431425Y-80073275D01*
X74450000Y-80250000D01*
X74431425Y-80426725D01*
X74376514Y-80595726D01*
X74287664Y-80749617D01*
X74168761Y-80881673D01*
X74025000Y-80986122D01*
X73862664Y-81058398D01*
X73688849Y-81095344D01*
X73511151Y-81095344D01*
X73337336Y-81058398D01*
X73175000Y-80986122D01*
X73031239Y-80881673D01*
X72912336Y-80749617D01*
X72823486Y-80595726D01*
X72768575Y-80426725D01*
X72750000Y-80250000D01*
X72768575Y-80073275D01*
X72823486Y-79904274D01*
X72912336Y-79750383D01*
X73031239Y-79618327D01*
X73175000Y-79513878D01*
X73337336Y-79441602D01*
X73511151Y-79404656D01*
X73688849Y-79404656D01*
X73862664Y-79441602D01*
G37*
G36*
X122662664Y-79441602D02*
G01*
X122825000Y-79513878D01*
X122968761Y-79618327D01*
X123087664Y-79750383D01*
X123176514Y-79904274D01*
X123231425Y-80073275D01*
X123250000Y-80250000D01*
X123231425Y-80426725D01*
X123176514Y-80595726D01*
X123087664Y-80749617D01*
X122968761Y-80881673D01*
X122825000Y-80986122D01*
X122662664Y-81058398D01*
X122488849Y-81095344D01*
X122311151Y-81095344D01*
X122137336Y-81058398D01*
X121975000Y-80986122D01*
X121831239Y-80881673D01*
X121712336Y-80749617D01*
X121623486Y-80595726D01*
X121568575Y-80426725D01*
X121550000Y-80250000D01*
X121568575Y-80073275D01*
X121623486Y-79904274D01*
X121712336Y-79750383D01*
X121831239Y-79618327D01*
X121975000Y-79513878D01*
X122137336Y-79441602D01*
X122311151Y-79404656D01*
X122488849Y-79404656D01*
X122662664Y-79441602D01*
G37*
G36*
X98612664Y-77691602D02*
G01*
X98775000Y-77763878D01*
X98918761Y-77868327D01*
X99037664Y-78000383D01*
X99126514Y-78154274D01*
X99181425Y-78323275D01*
X99200000Y-78500000D01*
X99181425Y-78676725D01*
X99126514Y-78845726D01*
X99037664Y-78999617D01*
X98918761Y-79131673D01*
X98775000Y-79236122D01*
X98612664Y-79308398D01*
X98438849Y-79345344D01*
X98261151Y-79345344D01*
X98087336Y-79308398D01*
X97925000Y-79236122D01*
X97781239Y-79131673D01*
X97662336Y-78999617D01*
X97573486Y-78845726D01*
X97518575Y-78676725D01*
X97500000Y-78500000D01*
X97518575Y-78323275D01*
X97573486Y-78154274D01*
X97662336Y-78000383D01*
X97781239Y-77868327D01*
X97925000Y-77763878D01*
X98087336Y-77691602D01*
X98261151Y-77654656D01*
X98438849Y-77654656D01*
X98612664Y-77691602D01*
G37*
G36*
X147412664Y-77691602D02*
G01*
X147575000Y-77763878D01*
X147718761Y-77868327D01*
X147837664Y-78000383D01*
X147926514Y-78154274D01*
X147981425Y-78323275D01*
X148000000Y-78500000D01*
X147981425Y-78676725D01*
X147926514Y-78845726D01*
X147837664Y-78999617D01*
X147718761Y-79131673D01*
X147575000Y-79236122D01*
X147412664Y-79308398D01*
X147238849Y-79345344D01*
X147061151Y-79345344D01*
X146887336Y-79308398D01*
X146725000Y-79236122D01*
X146581239Y-79131673D01*
X146462336Y-78999617D01*
X146373486Y-78845726D01*
X146318575Y-78676725D01*
X146300000Y-78500000D01*
X146318575Y-78323275D01*
X146373486Y-78154274D01*
X146462336Y-78000383D01*
X146581239Y-77868327D01*
X146725000Y-77763878D01*
X146887336Y-77691602D01*
X147061151Y-77654656D01*
X147238849Y-77654656D01*
X147412664Y-77691602D01*
G37*
G36*
X72066613Y-77645551D02*
G01*
X72228949Y-77717827D01*
X72372710Y-77822276D01*
X72491613Y-77954332D01*
X72580463Y-78108223D01*
X72635374Y-78277224D01*
X72653949Y-78453949D01*
X72635374Y-78630674D01*
X72580463Y-78799675D01*
X72491613Y-78953566D01*
X72372710Y-79085622D01*
X72228949Y-79190071D01*
X72066613Y-79262347D01*
X71892798Y-79299293D01*
X71715100Y-79299293D01*
X71541285Y-79262347D01*
X71378949Y-79190071D01*
X71235188Y-79085622D01*
X71116285Y-78953566D01*
X71027435Y-78799675D01*
X70972524Y-78630674D01*
X70953949Y-78453949D01*
X70972524Y-78277224D01*
X71027435Y-78108223D01*
X71116285Y-77954332D01*
X71235188Y-77822276D01*
X71378949Y-77717827D01*
X71541285Y-77645551D01*
X71715100Y-77608605D01*
X71892798Y-77608605D01*
X72066613Y-77645551D01*
G37*
G36*
X120866613Y-77645551D02*
G01*
X121028949Y-77717827D01*
X121172710Y-77822276D01*
X121291613Y-77954332D01*
X121380463Y-78108223D01*
X121435374Y-78277224D01*
X121453949Y-78453949D01*
X121435374Y-78630674D01*
X121380463Y-78799675D01*
X121291613Y-78953566D01*
X121172710Y-79085622D01*
X121028949Y-79190071D01*
X120866613Y-79262347D01*
X120692798Y-79299293D01*
X120515100Y-79299293D01*
X120341285Y-79262347D01*
X120178949Y-79190071D01*
X120035188Y-79085622D01*
X119916285Y-78953566D01*
X119827435Y-78799675D01*
X119772524Y-78630674D01*
X119753949Y-78453949D01*
X119772524Y-78277224D01*
X119827435Y-78108223D01*
X119916285Y-77954332D01*
X120035188Y-77822276D01*
X120178949Y-77717827D01*
X120341285Y-77645551D01*
X120515100Y-77608605D01*
X120692798Y-77608605D01*
X120866613Y-77645551D01*
G37*
G36*
X101348133Y-76703949D02*
G01*
X100146051Y-77906031D01*
X98943969Y-76703949D01*
X100146051Y-75501867D01*
X101348133Y-76703949D01*
G37*
G36*
X150148133Y-76703949D02*
G01*
X148946051Y-77906031D01*
X147743969Y-76703949D01*
X148946051Y-75501867D01*
X150148133Y-76703949D01*
G37*
G36*
X71209980Y-76657898D02*
G01*
X70007898Y-77859980D01*
X68805816Y-76657898D01*
X70007898Y-75455816D01*
X71209980Y-76657898D01*
G37*
G36*
X120009980Y-76657898D02*
G01*
X118807898Y-77859980D01*
X117605816Y-76657898D01*
X118807898Y-75455816D01*
X120009980Y-76657898D01*
G37*
G36*
X82600000Y-77000000D02*
G01*
X81100000Y-77000000D01*
X81100000Y-75500000D01*
X82600000Y-75500000D01*
X82600000Y-77000000D01*
G37*
G36*
X88516891Y-75518804D02*
G01*
X88675413Y-75574273D01*
X88817617Y-75663626D01*
X88936374Y-75782383D01*
X89025727Y-75924587D01*
X89081196Y-76083109D01*
X89100000Y-76250000D01*
X89081196Y-76416891D01*
X89025727Y-76575413D01*
X88936374Y-76717617D01*
X88817617Y-76836374D01*
X88675413Y-76925727D01*
X88516891Y-76981196D01*
X88350000Y-77000000D01*
X88183109Y-76981196D01*
X88024587Y-76925727D01*
X87882383Y-76836374D01*
X87763626Y-76717617D01*
X87674273Y-76575413D01*
X87618804Y-76416891D01*
X87600000Y-76250000D01*
X87618804Y-76083109D01*
X87674273Y-75924587D01*
X87763626Y-75782383D01*
X87882383Y-75663626D01*
X88024587Y-75574273D01*
X88183109Y-75518804D01*
X88350000Y-75500000D01*
X88516891Y-75518804D01*
G37*
G36*
X131400000Y-77000000D02*
G01*
X129900000Y-77000000D01*
X129900000Y-75500000D01*
X131400000Y-75500000D01*
X131400000Y-77000000D01*
G37*
G36*
X137316891Y-75518804D02*
G01*
X137475413Y-75574273D01*
X137617617Y-75663626D01*
X137736374Y-75782383D01*
X137825727Y-75924587D01*
X137881196Y-76083109D01*
X137900000Y-76250000D01*
X137881196Y-76416891D01*
X137825727Y-76575413D01*
X137736374Y-76717617D01*
X137617617Y-76836374D01*
X137475413Y-76925727D01*
X137316891Y-76981196D01*
X137150000Y-77000000D01*
X136983109Y-76981196D01*
X136824587Y-76925727D01*
X136682383Y-76836374D01*
X136563626Y-76717617D01*
X136474273Y-76575413D01*
X136418804Y-76416891D01*
X136400000Y-76250000D01*
X136418804Y-76083109D01*
X136474273Y-75924587D01*
X136563626Y-75782383D01*
X136682383Y-75663626D01*
X136824587Y-75574273D01*
X136983109Y-75518804D01*
X137150000Y-75500000D01*
X137316891Y-75518804D01*
G37*
G36*
X71766891Y-69768804D02*
G01*
X71925413Y-69824273D01*
X72067617Y-69913626D01*
X72186374Y-70032383D01*
X72275727Y-70174587D01*
X72331196Y-70333109D01*
X72350000Y-70500000D01*
X72331196Y-70666891D01*
X72275727Y-70825413D01*
X72186374Y-70967617D01*
X72067617Y-71086374D01*
X71925413Y-71175727D01*
X71766891Y-71231196D01*
X71600000Y-71250000D01*
X71433109Y-71231196D01*
X71274587Y-71175727D01*
X71132383Y-71086374D01*
X71013626Y-70967617D01*
X70924273Y-70825413D01*
X70868804Y-70666891D01*
X70850000Y-70500000D01*
X70868804Y-70333109D01*
X70924273Y-70174587D01*
X71013626Y-70032383D01*
X71132383Y-69913626D01*
X71274587Y-69824273D01*
X71433109Y-69768804D01*
X71600000Y-69750000D01*
X71766891Y-69768804D01*
G37*
G36*
X76266891Y-69768804D02*
G01*
X76425413Y-69824273D01*
X76567617Y-69913626D01*
X76686374Y-70032383D01*
X76775727Y-70174587D01*
X76831196Y-70333109D01*
X76850000Y-70500000D01*
X76831196Y-70666891D01*
X76775727Y-70825413D01*
X76686374Y-70967617D01*
X76567617Y-71086374D01*
X76425413Y-71175727D01*
X76266891Y-71231196D01*
X76100000Y-71250000D01*
X75933109Y-71231196D01*
X75774587Y-71175727D01*
X75632383Y-71086374D01*
X75513626Y-70967617D01*
X75424273Y-70825413D01*
X75368804Y-70666891D01*
X75350000Y-70500000D01*
X75368804Y-70333109D01*
X75424273Y-70174587D01*
X75513626Y-70032383D01*
X75632383Y-69913626D01*
X75774587Y-69824273D01*
X75933109Y-69768804D01*
X76100000Y-69750000D01*
X76266891Y-69768804D01*
G37*
G36*
X120566891Y-69768804D02*
G01*
X120725413Y-69824273D01*
X120867617Y-69913626D01*
X120986374Y-70032383D01*
X121075727Y-70174587D01*
X121131196Y-70333109D01*
X121150000Y-70500000D01*
X121131196Y-70666891D01*
X121075727Y-70825413D01*
X120986374Y-70967617D01*
X120867617Y-71086374D01*
X120725413Y-71175727D01*
X120566891Y-71231196D01*
X120400000Y-71250000D01*
X120233109Y-71231196D01*
X120074587Y-71175727D01*
X119932383Y-71086374D01*
X119813626Y-70967617D01*
X119724273Y-70825413D01*
X119668804Y-70666891D01*
X119650000Y-70500000D01*
X119668804Y-70333109D01*
X119724273Y-70174587D01*
X119813626Y-70032383D01*
X119932383Y-69913626D01*
X120074587Y-69824273D01*
X120233109Y-69768804D01*
X120400000Y-69750000D01*
X120566891Y-69768804D01*
G37*
G36*
X125066891Y-69768804D02*
G01*
X125225413Y-69824273D01*
X125367617Y-69913626D01*
X125486374Y-70032383D01*
X125575727Y-70174587D01*
X125631196Y-70333109D01*
X125650000Y-70500000D01*
X125631196Y-70666891D01*
X125575727Y-70825413D01*
X125486374Y-70967617D01*
X125367617Y-71086374D01*
X125225413Y-71175727D01*
X125066891Y-71231196D01*
X124900000Y-71250000D01*
X124733109Y-71231196D01*
X124574587Y-71175727D01*
X124432383Y-71086374D01*
X124313626Y-70967617D01*
X124224273Y-70825413D01*
X124168804Y-70666891D01*
X124150000Y-70500000D01*
X124168804Y-70333109D01*
X124224273Y-70174587D01*
X124313626Y-70032383D01*
X124432383Y-69913626D01*
X124574587Y-69824273D01*
X124733109Y-69768804D01*
X124900000Y-69750000D01*
X125066891Y-69768804D01*
G37*
G36*
X94850000Y-71000000D02*
G01*
X93350000Y-71000000D01*
X93350000Y-69500000D01*
X94850000Y-69500000D01*
X94850000Y-71000000D01*
G37*
G36*
X98766891Y-69518804D02*
G01*
X98925413Y-69574273D01*
X99067617Y-69663626D01*
X99186374Y-69782383D01*
X99275727Y-69924587D01*
X99331196Y-70083109D01*
X99350000Y-70250000D01*
X99331196Y-70416891D01*
X99275727Y-70575413D01*
X99186374Y-70717617D01*
X99067617Y-70836374D01*
X98925413Y-70925727D01*
X98766891Y-70981196D01*
X98600000Y-71000000D01*
X98433109Y-70981196D01*
X98274587Y-70925727D01*
X98132383Y-70836374D01*
X98013626Y-70717617D01*
X97924273Y-70575413D01*
X97868804Y-70416891D01*
X97850000Y-70250000D01*
X97868804Y-70083109D01*
X97924273Y-69924587D01*
X98013626Y-69782383D01*
X98132383Y-69663626D01*
X98274587Y-69574273D01*
X98433109Y-69518804D01*
X98600000Y-69500000D01*
X98766891Y-69518804D01*
G37*
G36*
X143650000Y-71000000D02*
G01*
X142150000Y-71000000D01*
X142150000Y-69500000D01*
X143650000Y-69500000D01*
X143650000Y-71000000D01*
G37*
G36*
X147566891Y-69518804D02*
G01*
X147725413Y-69574273D01*
X147867617Y-69663626D01*
X147986374Y-69782383D01*
X148075727Y-69924587D01*
X148131196Y-70083109D01*
X148150000Y-70250000D01*
X148131196Y-70416891D01*
X148075727Y-70575413D01*
X147986374Y-70717617D01*
X147867617Y-70836374D01*
X147725413Y-70925727D01*
X147566891Y-70981196D01*
X147400000Y-71000000D01*
X147233109Y-70981196D01*
X147074587Y-70925727D01*
X146932383Y-70836374D01*
X146813626Y-70717617D01*
X146724273Y-70575413D01*
X146668804Y-70416891D01*
X146650000Y-70250000D01*
X146668804Y-70083109D01*
X146724273Y-69924587D01*
X146813626Y-69782383D01*
X146932383Y-69663626D01*
X147074587Y-69574273D01*
X147233109Y-69518804D01*
X147400000Y-69500000D01*
X147566891Y-69518804D01*
G37*
G36*
X108773679Y-67504710D02*
G01*
X108793251Y-67504710D01*
X108816838Y-67513294D01*
X108845671Y-67519030D01*
X108861314Y-67529482D01*
X108874537Y-67534295D01*
X108898071Y-67554042D01*
X108926777Y-67573223D01*
X108934239Y-67584390D01*
X108940801Y-67589897D01*
X108959127Y-67621639D01*
X108980970Y-67654329D01*
X108982530Y-67662173D01*
X108984053Y-67664811D01*
X108991840Y-67708980D01*
X109000000Y-67750000D01*
X108991838Y-67791030D01*
X108984053Y-67835188D01*
X108982530Y-67837824D01*
X108980970Y-67845671D01*
X108959123Y-67878366D01*
X108940801Y-67910102D01*
X108934240Y-67915606D01*
X108926777Y-67926777D01*
X108898065Y-67945961D01*
X108874537Y-67965704D01*
X108861316Y-67970515D01*
X108845671Y-67980970D01*
X108816836Y-67986705D01*
X108793251Y-67995290D01*
X108773679Y-67995290D01*
X108750000Y-68000000D01*
X108726321Y-67995290D01*
X108706749Y-67995290D01*
X108683162Y-67986705D01*
X108654329Y-67980970D01*
X108638684Y-67970516D01*
X108625462Y-67965704D01*
X108601929Y-67945958D01*
X108573223Y-67926777D01*
X108565760Y-67915608D01*
X108559198Y-67910102D01*
X108540869Y-67878355D01*
X108519030Y-67845671D01*
X108517469Y-67837827D01*
X108515946Y-67835188D01*
X108508152Y-67790986D01*
X108500000Y-67750000D01*
X108508150Y-67709025D01*
X108515946Y-67664811D01*
X108517470Y-67662171D01*
X108519030Y-67654329D01*
X108540864Y-67621651D01*
X108559199Y-67589895D01*
X108565763Y-67584386D01*
X108573223Y-67573223D01*
X108601922Y-67554046D01*
X108625461Y-67534296D01*
X108638684Y-67529483D01*
X108654329Y-67519030D01*
X108683163Y-67513294D01*
X108706750Y-67504710D01*
X108726321Y-67504710D01*
X108750000Y-67500000D01*
X108773679Y-67504710D01*
G37*
G36*
X110273679Y-67504710D02*
G01*
X110293251Y-67504710D01*
X110316838Y-67513294D01*
X110345671Y-67519030D01*
X110361314Y-67529482D01*
X110374537Y-67534295D01*
X110398071Y-67554042D01*
X110426777Y-67573223D01*
X110434239Y-67584390D01*
X110440801Y-67589897D01*
X110459127Y-67621639D01*
X110480970Y-67654329D01*
X110482530Y-67662173D01*
X110484053Y-67664811D01*
X110491840Y-67708976D01*
X110500000Y-67750000D01*
X110491839Y-67791026D01*
X110484053Y-67835188D01*
X110482530Y-67837824D01*
X110480970Y-67845671D01*
X110459123Y-67878366D01*
X110440801Y-67910102D01*
X110434240Y-67915606D01*
X110426777Y-67926777D01*
X110398065Y-67945961D01*
X110374537Y-67965704D01*
X110361316Y-67970515D01*
X110345671Y-67980970D01*
X110316836Y-67986705D01*
X110293251Y-67995290D01*
X110273679Y-67995290D01*
X110250000Y-68000000D01*
X110226321Y-67995290D01*
X110206749Y-67995290D01*
X110183162Y-67986705D01*
X110154329Y-67980970D01*
X110138684Y-67970516D01*
X110125462Y-67965704D01*
X110101929Y-67945958D01*
X110073223Y-67926777D01*
X110065760Y-67915608D01*
X110059198Y-67910102D01*
X110040869Y-67878355D01*
X110019030Y-67845671D01*
X110017469Y-67837827D01*
X110015946Y-67835188D01*
X110008151Y-67790982D01*
X110000000Y-67750000D01*
X110008151Y-67709021D01*
X110015946Y-67664811D01*
X110017470Y-67662171D01*
X110019030Y-67654329D01*
X110040864Y-67621651D01*
X110059199Y-67589895D01*
X110065763Y-67584386D01*
X110073223Y-67573223D01*
X110101922Y-67554046D01*
X110125461Y-67534296D01*
X110138684Y-67529483D01*
X110154329Y-67519030D01*
X110183163Y-67513294D01*
X110206750Y-67504710D01*
X110226321Y-67504710D01*
X110250000Y-67500000D01*
X110273679Y-67504710D01*
G37*
G36*
X108773679Y-66754710D02*
G01*
X108793251Y-66754710D01*
X108816838Y-66763294D01*
X108845671Y-66769030D01*
X108861314Y-66779482D01*
X108874537Y-66784295D01*
X108898071Y-66804042D01*
X108926777Y-66823223D01*
X108934239Y-66834390D01*
X108940801Y-66839897D01*
X108959127Y-66871639D01*
X108980970Y-66904329D01*
X108982530Y-66912173D01*
X108984053Y-66914811D01*
X108991840Y-66958980D01*
X109000000Y-67000000D01*
X108991838Y-67041030D01*
X108984053Y-67085188D01*
X108982530Y-67087824D01*
X108980970Y-67095671D01*
X108959123Y-67128366D01*
X108940801Y-67160102D01*
X108934240Y-67165606D01*
X108926777Y-67176777D01*
X108898065Y-67195961D01*
X108874537Y-67215704D01*
X108861316Y-67220515D01*
X108845671Y-67230970D01*
X108816836Y-67236705D01*
X108793251Y-67245290D01*
X108773679Y-67245290D01*
X108750000Y-67250000D01*
X108726321Y-67245290D01*
X108706749Y-67245290D01*
X108683162Y-67236705D01*
X108654329Y-67230970D01*
X108638684Y-67220516D01*
X108625462Y-67215704D01*
X108601929Y-67195958D01*
X108573223Y-67176777D01*
X108565760Y-67165608D01*
X108559198Y-67160102D01*
X108540869Y-67128355D01*
X108519030Y-67095671D01*
X108517469Y-67087827D01*
X108515946Y-67085188D01*
X108508151Y-67040982D01*
X108500000Y-67000000D01*
X108508151Y-66959021D01*
X108515946Y-66914811D01*
X108517470Y-66912171D01*
X108519030Y-66904329D01*
X108540864Y-66871651D01*
X108559199Y-66839895D01*
X108565763Y-66834386D01*
X108573223Y-66823223D01*
X108601922Y-66804046D01*
X108625461Y-66784296D01*
X108638684Y-66779483D01*
X108654329Y-66769030D01*
X108683163Y-66763294D01*
X108706750Y-66754710D01*
X108726321Y-66754710D01*
X108750000Y-66750000D01*
X108773679Y-66754710D01*
G37*
G36*
X110273679Y-66754710D02*
G01*
X110293251Y-66754710D01*
X110316838Y-66763294D01*
X110345671Y-66769030D01*
X110361314Y-66779482D01*
X110374537Y-66784295D01*
X110398071Y-66804042D01*
X110426777Y-66823223D01*
X110434239Y-66834390D01*
X110440801Y-66839897D01*
X110459127Y-66871639D01*
X110480970Y-66904329D01*
X110482530Y-66912173D01*
X110484053Y-66914811D01*
X110491840Y-66958976D01*
X110500000Y-67000000D01*
X110491839Y-67041026D01*
X110484053Y-67085188D01*
X110482530Y-67087824D01*
X110480970Y-67095671D01*
X110459123Y-67128366D01*
X110440801Y-67160102D01*
X110434240Y-67165606D01*
X110426777Y-67176777D01*
X110398065Y-67195961D01*
X110374537Y-67215704D01*
X110361316Y-67220515D01*
X110345671Y-67230970D01*
X110316836Y-67236705D01*
X110293251Y-67245290D01*
X110273679Y-67245290D01*
X110250000Y-67250000D01*
X110226321Y-67245290D01*
X110206749Y-67245290D01*
X110183162Y-67236705D01*
X110154329Y-67230970D01*
X110138684Y-67220516D01*
X110125462Y-67215704D01*
X110101929Y-67195958D01*
X110073223Y-67176777D01*
X110065760Y-67165608D01*
X110059198Y-67160102D01*
X110040869Y-67128355D01*
X110019030Y-67095671D01*
X110017469Y-67087827D01*
X110015946Y-67085188D01*
X110008151Y-67040982D01*
X110000000Y-67000000D01*
X110008151Y-66959021D01*
X110015946Y-66914811D01*
X110017470Y-66912171D01*
X110019030Y-66904329D01*
X110040864Y-66871651D01*
X110059199Y-66839895D01*
X110065763Y-66834386D01*
X110073223Y-66823223D01*
X110101922Y-66804046D01*
X110125461Y-66784296D01*
X110138684Y-66779483D01*
X110154329Y-66769030D01*
X110183163Y-66763294D01*
X110206750Y-66754710D01*
X110226321Y-66754710D01*
X110250000Y-66750000D01*
X110273679Y-66754710D01*
G37*
G36*
X108773679Y-66004710D02*
G01*
X108793251Y-66004710D01*
X108816838Y-66013294D01*
X108845671Y-66019030D01*
X108861314Y-66029482D01*
X108874537Y-66034295D01*
X108898071Y-66054042D01*
X108926777Y-66073223D01*
X108934239Y-66084390D01*
X108940801Y-66089897D01*
X108959127Y-66121639D01*
X108980970Y-66154329D01*
X108982530Y-66162173D01*
X108984053Y-66164811D01*
X108991840Y-66208980D01*
X109000000Y-66250000D01*
X108991838Y-66291030D01*
X108984053Y-66335188D01*
X108982530Y-66337824D01*
X108980970Y-66345671D01*
X108959123Y-66378366D01*
X108940801Y-66410102D01*
X108934240Y-66415606D01*
X108926777Y-66426777D01*
X108898065Y-66445961D01*
X108874537Y-66465704D01*
X108861316Y-66470515D01*
X108845671Y-66480970D01*
X108816836Y-66486705D01*
X108793251Y-66495290D01*
X108773679Y-66495290D01*
X108750000Y-66500000D01*
X108726321Y-66495290D01*
X108706749Y-66495290D01*
X108683162Y-66486705D01*
X108654329Y-66480970D01*
X108638684Y-66470516D01*
X108625462Y-66465704D01*
X108601929Y-66445958D01*
X108573223Y-66426777D01*
X108565760Y-66415608D01*
X108559198Y-66410102D01*
X108540869Y-66378355D01*
X108519030Y-66345671D01*
X108517469Y-66337827D01*
X108515946Y-66335188D01*
X108508152Y-66290986D01*
X108500000Y-66250000D01*
X108508150Y-66209025D01*
X108515946Y-66164811D01*
X108517470Y-66162171D01*
X108519030Y-66154329D01*
X108540864Y-66121651D01*
X108559199Y-66089895D01*
X108565763Y-66084386D01*
X108573223Y-66073223D01*
X108601922Y-66054046D01*
X108625461Y-66034296D01*
X108638684Y-66029483D01*
X108654329Y-66019030D01*
X108683163Y-66013294D01*
X108706750Y-66004710D01*
X108726321Y-66004710D01*
X108750000Y-66000000D01*
X108773679Y-66004710D01*
G37*
G36*
X110273679Y-66004710D02*
G01*
X110293251Y-66004710D01*
X110316838Y-66013294D01*
X110345671Y-66019030D01*
X110361314Y-66029482D01*
X110374537Y-66034295D01*
X110398071Y-66054042D01*
X110426777Y-66073223D01*
X110434239Y-66084390D01*
X110440801Y-66089897D01*
X110459127Y-66121639D01*
X110480970Y-66154329D01*
X110482530Y-66162173D01*
X110484053Y-66164811D01*
X110491840Y-66208976D01*
X110500000Y-66250000D01*
X110491839Y-66291026D01*
X110484053Y-66335188D01*
X110482530Y-66337824D01*
X110480970Y-66345671D01*
X110459123Y-66378366D01*
X110440801Y-66410102D01*
X110434240Y-66415606D01*
X110426777Y-66426777D01*
X110398065Y-66445961D01*
X110374537Y-66465704D01*
X110361316Y-66470515D01*
X110345671Y-66480970D01*
X110316836Y-66486705D01*
X110293251Y-66495290D01*
X110273679Y-66495290D01*
X110250000Y-66500000D01*
X110226321Y-66495290D01*
X110206749Y-66495290D01*
X110183162Y-66486705D01*
X110154329Y-66480970D01*
X110138684Y-66470516D01*
X110125462Y-66465704D01*
X110101929Y-66445958D01*
X110073223Y-66426777D01*
X110065760Y-66415608D01*
X110059198Y-66410102D01*
X110040869Y-66378355D01*
X110019030Y-66345671D01*
X110017469Y-66337827D01*
X110015946Y-66335188D01*
X110008151Y-66290982D01*
X110000000Y-66250000D01*
X110008151Y-66209021D01*
X110015946Y-66164811D01*
X110017470Y-66162171D01*
X110019030Y-66154329D01*
X110040864Y-66121651D01*
X110059199Y-66089895D01*
X110065763Y-66084386D01*
X110073223Y-66073223D01*
X110101922Y-66054046D01*
X110125461Y-66034296D01*
X110138684Y-66029483D01*
X110154329Y-66019030D01*
X110183163Y-66013294D01*
X110206750Y-66004710D01*
X110226321Y-66004710D01*
X110250000Y-66000000D01*
X110273679Y-66004710D01*
G37*
G36*
X71766891Y-63268804D02*
G01*
X71925413Y-63324273D01*
X72067617Y-63413626D01*
X72186374Y-63532383D01*
X72275727Y-63674587D01*
X72331196Y-63833109D01*
X72350000Y-64000000D01*
X72331196Y-64166891D01*
X72275727Y-64325413D01*
X72186374Y-64467617D01*
X72067617Y-64586374D01*
X71925413Y-64675727D01*
X71766891Y-64731196D01*
X71600000Y-64750000D01*
X71433109Y-64731196D01*
X71274587Y-64675727D01*
X71132383Y-64586374D01*
X71013626Y-64467617D01*
X70924273Y-64325413D01*
X70868804Y-64166891D01*
X70850000Y-64000000D01*
X70868804Y-63833109D01*
X70924273Y-63674587D01*
X71013626Y-63532383D01*
X71132383Y-63413626D01*
X71274587Y-63324273D01*
X71433109Y-63268804D01*
X71600000Y-63250000D01*
X71766891Y-63268804D01*
G37*
G36*
X76850000Y-64750000D02*
G01*
X75350000Y-64750000D01*
X75350000Y-63250000D01*
X76850000Y-63250000D01*
X76850000Y-64750000D01*
G37*
G36*
X120566891Y-63268804D02*
G01*
X120725413Y-63324273D01*
X120867617Y-63413626D01*
X120986374Y-63532383D01*
X121075727Y-63674587D01*
X121131196Y-63833109D01*
X121150000Y-64000000D01*
X121131196Y-64166891D01*
X121075727Y-64325413D01*
X120986374Y-64467617D01*
X120867617Y-64586374D01*
X120725413Y-64675727D01*
X120566891Y-64731196D01*
X120400000Y-64750000D01*
X120233109Y-64731196D01*
X120074587Y-64675727D01*
X119932383Y-64586374D01*
X119813626Y-64467617D01*
X119724273Y-64325413D01*
X119668804Y-64166891D01*
X119650000Y-64000000D01*
X119668804Y-63833109D01*
X119724273Y-63674587D01*
X119813626Y-63532383D01*
X119932383Y-63413626D01*
X120074587Y-63324273D01*
X120233109Y-63268804D01*
X120400000Y-63250000D01*
X120566891Y-63268804D01*
G37*
G36*
X125650000Y-64750000D02*
G01*
X124150000Y-64750000D01*
X124150000Y-63250000D01*
X125650000Y-63250000D01*
X125650000Y-64750000D01*
G37*
G36*
X94266891Y-63018804D02*
G01*
X94425413Y-63074273D01*
X94567617Y-63163626D01*
X94686374Y-63282383D01*
X94775727Y-63424587D01*
X94831196Y-63583109D01*
X94850000Y-63750000D01*
X94831196Y-63916891D01*
X94775727Y-64075413D01*
X94686374Y-64217617D01*
X94567617Y-64336374D01*
X94425413Y-64425727D01*
X94266891Y-64481196D01*
X94100000Y-64500000D01*
X93933109Y-64481196D01*
X93774587Y-64425727D01*
X93632383Y-64336374D01*
X93513626Y-64217617D01*
X93424273Y-64075413D01*
X93368804Y-63916891D01*
X93350000Y-63750000D01*
X93368804Y-63583109D01*
X93424273Y-63424587D01*
X93513626Y-63282383D01*
X93632383Y-63163626D01*
X93774587Y-63074273D01*
X93933109Y-63018804D01*
X94100000Y-63000000D01*
X94266891Y-63018804D01*
G37*
G36*
X98766891Y-63018804D02*
G01*
X98925413Y-63074273D01*
X99067617Y-63163626D01*
X99186374Y-63282383D01*
X99275727Y-63424587D01*
X99331196Y-63583109D01*
X99350000Y-63750000D01*
X99331196Y-63916891D01*
X99275727Y-64075413D01*
X99186374Y-64217617D01*
X99067617Y-64336374D01*
X98925413Y-64425727D01*
X98766891Y-64481196D01*
X98600000Y-64500000D01*
X98433109Y-64481196D01*
X98274587Y-64425727D01*
X98132383Y-64336374D01*
X98013626Y-64217617D01*
X97924273Y-64075413D01*
X97868804Y-63916891D01*
X97850000Y-63750000D01*
X97868804Y-63583109D01*
X97924273Y-63424587D01*
X98013626Y-63282383D01*
X98132383Y-63163626D01*
X98274587Y-63074273D01*
X98433109Y-63018804D01*
X98600000Y-63000000D01*
X98766891Y-63018804D01*
G37*
G36*
X143066891Y-63018804D02*
G01*
X143225413Y-63074273D01*
X143367617Y-63163626D01*
X143486374Y-63282383D01*
X143575727Y-63424587D01*
X143631196Y-63583109D01*
X143650000Y-63750000D01*
X143631196Y-63916891D01*
X143575727Y-64075413D01*
X143486374Y-64217617D01*
X143367617Y-64336374D01*
X143225413Y-64425727D01*
X143066891Y-64481196D01*
X142900000Y-64500000D01*
X142733109Y-64481196D01*
X142574587Y-64425727D01*
X142432383Y-64336374D01*
X142313626Y-64217617D01*
X142224273Y-64075413D01*
X142168804Y-63916891D01*
X142150000Y-63750000D01*
X142168804Y-63583109D01*
X142224273Y-63424587D01*
X142313626Y-63282383D01*
X142432383Y-63163626D01*
X142574587Y-63074273D01*
X142733109Y-63018804D01*
X142900000Y-63000000D01*
X143066891Y-63018804D01*
G37*
G36*
X147566891Y-63018804D02*
G01*
X147725413Y-63074273D01*
X147867617Y-63163626D01*
X147986374Y-63282383D01*
X148075727Y-63424587D01*
X148131196Y-63583109D01*
X148150000Y-63750000D01*
X148131196Y-63916891D01*
X148075727Y-64075413D01*
X147986374Y-64217617D01*
X147867617Y-64336374D01*
X147725413Y-64425727D01*
X147566891Y-64481196D01*
X147400000Y-64500000D01*
X147233109Y-64481196D01*
X147074587Y-64425727D01*
X146932383Y-64336374D01*
X146813626Y-64217617D01*
X146724273Y-64075413D01*
X146668804Y-63916891D01*
X146650000Y-63750000D01*
X146668804Y-63583109D01*
X146724273Y-63424587D01*
X146813626Y-63282383D01*
X146932383Y-63163626D01*
X147074587Y-63074273D01*
X147233109Y-63018804D01*
X147400000Y-63000000D01*
X147566891Y-63018804D01*
G37*
G36*
X82016891Y-57268804D02*
G01*
X82175413Y-57324273D01*
X82317617Y-57413626D01*
X82436374Y-57532383D01*
X82525727Y-57674587D01*
X82581196Y-57833109D01*
X82600000Y-58000000D01*
X82581196Y-58166891D01*
X82525727Y-58325413D01*
X82436374Y-58467617D01*
X82317617Y-58586374D01*
X82175413Y-58675727D01*
X82016891Y-58731196D01*
X81850000Y-58750000D01*
X81683109Y-58731196D01*
X81524587Y-58675727D01*
X81382383Y-58586374D01*
X81263626Y-58467617D01*
X81174273Y-58325413D01*
X81118804Y-58166891D01*
X81100000Y-58000000D01*
X81118804Y-57833109D01*
X81174273Y-57674587D01*
X81263626Y-57532383D01*
X81382383Y-57413626D01*
X81524587Y-57324273D01*
X81683109Y-57268804D01*
X81850000Y-57250000D01*
X82016891Y-57268804D01*
G37*
G36*
X89100000Y-58750000D02*
G01*
X87600000Y-58750000D01*
X87600000Y-57250000D01*
X89100000Y-57250000D01*
X89100000Y-58750000D01*
G37*
G36*
X130816891Y-57268804D02*
G01*
X130975413Y-57324273D01*
X131117617Y-57413626D01*
X131236374Y-57532383D01*
X131325727Y-57674587D01*
X131381196Y-57833109D01*
X131400000Y-58000000D01*
X131381196Y-58166891D01*
X131325727Y-58325413D01*
X131236374Y-58467617D01*
X131117617Y-58586374D01*
X130975413Y-58675727D01*
X130816891Y-58731196D01*
X130650000Y-58750000D01*
X130483109Y-58731196D01*
X130324587Y-58675727D01*
X130182383Y-58586374D01*
X130063626Y-58467617D01*
X129974273Y-58325413D01*
X129918804Y-58166891D01*
X129900000Y-58000000D01*
X129918804Y-57833109D01*
X129974273Y-57674587D01*
X130063626Y-57532383D01*
X130182383Y-57413626D01*
X130324587Y-57324273D01*
X130483109Y-57268804D01*
X130650000Y-57250000D01*
X130816891Y-57268804D01*
G37*
G36*
X137900000Y-58750000D02*
G01*
X136400000Y-58750000D01*
X136400000Y-57250000D01*
X137900000Y-57250000D01*
X137900000Y-58750000D01*
G37*
G36*
X74450000Y-57350000D02*
G01*
X72750000Y-57350000D01*
X72750000Y-55650000D01*
X74450000Y-55650000D01*
X74450000Y-57350000D01*
G37*
G36*
X123250000Y-57350000D02*
G01*
X121550000Y-57350000D01*
X121550000Y-55650000D01*
X123250000Y-55650000D01*
X123250000Y-57350000D01*
G37*
G36*
X71322664Y-55691602D02*
G01*
X71485000Y-55763878D01*
X71628761Y-55868327D01*
X71747664Y-56000383D01*
X71836514Y-56154274D01*
X71891425Y-56323275D01*
X71910000Y-56500000D01*
X71891425Y-56676725D01*
X71836514Y-56845726D01*
X71747664Y-56999617D01*
X71628761Y-57131673D01*
X71485000Y-57236122D01*
X71322664Y-57308398D01*
X71148849Y-57345344D01*
X70971151Y-57345344D01*
X70797336Y-57308398D01*
X70635000Y-57236122D01*
X70491239Y-57131673D01*
X70372336Y-56999617D01*
X70283486Y-56845726D01*
X70228575Y-56676725D01*
X70210000Y-56500000D01*
X70228575Y-56323275D01*
X70283486Y-56154274D01*
X70372336Y-56000383D01*
X70491239Y-55868327D01*
X70635000Y-55763878D01*
X70797336Y-55691602D01*
X70971151Y-55654656D01*
X71148849Y-55654656D01*
X71322664Y-55691602D01*
G37*
G36*
X120122664Y-55691602D02*
G01*
X120285000Y-55763878D01*
X120428761Y-55868327D01*
X120547664Y-56000383D01*
X120636514Y-56154274D01*
X120691425Y-56323275D01*
X120710000Y-56500000D01*
X120691425Y-56676725D01*
X120636514Y-56845726D01*
X120547664Y-56999617D01*
X120428761Y-57131673D01*
X120285000Y-57236122D01*
X120122664Y-57308398D01*
X119948849Y-57345344D01*
X119771151Y-57345344D01*
X119597336Y-57308398D01*
X119435000Y-57236122D01*
X119291239Y-57131673D01*
X119172336Y-56999617D01*
X119083486Y-56845726D01*
X119028575Y-56676725D01*
X119010000Y-56500000D01*
X119028575Y-56323275D01*
X119083486Y-56154274D01*
X119172336Y-56000383D01*
X119291239Y-55868327D01*
X119435000Y-55763878D01*
X119597336Y-55691602D01*
X119771151Y-55654656D01*
X119948849Y-55654656D01*
X120122664Y-55691602D01*
G37*
G36*
X102540213Y-53043734D02*
G01*
X102723116Y-53099217D01*
X102891681Y-53189317D01*
X103039429Y-53310571D01*
X103160683Y-53458319D01*
X103250783Y-53626884D01*
X103306266Y-53809787D01*
X103325000Y-54000000D01*
X103306266Y-54190213D01*
X103250783Y-54373116D01*
X103160683Y-54541681D01*
X103039429Y-54689429D01*
X102891681Y-54810683D01*
X102723116Y-54900783D01*
X102540213Y-54956266D01*
X102350000Y-54975000D01*
X102159787Y-54956266D01*
X101976884Y-54900783D01*
X101808319Y-54810683D01*
X101660571Y-54689429D01*
X101539317Y-54541681D01*
X101449217Y-54373116D01*
X101393734Y-54190213D01*
X101375000Y-54000000D01*
X101393734Y-53809787D01*
X101449217Y-53626884D01*
X101539317Y-53458319D01*
X101660571Y-53310571D01*
X101808319Y-53189317D01*
X101976884Y-53099217D01*
X102159787Y-53043734D01*
X102350000Y-53025000D01*
X102540213Y-53043734D01*
G37*
G36*
X151340213Y-53043734D02*
G01*
X151523116Y-53099217D01*
X151691681Y-53189317D01*
X151839429Y-53310571D01*
X151960683Y-53458319D01*
X152050783Y-53626884D01*
X152106266Y-53809787D01*
X152125000Y-54000000D01*
X152106266Y-54190213D01*
X152050783Y-54373116D01*
X151960683Y-54541681D01*
X151839429Y-54689429D01*
X151691681Y-54810683D01*
X151523116Y-54900783D01*
X151340213Y-54956266D01*
X151150000Y-54975000D01*
X150959787Y-54956266D01*
X150776884Y-54900783D01*
X150608319Y-54810683D01*
X150460571Y-54689429D01*
X150339317Y-54541681D01*
X150249217Y-54373116D01*
X150193734Y-54190213D01*
X150175000Y-54000000D01*
X150193734Y-53809787D01*
X150249217Y-53626884D01*
X150339317Y-53458319D01*
X150460571Y-53310571D01*
X150608319Y-53189317D01*
X150776884Y-53099217D01*
X150959787Y-53043734D01*
X151150000Y-53025000D01*
X151340213Y-53043734D01*
G37*
G36*
X82016891Y-52768804D02*
G01*
X82175413Y-52824273D01*
X82317617Y-52913626D01*
X82436374Y-53032383D01*
X82525727Y-53174587D01*
X82581196Y-53333109D01*
X82600000Y-53500000D01*
X82581196Y-53666891D01*
X82525727Y-53825413D01*
X82436374Y-53967617D01*
X82317617Y-54086374D01*
X82175413Y-54175727D01*
X82016891Y-54231196D01*
X81850000Y-54250000D01*
X81683109Y-54231196D01*
X81524587Y-54175727D01*
X81382383Y-54086374D01*
X81263626Y-53967617D01*
X81174273Y-53825413D01*
X81118804Y-53666891D01*
X81100000Y-53500000D01*
X81118804Y-53333109D01*
X81174273Y-53174587D01*
X81263626Y-53032383D01*
X81382383Y-52913626D01*
X81524587Y-52824273D01*
X81683109Y-52768804D01*
X81850000Y-52750000D01*
X82016891Y-52768804D01*
G37*
G36*
X88516891Y-52768804D02*
G01*
X88675413Y-52824273D01*
X88817617Y-52913626D01*
X88936374Y-53032383D01*
X89025727Y-53174587D01*
X89081196Y-53333109D01*
X89100000Y-53500000D01*
X89081196Y-53666891D01*
X89025727Y-53825413D01*
X88936374Y-53967617D01*
X88817617Y-54086374D01*
X88675413Y-54175727D01*
X88516891Y-54231196D01*
X88350000Y-54250000D01*
X88183109Y-54231196D01*
X88024587Y-54175727D01*
X87882383Y-54086374D01*
X87763626Y-53967617D01*
X87674273Y-53825413D01*
X87618804Y-53666891D01*
X87600000Y-53500000D01*
X87618804Y-53333109D01*
X87674273Y-53174587D01*
X87763626Y-53032383D01*
X87882383Y-52913626D01*
X88024587Y-52824273D01*
X88183109Y-52768804D01*
X88350000Y-52750000D01*
X88516891Y-52768804D01*
G37*
G36*
X130816891Y-52768804D02*
G01*
X130975413Y-52824273D01*
X131117617Y-52913626D01*
X131236374Y-53032383D01*
X131325727Y-53174587D01*
X131381196Y-53333109D01*
X131400000Y-53500000D01*
X131381196Y-53666891D01*
X131325727Y-53825413D01*
X131236374Y-53967617D01*
X131117617Y-54086374D01*
X130975413Y-54175727D01*
X130816891Y-54231196D01*
X130650000Y-54250000D01*
X130483109Y-54231196D01*
X130324587Y-54175727D01*
X130182383Y-54086374D01*
X130063626Y-53967617D01*
X129974273Y-53825413D01*
X129918804Y-53666891D01*
X129900000Y-53500000D01*
X129918804Y-53333109D01*
X129974273Y-53174587D01*
X130063626Y-53032383D01*
X130182383Y-52913626D01*
X130324587Y-52824273D01*
X130483109Y-52768804D01*
X130650000Y-52750000D01*
X130816891Y-52768804D01*
G37*
G36*
X137316891Y-52768804D02*
G01*
X137475413Y-52824273D01*
X137617617Y-52913626D01*
X137736374Y-53032383D01*
X137825727Y-53174587D01*
X137881196Y-53333109D01*
X137900000Y-53500000D01*
X137881196Y-53666891D01*
X137825727Y-53825413D01*
X137736374Y-53967617D01*
X137617617Y-54086374D01*
X137475413Y-54175727D01*
X137316891Y-54231196D01*
X137150000Y-54250000D01*
X136983109Y-54231196D01*
X136824587Y-54175727D01*
X136682383Y-54086374D01*
X136563626Y-53967617D01*
X136474273Y-53825413D01*
X136418804Y-53666891D01*
X136400000Y-53500000D01*
X136418804Y-53333109D01*
X136474273Y-53174587D01*
X136563626Y-53032383D01*
X136682383Y-52913626D01*
X136824587Y-52824273D01*
X136983109Y-52768804D01*
X137150000Y-52750000D01*
X137316891Y-52768804D01*
G37*
G36*
X97873308Y-48376829D02*
G01*
X98056211Y-48432312D01*
X98224776Y-48522412D01*
X98372524Y-48643666D01*
X98493778Y-48791414D01*
X98583878Y-48959979D01*
X98639361Y-49142882D01*
X98658095Y-49333095D01*
X98639361Y-49523308D01*
X98583878Y-49706211D01*
X98493778Y-49874776D01*
X98372524Y-50022524D01*
X98224776Y-50143778D01*
X98056211Y-50233878D01*
X97873308Y-50289361D01*
X97683095Y-50308095D01*
X97492882Y-50289361D01*
X97309979Y-50233878D01*
X97141414Y-50143778D01*
X96993666Y-50022524D01*
X96872412Y-49874776D01*
X96782312Y-49706211D01*
X96726829Y-49523308D01*
X96708095Y-49333095D01*
X96726829Y-49142882D01*
X96782312Y-48959979D01*
X96872412Y-48791414D01*
X96993666Y-48643666D01*
X97141414Y-48522412D01*
X97309979Y-48432312D01*
X97492882Y-48376829D01*
X97683095Y-48358095D01*
X97873308Y-48376829D01*
G37*
G36*
X146673308Y-48376829D02*
G01*
X146856211Y-48432312D01*
X147024776Y-48522412D01*
X147172524Y-48643666D01*
X147293778Y-48791414D01*
X147383878Y-48959979D01*
X147439361Y-49142882D01*
X147458095Y-49333095D01*
X147439361Y-49523308D01*
X147383878Y-49706211D01*
X147293778Y-49874776D01*
X147172524Y-50022524D01*
X147024776Y-50143778D01*
X146856211Y-50233878D01*
X146673308Y-50289361D01*
X146483095Y-50308095D01*
X146292882Y-50289361D01*
X146109979Y-50233878D01*
X145941414Y-50143778D01*
X145793666Y-50022524D01*
X145672412Y-49874776D01*
X145582312Y-49706211D01*
X145526829Y-49523308D01*
X145508095Y-49333095D01*
X145526829Y-49142882D01*
X145582312Y-48959979D01*
X145672412Y-48791414D01*
X145793666Y-48643666D01*
X145941414Y-48522412D01*
X146109979Y-48432312D01*
X146292882Y-48376829D01*
X146483095Y-48358095D01*
X146673308Y-48376829D01*
G37*
M02*
