G04 #@! TF.GenerationSoftware,KiCad,Pcbnew,7.0.5*
G04 #@! TF.CreationDate,2023-12-30T15:13:16+10:00*
G04 #@! TF.ProjectId,SimonGame,53696d6f-6e47-4616-9d65-2e6b69636164,rev?*
G04 #@! TF.SameCoordinates,Original*
G04 #@! TF.FileFunction,Paste,Top*
G04 #@! TF.FilePolarity,Positive*
%FSLAX46Y46*%
G04 Gerber Fmt 4.6, Leading zero omitted, Abs format (unit mm)*
G04 Created by KiCad (PCBNEW 7.0.5) date 2023-12-30 15:13:16*
%MOMM*%
%LPD*%
G01*
G04 APERTURE LIST*
G04 Aperture macros list*
%AMRoundRect*
0 Rectangle with rounded corners*
0 $1 Rounding radius*
0 $2 $3 $4 $5 $6 $7 $8 $9 X,Y pos of 4 corners*
0 Add a 4 corners polygon primitive as box body*
4,1,4,$2,$3,$4,$5,$6,$7,$8,$9,$2,$3,0*
0 Add four circle primitives for the rounded corners*
1,1,$1+$1,$2,$3*
1,1,$1+$1,$4,$5*
1,1,$1+$1,$6,$7*
1,1,$1+$1,$8,$9*
0 Add four rect primitives between the rounded corners*
20,1,$1+$1,$2,$3,$4,$5,0*
20,1,$1+$1,$4,$5,$6,$7,0*
20,1,$1+$1,$6,$7,$8,$9,0*
20,1,$1+$1,$8,$9,$2,$3,0*%
%AMRotRect*
0 Rectangle, with rotation*
0 The origin of the aperture is its center*
0 $1 length*
0 $2 width*
0 $3 Rotation angle, in degrees counterclockwise*
0 Add horizontal line*
21,1,$1,$2,0,0,$3*%
G04 Aperture macros list end*
%ADD10R,0.630000X0.830000*%
%ADD11R,1.150000X1.450000*%
%ADD12R,1.450000X1.150000*%
%ADD13RoundRect,0.250000X0.070711X-0.565685X0.565685X-0.070711X-0.070711X0.565685X-0.565685X0.070711X0*%
%ADD14RoundRect,0.250000X0.450000X-0.350000X0.450000X0.350000X-0.450000X0.350000X-0.450000X-0.350000X0*%
%ADD15RoundRect,0.250000X-0.350000X-0.450000X0.350000X-0.450000X0.350000X0.450000X-0.350000X0.450000X0*%
%ADD16RotRect,1.220000X0.910000X315.000000*%
%ADD17R,0.900000X1.500000*%
%ADD18R,1.500000X0.900000*%
%ADD19RotRect,0.400000X1.350000X135.000000*%
%ADD20RotRect,1.400000X1.600000X225.000000*%
%ADD21RotRect,1.900000X1.900000X135.000000*%
%ADD22R,1.750000X0.650000*%
%ADD23R,1.470000X0.970000*%
%ADD24RoundRect,0.243750X0.456250X-0.243750X0.456250X0.243750X-0.456250X0.243750X-0.456250X-0.243750X0*%
%ADD25RoundRect,0.250000X-0.450000X0.350000X-0.450000X-0.350000X0.450000X-0.350000X0.450000X0.350000X0*%
%ADD26RoundRect,0.243750X-0.243750X-0.456250X0.243750X-0.456250X0.243750X0.456250X-0.243750X0.456250X0*%
%ADD27RoundRect,0.250000X0.350000X0.450000X-0.350000X0.450000X-0.350000X-0.450000X0.350000X-0.450000X0*%
G04 APERTURE END LIST*
D10*
X151700000Y-107800000D03*
X154000000Y-107800000D03*
X125050000Y-102300000D03*
X127350000Y-102300000D03*
D11*
X113900000Y-121800000D03*
X115700000Y-121800000D03*
D12*
X139900000Y-135850000D03*
X139900000Y-134050000D03*
D11*
X153800000Y-110050000D03*
X152000000Y-110050000D03*
D13*
X147857107Y-107842893D03*
X146442893Y-109257107D03*
X143194607Y-103592893D03*
X141780393Y-105007107D03*
D14*
X127650000Y-104962500D03*
X127650000Y-106962500D03*
D15*
X144900000Y-122050000D03*
X142900000Y-122050000D03*
D16*
X139697918Y-104002082D03*
X142102082Y-101597918D03*
D17*
X113100000Y-118250000D03*
X116400000Y-118250000D03*
X116400000Y-113350000D03*
X113100000Y-113350000D03*
D18*
X131500000Y-95000000D03*
X131500000Y-98300000D03*
X136400000Y-98300000D03*
X136400000Y-95000000D03*
D17*
X154700000Y-113400000D03*
X151400000Y-113400000D03*
X151400000Y-118300000D03*
X154700000Y-118300000D03*
D19*
X147844276Y-103277297D03*
X147384656Y-102817678D03*
X146925037Y-102358058D03*
X146465417Y-101898439D03*
X146005798Y-101438819D03*
D20*
X149346878Y-104461701D03*
X144821394Y-99936217D03*
D21*
X149665076Y-101315076D03*
X147968019Y-99618019D03*
D22*
X130525000Y-113295000D03*
X130525000Y-114565000D03*
X130525000Y-115835000D03*
X130525000Y-117105000D03*
X137775000Y-117105000D03*
X137775000Y-115835000D03*
X137775000Y-114565000D03*
X137775000Y-113295000D03*
D23*
X135650000Y-111430000D03*
X135650000Y-109770000D03*
D24*
X140000000Y-119862500D03*
X140000000Y-121737500D03*
D25*
X140600000Y-125600000D03*
X140600000Y-123600000D03*
D26*
X122212500Y-108800000D03*
X124087500Y-108800000D03*
D27*
X118150000Y-108800000D03*
X120150000Y-108800000D03*
D25*
X127650000Y-126800000D03*
X127650000Y-124800000D03*
D13*
X144711872Y-104988128D03*
X143297658Y-106402342D03*
D16*
X144220710Y-108479290D03*
X146624874Y-106075126D03*
D27*
X122900000Y-122300000D03*
X124900000Y-122300000D03*
D12*
X128150000Y-95400000D03*
X128150000Y-97200000D03*
D18*
X136400000Y-136800000D03*
X136400000Y-133500000D03*
X131500000Y-133500000D03*
X131500000Y-136800000D03*
D12*
X137800000Y-111300000D03*
X137800000Y-109500000D03*
D16*
X95420710Y-108479290D03*
X97824874Y-106075126D03*
D10*
X102900000Y-107800000D03*
X105200000Y-107800000D03*
X76250000Y-102300000D03*
X78550000Y-102300000D03*
D16*
X90897918Y-104002082D03*
X93302082Y-101597918D03*
D12*
X91100000Y-135850000D03*
X91100000Y-134050000D03*
X89000000Y-111300000D03*
X89000000Y-109500000D03*
D11*
X105000000Y-110050000D03*
X103200000Y-110050000D03*
D27*
X74100000Y-122300000D03*
X76100000Y-122300000D03*
D13*
X99057107Y-107842893D03*
X97642893Y-109257107D03*
X94394607Y-103592893D03*
X92980393Y-105007107D03*
D14*
X78850000Y-104962500D03*
X78850000Y-106962500D03*
D13*
X95911872Y-104988128D03*
X94497658Y-106402342D03*
D27*
X69350000Y-108800000D03*
X71350000Y-108800000D03*
D17*
X105900000Y-113400000D03*
X102600000Y-113400000D03*
X102600000Y-118300000D03*
X105900000Y-118300000D03*
X64300000Y-118250000D03*
X67600000Y-118250000D03*
X67600000Y-113350000D03*
X64300000Y-113350000D03*
D18*
X82700000Y-95000000D03*
X82700000Y-98300000D03*
X87600000Y-98300000D03*
X87600000Y-95000000D03*
D19*
X99044276Y-103277297D03*
X98584656Y-102817678D03*
X98125037Y-102358058D03*
X97665417Y-101898439D03*
X97205798Y-101438819D03*
D20*
X100546878Y-104461701D03*
X96021394Y-99936217D03*
D21*
X100865076Y-101315076D03*
X99168019Y-99618019D03*
D23*
X86850000Y-111430000D03*
X86850000Y-109770000D03*
D22*
X81725000Y-113295000D03*
X81725000Y-114565000D03*
X81725000Y-115835000D03*
X81725000Y-117105000D03*
X88975000Y-117105000D03*
X88975000Y-115835000D03*
X88975000Y-114565000D03*
X88975000Y-113295000D03*
D24*
X91200000Y-119862500D03*
X91200000Y-121737500D03*
D25*
X91800000Y-125600000D03*
X91800000Y-123600000D03*
D12*
X79350000Y-95400000D03*
X79350000Y-97200000D03*
D18*
X87600000Y-136800000D03*
X87600000Y-133500000D03*
X82700000Y-133500000D03*
X82700000Y-136800000D03*
D26*
X73412500Y-108800000D03*
X75287500Y-108800000D03*
D25*
X78850000Y-126800000D03*
X78850000Y-124800000D03*
D15*
X96100000Y-122050000D03*
X94100000Y-122050000D03*
D11*
X65100000Y-121800000D03*
X66900000Y-121800000D03*
D16*
X144220710Y-59679290D03*
X146624874Y-57275126D03*
D10*
X151700000Y-59000000D03*
X154000000Y-59000000D03*
X125050000Y-53500000D03*
X127350000Y-53500000D03*
D12*
X139900000Y-87050000D03*
X139900000Y-85250000D03*
X137800000Y-62500000D03*
X137800000Y-60700000D03*
D27*
X122900000Y-73500000D03*
X124900000Y-73500000D03*
D13*
X147857107Y-59042893D03*
X146442893Y-60457107D03*
X143194607Y-54792893D03*
X141780393Y-56207107D03*
D27*
X118150000Y-60000000D03*
X120150000Y-60000000D03*
D15*
X144900000Y-73250000D03*
X142900000Y-73250000D03*
D11*
X113900000Y-73000000D03*
X115700000Y-73000000D03*
D13*
X144711872Y-56188128D03*
X143297658Y-57602342D03*
D11*
X153800000Y-61250000D03*
X152000000Y-61250000D03*
D17*
X113100000Y-69450000D03*
X116400000Y-69450000D03*
X116400000Y-64550000D03*
X113100000Y-64550000D03*
D18*
X131500000Y-46200000D03*
X131500000Y-49500000D03*
X136400000Y-49500000D03*
X136400000Y-46200000D03*
D23*
X135650000Y-62630000D03*
X135650000Y-60970000D03*
D22*
X130525000Y-64495000D03*
X130525000Y-65765000D03*
X130525000Y-67035000D03*
X130525000Y-68305000D03*
X137775000Y-68305000D03*
X137775000Y-67035000D03*
X137775000Y-65765000D03*
X137775000Y-64495000D03*
D24*
X140000000Y-71062500D03*
X140000000Y-72937500D03*
D25*
X140600000Y-76800000D03*
X140600000Y-74800000D03*
D26*
X122212500Y-60000000D03*
X124087500Y-60000000D03*
D25*
X127650000Y-78000000D03*
X127650000Y-76000000D03*
D19*
X147844276Y-54477297D03*
X147384656Y-54017678D03*
X146925037Y-53558058D03*
X146465417Y-53098439D03*
X146005798Y-52638819D03*
D20*
X149346878Y-55661701D03*
X144821394Y-51136217D03*
D21*
X149665076Y-52515076D03*
X147968019Y-50818019D03*
D16*
X139697918Y-55202082D03*
X142102082Y-52797918D03*
D12*
X128150000Y-46600000D03*
X128150000Y-48400000D03*
D17*
X154700000Y-64600000D03*
X151400000Y-64600000D03*
X151400000Y-69500000D03*
X154700000Y-69500000D03*
D14*
X127650000Y-56162500D03*
X127650000Y-58162500D03*
D18*
X136400000Y-88000000D03*
X136400000Y-84700000D03*
X131500000Y-84700000D03*
X131500000Y-88000000D03*
D25*
X91800000Y-76800000D03*
X91800000Y-74800000D03*
D24*
X91200000Y-71062500D03*
X91200000Y-72937500D03*
D27*
X69350000Y-60000000D03*
X71350000Y-60000000D03*
D25*
X78850000Y-78000000D03*
X78850000Y-76000000D03*
D15*
X96100000Y-73250000D03*
X94100000Y-73250000D03*
D14*
X78850000Y-56162500D03*
X78850000Y-58162500D03*
D27*
X74100000Y-73500000D03*
X76100000Y-73500000D03*
D13*
X99057107Y-59042893D03*
X97642893Y-60457107D03*
X94394607Y-54792893D03*
X92980393Y-56207107D03*
X95911872Y-56188128D03*
X94497658Y-57602342D03*
D12*
X91100000Y-87050000D03*
X91100000Y-85250000D03*
D11*
X105000000Y-61250000D03*
X103200000Y-61250000D03*
D12*
X79350000Y-46600000D03*
X79350000Y-48400000D03*
D11*
X65100000Y-73000000D03*
X66900000Y-73000000D03*
D12*
X89000000Y-62500000D03*
X89000000Y-60700000D03*
D10*
X102900000Y-59000000D03*
X105200000Y-59000000D03*
X76250000Y-53500000D03*
X78550000Y-53500000D03*
D16*
X90897918Y-55202082D03*
X93302082Y-52797918D03*
X95420710Y-59679290D03*
X97824874Y-57275126D03*
D17*
X64300000Y-69450000D03*
X67600000Y-69450000D03*
X67600000Y-64550000D03*
X64300000Y-64550000D03*
D18*
X82700000Y-46200000D03*
X82700000Y-49500000D03*
X87600000Y-49500000D03*
X87600000Y-46200000D03*
D17*
X105900000Y-64600000D03*
X102600000Y-64600000D03*
X102600000Y-69500000D03*
X105900000Y-69500000D03*
D18*
X87600000Y-88000000D03*
X87600000Y-84700000D03*
X82700000Y-84700000D03*
X82700000Y-88000000D03*
D19*
X99044276Y-54477297D03*
X98584656Y-54017678D03*
X98125037Y-53558058D03*
X97665417Y-53098439D03*
X97205798Y-52638819D03*
D20*
X100546878Y-55661701D03*
X96021394Y-51136217D03*
D21*
X100865076Y-52515076D03*
X99168019Y-50818019D03*
D22*
X81725000Y-64495000D03*
X81725000Y-65765000D03*
X81725000Y-67035000D03*
X81725000Y-68305000D03*
X88975000Y-68305000D03*
X88975000Y-67035000D03*
X88975000Y-65765000D03*
X88975000Y-64495000D03*
D23*
X86850000Y-62630000D03*
X86850000Y-60970000D03*
D26*
X73412500Y-60000000D03*
X75287500Y-60000000D03*
M02*
